<?xml version="1.0" encoding="UTF-8"?><svg id="ARTWORK" xmlns="http://www.w3.org/2000/svg" viewBox="0 0 1000 1000"><path d="m687.2221,773.8285c.1138-.717.3123-1.3955.5534-2.079.2491-.7061-.173.3758-.1734.3938.0025-.0997.1569-.3434.2083-.4503.2012-.4184.4207-.8278.6503-1.2312.804-1.4122,1.7369-2.7449,2.6253-4.104.8456-1.2938,1.647-2.6108,2.2645-4.0306.8455-1.9438,1.4664-3.968,2.1564-5.9704,1.2325-3.5765,2.5115-7.147,3.5997-10.7706,1.132-3.7696,1.9967-7.6238,2.8905-11.4553,1.8131-7.7724,3.1629-15.6441,4.5809-23.497,1.4154-7.8384,2.8599-15.6702,4.3462-23.4955,1.7758-9.3499,3.429-18.7075,4.6926-28.1418-.097.7218-.194,1.4435-.2909,2.1653,1.1339-7.7985,1.6638-15.7008,1.769-23.5769.0457-3.4214.2948-6.8358.3979-10.2554.1241-4.1153-.1043-8.1347-.7412-12.2077-.399-2.5516-1.2327-4.8948-2.2852-7.2536-.3598-.8064-.7006-1.6256-1.0825-2.4215-.6645-1.3848-1.5813-2.5283-2.5307-3.7401l1.2002,1.5534c-.1669-.2198-.3297-.441-.4895-.666-.7212-1.0154-1.526-1.9791-2.6183-2.6183-1.4193-.8305-3.044-1.0824-4.6538-.8661-2.8504.383-5.2741,2.4166-6.0676,5.2279-.4537,1.6072-.7013,3.2595-.5606,4.9254.1545,1.8296.5502,3.5127.9827,5.2749.2617,1.0663.6724,2.0911.9628,3.1513.316,1.1534.5246,2.3284.691,3.5118l-.3084-2.2951c.4991,3.7696.4744,7.5764.3914,11.3705-.0829,3.7859-.0574,7.5658-.0909,11.3516-.07,7.9116-.7344,15.8135-1.566,23.6776-.4731,4.474-1.0378,8.9377-1.6368,13.3964l.2735-2.0351c-1.8519,13.7434-3.7026,27.4868-5.5493,41.231l.2386-1.7754c-.9518,7.0704-1.8561,14.1448-2.805,21.2153l.2112-1.5716c-.7294,5.4069-1.7681,10.6764-3.1938,15.9432-.658,2.4308-1.1867,4.939-2.0329,7.3108-.2785.7805.4569-.9936.1022-.2298-.1084.2333-.2149.4673-.3276.6985-.2674.5485-.5548,1.0872-.8495,1.6215-.5332.9666-1.0944,1.9173-1.6303,2.8823-1.5207,2.7384-2.6931,5.5198-2.9781,8.6616-.1978,2.1813,1.833,4.0688,3.8289,4.337,1.9692.2646,4.5003-.9908,4.8451-3.1631h0Z" style="stroke-width:0px;"/><path d="m585.1369,715.123c-1.7586-7.2039-2.8852-14.5504-4.7214-21.7354-.9-3.5215-2.2195-6.9181-4.0438-10.0694-1.7861-3.0854-4.2311-5.8317-6.5854-8.4987-2.1399-2.4241-4.2872-4.839-6.4072-7.2807-2.1964-2.5296-4.4221-5.0362-6.7767-7.4207-1.1886-1.2037-2.4092-2.376-3.6653-3.5092-1.15-1.0374-2.2986-2.0448-3.3387-3.1963-2.0045-2.2192-3.8998-4.6005-6.2107-6.5151-1.6381-1.3571-1.7783-1.4566-3.7814-2.2008-.2166-.0805-.4348-.1678-.658-.2286-1.5544-.423-3.1968-.5538-4.7683-.121-3.2043.8824-5.7729,3.9873-5.6284,7.3926.0667,1.5714.4906,3.1346,1.4028,4.4276.5839.8277,1.1316,1.7462,1.8868,2.4091.3097.2719.6421.5189.9519.7918.6348.5591,1.2399,1.151,1.832,1.7549,1.1982,1.2223,2.3256,2.5169,3.5723,3.6905,1.7297,1.6284,3.6761,2.9873,5.553,4.4368l-1.59-1.2284c3.8139,2.9619,7.3376,6.2572,10.7862,9.6315,3.2723,3.2018,6.6691,6.2968,9.8452,9.594,1.6968,1.7615,3.3709,3.6028,4.8685,5.5376l-.9714-1.2573c2.6453,3.4612,4.3485,7.4937,6.0364,11.4814-.166-.3933-.3319-.7865-.4979-1.1798,2.2375,5.3036,4.2035,10.7156,6.5199,15.9873.3153.7176,1.3484,1.4378,2.0893,1.6066.7817.1781,1.534.137,2.2763-.1762,1.6189-.6832,2.4419-2.4126,2.0241-4.1242h0Z" style="stroke-width:0px;"/><path d="m251.8205,39.0718c1.4591-.5324,2.9358-1.0141,4.4434-1.391.6951-.1738,1.3951-.327,2.0997-.4569.3128-.0577.6269-.1062.9403-.1596,1.3139-.224-1.3006.1204-.0268.011,2.7177-.2335,5.4727-.3706,8.2016-.2856,7.3041.2277,14.5447,1.6274,21.8309.286l-2.237.3006c1.7136-.1636,3.3287-.3344,5.0492-.1275l-2.4086-.3236c2.7954.4169,5.5216,1.3241,8.2663,1.9858,2.1181.5106,4.3178.9044,6.4955.9748,1.6407.053,3.2651-.1285,4.9024.0673l-2.6455-.3555c.7775.1365,1.4948.3539,2.2209.658-.7989-.3371-1.5978-.6743-2.3967-1.0114,2.7789,1.2734,5.1864,3.0167,8.1758,3.902,2.0341.6024,4.2555.7512,6.3615.9192,1.4663.117,2.938.1475,4.4085.1495,5.5457.0073,11.0247-.3588,16.5519.3545-.9506-.1277-1.9012-.2555-2.8518-.3832,2.1432.2965,4.2609.726,6.3379,1.336,2.1363.6274,4.1599,1.5898,6.2981,2.1941,5.2957,1.4967,10.7875,1.0372,16.1791,1.7185-.9694-.1303-1.9387-.2605-2.9081-.3908,4.1326.5954,8.2141,1.8453,12.2758,2.8022,3.9484.9302,8.1506,1.6535,11.9119,3.2078l-2.6109-1.1018c2.7332,1.2247,5.3058,2.9449,8.2542,3.6422,3.1898.7544,6.1142.6403,9.3014.2731,4.8298-.5563,9.9456-.9415,14.7857-.3648l-2.6295-.3533c2.5437.348,5.0157,1.0914,7.5376,1.5695,2.5765.4884,5.1763.9308,7.6538,1.8161,2.0477.7317,4.0435,1.5365,6.1423,2.1248,2.1389.5995,4.2987,1.0545,6.3701,1.8817l-1.9213-.8108c.6482.2742,1.2657.5543,1.857.9325.8129.5199-1.6016-1.5131-.5227-.3982l.2963.2806c.5434.5943.3775.3517-.4976-.7277.0812.1715.9257,1.3729.8101,1.4596-.0084.0063-.8116-1.9655-.3699-.8754.3899.9624.7917,1.9216,1.2175,2.8689,1.326,2.9497,3.0071,5.7392,4.6157,8.5402.8079,1.4068,1.6005,2.8204,2.3295,4.2701.3667.7293.7199,1.4655,1.0605,2.2075.2044.4454.4005.8942.5992,1.3421.6951,1.5665-.5903-1.5205.0277.0823,1.265,3.2813,2.3711,6.5916,3.2315,10.0037,1.7673,7.0086,3.2931,14.061,4.7891,21.131,1.5159,7.1642,3.1894,14.2891,4.7881,21.4341.8434,3.7692,1.5357,7.742,2.9733,11.3374,1.4452,3.6144,3.5351,6.8634,5.0909,10.4162l-.7944-1.8823c.9029,2.1622,1.3832,4.4593,2.0314,6.705.6836,2.3681,1.4369,4.7151,2.1498,7.0744,1.4709,4.8674,2.7543,9.7882,4.212,14.6597,1.4658,4.8986,2.8718,9.8153,4.1865,14.7566,1.2746,4.7904,2.3059,9.6509,3.9312,14.3399,1.9737,5.6941,4.4558,11.1941,6.8058,16.7377l-.9543-2.2612c1.2839,3.0498,2.3327,6.171,3.5236,9.2538,1.3622,3.5261,2.9827,6.9444,4.4591,10.4224-.3127-.7411-.6255-1.4821-.9382-2.2232.8808,2.1015,1.6639,4.2396,2.3463,6.4139.6289,2.004.8935,4.144,1.5533,6.1227-.0979-.7283-.1957-1.4565-.2936-2.1848l-.041.4032c-.2001,1.9698,1.0613,4.4655,2.4071,5.8113,1.4254,1.4254,3.7641,2.4988,5.8113,2.4071,2.1255-.0952,4.3299-.7934,5.8113-2.4071,1.5572-1.6963,2.175-3.5267,2.4071-5.8113l.041-.4032-1.1221,4.148c4.32-8.5528-.2547-17.8021-3.6238-25.7733.314.7441.628,1.4881.942,2.2322-1.6164-3.8369-2.8216-7.8051-4.3294-11.6822-1.8417-4.7357-3.938-9.3618-5.9166-14.0399l.9508,2.2531c-2.3181-5.5255-3.8885-11.1789-5.5403-16.9254-1.7196-5.9823-3.5788-11.9237-5.5211-17.8371-1.8969-5.7751-4.1648-11.4195-6.45-17.0499-1.3014-3.2065-2.3617-6.5067-3.7287-9.6836-.9996-2.323-2.3881-4.4074-3.728-6.5414-.6683-1.0644-1.3182-2.1429-1.873-3.2717-.1062-.216-.215-.5589-.3586-.7653.8698,1.2506.4709,1.2288.2747.6006-.2707-.8665-.5809-1.7232-.861-2.587-.943-2.908-1.8307-5.834-2.6763-8.7718-1.7145-5.9567-2.9412-12.0869-4.2784-18.137-1.322-5.9811-2.5905-11.9717-3.8728-17.9612-1.2471-5.8251-2.681-11.5209-4.9691-17.0371-1.4553-3.5083-3.1233-6.8565-4.923-10.1977-.7584-1.4081-1.4945-2.8191-2.1508-4.278-.1266-.2813-.241-.5715-.3741-.8493.9422,1.9659.2101.4796.0441.0489-.2371-.615-.4471-1.2381-.6592-1.8619-.5417-1.5931-1.1314-3.2121-2.1167-4.5861-.6841-.954-1.4208-1.9358-2.3136-2.7156-.1838-.1606-.3747-.3084-.5641-.4617-1.93-1.4763-2.1195-1.6321-.5685-.4674l-.2919-.2294c-2.8985-2.5853-6.7294-4.5083-10.3324-5.8633.6984.2947,1.3967.5894,2.0951.8841-.9339-.4408-1.898-.8203-2.85-1.2203l2.1093.8901c-3.6624-1.5491-7.1138-3.4946-10.9118-4.7373-1.8203-.5956-3.6728-1.0867-5.4981-1.6662-1.76-.5588-3.4628-1.2676-5.2616-1.7011-4.1971-1.0116-8.5662-1.2448-12.8653-1.4218-3.3358-.1373-6.7103.0774-10.0322-.2616l2.8881.3881c-.8109-.111-1.568-.3108-2.3333-.6028l2.6003,1.0974c-1.4002-.5936-2.6772-1.4156-4.0452-2.0731-2.2309-1.072-4.4962-1.874-6.8562-2.5698-3.4263-1.0102-6.8907-1.8915-10.3771-2.6673-4.2638-.9487-8.4954-1.9792-12.8447-2.4607-3.4732-.3845-6.978-.1724-10.4496-.5752l2.8859.3878c-3.491-.4699-6.6441-2.0004-10.0382-2.8616-3.7764-.9582-7.7131-1.452-11.599-1.6679-3.3683-.1871-6.739-.1114-10.1053.0716-3.543.1926-7.1051.6305-10.6488.1968.9111.1224,1.8221.2448,2.7332.3673-.7949-.1374-1.543-.3568-2.2943-.6505.812.3427,1.6239.6853,2.4359,1.028-3.2461-1.3734-6.1965-3.096-9.7442-3.5727-3.2109-.4314-6.3451.2915-9.5477-.1303l2.5729.3457c-1.9024-.2774-3.7772-.706-5.6762-1.0025-3.383-.5281-6.1079-.537-9.4741.0511-1.9297.3371-3.6979,1.1659-5.5721,1.6964-1.8799.5321-3.8217.8583-5.7543,1.1259l2.0675-.2778c-5.892.7735-11.8869.8579-17.7043,2.1651-.5357.1204-1.0979.2213-1.6185.3939l-1.4944.6306.8091-.3493c-.4669.1553-.9535.3939-1.3998.5823-1.2416.524-2.4607,1.0753-3.6368,1.7355-2.4825,1.3936-4.7612,3.1355-6.9415,4.9576-3.1069,2.5965.2131,8.249,3.9981,6.8681h0Z" style="stroke-width:0px;"/><path d="m301.9728,73.613c5.1778,1.28,10.2932,2.8395,15.4879,4.0446,2.6007.6033,5.2398.986,7.9005,1.1959,2.5686.2026,5.1309.1634,7.7052.2496,1.1723.0393,2.3443.1019,3.5121.2138.3454.0331.6905.0697,1.0348.1124-.1499-.0186-.5798-.0924.1071.0178.6598.1059,1.3163.2258,1.9676.3765,2.5546.591,5.0124,1.5348,7.4493,2.4876,2.4164.9448,4.8267,1.9217,7.3222,2.6424,2.7925.8065,5.6331,1.0285,8.5268,1.0228.7245-.0014,1.4501-.0162,2.174.0195.3608.0178.7195.0597,1.0797.0836,1.224.0814-1.1081-.2328.0705.0026,1.3327.2662,2.6143.6513,3.8978,1.0982,2.9566,1.0295,5.8347,1.9175,8.9833,2.1716l-1.648-.2214c.7152.1459,1.4057.338,2.0815.6153l-1.5398-.6498c.9473.4219,1.7767,1.0097,2.5957,1.6392-.4584-.3541-.9167-.7083-1.3751-1.0624,1.6992,1.3177,3.348,2.7175,5.2317,3.7646,1.8469,1.0267,3.7931,1.9197,5.7879,2.6155,1.9771.6896,4.0722.9693,6.1478,1.1728,1.5337.1503,3.0777.0697,4.6086.2563-.6576-.0884-1.3152-.1767-1.9727-.2651.6229.0868,1.2323.2112,1.8141.4553l-1.7801-.7512c.2388.1104.4599.2368.6716.3937l-1.5108-1.1673c.1863.1515.3479.316.4958.5054l-1.1691-1.5132c.1665.2332.296.4765.4075.7403l-.7551-1.7894c.7327,1.8846.7786,4.0471,1.2354,6.009.8849,3.8008,1.4263,7.6465,2.0234,11.4998,1.2618,8.1417,4.2078,15.8342,6.8543,23.6052,2.6354,7.7384,5.2588,15.4663,7.4556,23.3436,1.0958,3.9295,2.1154,7.8803,3.0582,11.8492.9108,3.8346,1.6832,7.6963,2.8039,11.4781,1.2677,4.278,2.8053,8.4685,4.3008,12.6703,1.5017,4.219,3.2155,8.5048,3.8483,12.9573l-.2963-2.2048c.4468,3.3293.5221,6.8532,1.6739,10.0366,1.0749,2.9708,2.7556,5.5783,3.9973,8.4591-.281-.666-.5621-1.3319-.8431-1.9979,1.1894,2.9174,2.0835,5.9993,3.0329,9.002.9977,3.1554,1.93,6.3358,2.6764,9.5609.7704,3.3286,1.33,6.705,1.9555,10.0628.6092,3.2705,1.1417,6.6213,2.1524,9.7968,1.047,3.2896,2.5646,6.4621,3.098,9.8964l-.3131-2.3298c.0286.1975.0527.3956.0721.5943.2619,2.3942.804,4.4368,2.5688,6.2016,1.5212,1.5212,4.0169,2.6667,6.2016,2.5688,2.2682-.1016,4.6208-.8467,6.2016-2.5688,1.4543-1.5842,2.8617-3.9604,2.5688-6.2016-.3171-2.4259-.6943-4.6386-1.5139-6.9357-.6241-1.749-1.3491-3.46-1.9769-5.2077-1.3272-3.695-2.0129-7.6346-2.8047-11.4709-.7884-3.8194-1.5329-7.6546-2.5547-11.4202-1.0123-3.7305-2.2193-7.4057-3.4756-11.0602-.8568-2.4923-1.6945-4.9836-2.8028-7.3798-.849-1.8356-1.961-3.5347-2.7735-5.3889.28.6636.5601,1.3271.8401,1.9907-.7274-1.7561-1.0474-3.6117-1.3028-5.4863l.2968,2.2085c-.4027-3.0584-.6552-6.1648-1.5684-9.1245-.6794-2.2022-1.4379-4.3803-2.2168-6.549-1.6111-4.4857-3.3365-8.932-4.798-13.4702-1.4522-4.5092-2.428-9.1255-3.5747-13.7162-1.1844-4.7419-2.4778-9.4568-3.8822-14.1383-2.8239-9.4136-6.2448-18.6301-9.4539-27.9159-1.5887-4.597-3.1346-9.1344-4.1073-13.9083-.9261-4.5454-1.6677-9.1003-2.8445-13.5919-.3776-1.441-.601-2.9121-.9431-4.3602-.5022-2.1261-1.498-4.0586-3.0163-5.6348-2.0994-2.1794-4.9707-2.856-7.8533-3.1581-2.049-.2147-4.1057.0034-6.1559-.2563.6488.0872,1.2975.1744,1.9463.2615-1.6791-.24-3.2807-.7109-4.8433-1.367.5763.2432,1.1526.4864,1.7289.7296-3.1798-1.378-6.1943-3.1289-9.4627-4.3165-3.2938-1.1969-6.8044-.4795-10.2003-.9088l1.5253.205c-2.4727-.3346-4.9466-.8817-7.4461-.9541-2.4056-.0697-4.8142.4148-7.2071.6049-.6036.048-1.2086.0831-1.8142.0899-.4864.0055-1.3428.1038-1.802-.0744.8577.3327.2798.0435-.0656-.0111-.296-.0468-.5913-.0971-.886-.1514-.6497-.1197-1.2961-.2563-1.9399-.4042-2.349-.5394-4.6584-1.233-6.9872-1.8509-4.7808-1.2685-9.4922-1.8081-14.4302-1.4681-4.8635.3348-9.5204,1.2908-14.3868,1.2937-5.5771.0034-10.968-1.1932-16.46-2.0084-.9859-.1463-1.4463,1.2849-.4239,1.5377h0Z" style="stroke-width:0px;"/><path d="m198.4139,952.7529c3.7753-8.4132,8.7554-17.0125,12.8642-25.5449,9.7221-20.1895,12.7087-42.1668,18.0008-63.6759,2.2229-9.0348,5.8349-17.541,7.8192-26.6394,1.6417-7.5272,2.6984-15.1904,4.4172-22.7019,2.9551-12.9147,7.6021-25.4735,12.526-37.6977,5.5555-13.7922,12.1507-42.2166,30.5418-42.4517,3.7505-.048,7.6763-.3535,11.415-.1717,6.6199.3218,12.0875,4.0777,18.5092,5.0931,13.4409,2.1254,22.0737,6.8191,33.7767,13.2421,7.7743,4.2668,17.8021,6.5628,26.3942,8.9384,9.1523,2.5306,18.3183,5.0151,27.6263,6.9975,15.1643,3.2297,30.5935.5736,45.7247,5.1547,8.7352,2.6447,13.7102,7.4556,21.2465,12.4205,8.386,5.5247,16.8016,4.7531,26.2914,4.9276,12.2338.2249,11.5243,2.9182,11.5777,13.9263.0452,9.3229-2.1826,18.0376-3.8502,27.2137-2.9478,16.2196-6.1971,32.7046-8.7187,48.9758-1.7599,11.3565-5.2065,22.1814-7.6842,33.4008-1.988,9.002-3.7218,18.1657-5.7156,26.985-.7726,3.4176-4.4074,21.1931-6.8461,21.7529-4.6134-14.0451-14.4305-27.0941-26.7907-35.9242-4.8478-3.4633-16.4596-8.1168-22.7251-7.9844-6.685.1413-14.8796,7.2998-19.3835,11.7979-12.9905,12.9739-19.9787,30.6607-39.8561,34.2986-10.9095,1.9966-12.8964-1.1348-20.5002-7.3296-5.2797-4.3013-10.4748-7.7928-15.437-12.7222-10.3613-10.2927-15.5157-24.0881-24.1097-35.8252-4.3405-5.9279-10.1649-11.813-17.646-13.2421-6.0737-1.1602-18.5746-1.1609-24.4326.5038-13.5483,3.8502-25.079,20.7316-30.9564,32.4945-1.7787,3.56-2.9884,7.2623-5.6585,10.4014-3.2747,3.8499-5.5037,3.9074-9.847,6.2905-5.3963,2.9608-12.8443,5.2819-17.6624,8.7666.9554-1.2364,1.5094-2.651,1.662-4.2439" style="stroke-width:0px;"/><path d="m201.8032,954.734c7.0643-12.8656,16.0089-24.9713,21.2464-38.9337,4.9421-13.175,7.954-26.9395,11.2857-40.5785,1.7067-6.9866,3.5992-13.861,5.9629-20.6564,2.3699-6.813,4.5288-13.5855,6.0231-20.6511,1.5285-7.2275,2.8444-14.4906,4.8389-21.6109,1.9737-7.046,4.3942-13.9801,6.9634-20.8292,2.2338-5.9551,4.7656-11.793,6.9496-17.7661,1.6931-4.6307,3.3355-9.2797,5.2522-13.8245l-.9568,2.2674c2.1114-4.9643,4.5266-9.8515,7.8108-14.1556-.5005.6478-1.001,1.2957-1.5015,1.9435,1.4785-1.9014,3.1207-3.6532,5.0167-5.1446-.6512.5031-1.3023,1.0062-1.9535,1.5093,1.3278-1.0141,2.7348-1.8481,4.2622-2.5236l-2.3148.9769c1.4529-.6117,2.9508-1.018,4.513-1.2287-.8594.1155-1.7187.2309-2.5781.3464,2.2483-.2596,4.5494-.1933,6.8091-.2664,2.7112-.0877,5.4548-.1914,8.1546.1293l-2.5854-.3474c6.0475.8738,11.4375,4.0512,17.4614,5.0713,5.7711.9773,11.365,2.6003,16.7639,4.8597-.7796-.329-1.5592-.658-2.3388-.987,5.9893,2.5458,11.5682,5.8257,17.3262,8.8299,6.8009,3.5483,14.2003,5.7865,21.5713,7.7957,15.4142,4.2016,30.9224,9.2531,46.9191,10.5738,8.5002.7018,17.0548.535,25.5206,1.6724-.8855-.119-1.7711-.238-2.6566-.357,4.5476.6445,9.0654,1.6287,13.3292,3.3673-.7977-.3366-1.5955-.6733-2.3932-1.0099,4.2329,1.794,8.0018,4.3418,11.7221,7.011,4.4773,3.2123,8.7548,6.1192,13.979,8.0372,4.7995,1.7621,10.1049,2.2324,15.1818,2.3864,4.2781.1297,8.5999-.1133,12.8574.4054-.8963-.1204-1.7927-.2409-2.689-.3613,1.1672.1581,2.3219.3827,3.4173.8262-.8055-.3399-1.6111-.6799-2.4166-1.0198.4463.1969.8583.4237,1.2519.7123l-2.0465-1.5811c.2966.2365.5582.4926.7988.7863l-1.5805-2.0457c.2693.3586.4808.7325.6607,1.143-.3395-.8045-.679-1.609-1.0185-2.4135.3011.755.4644,1.5377.5754,2.3409l-.3606-2.6838c.7097,5.8042.3101,11.9851-.4375,17.7484l.3585-2.668c-.7751,5.7103-2.0105,11.3401-3.0321,17.0082-1.0573,5.8663-2.1236,11.7309-3.1912,17.5954-2.117,11.6287-3.9407,23.2963-5.9228,34.9459-1.9377,11.3884-5.227,22.5028-7.5051,33.8239-1.8368,9.1279-3.5537,18.2777-5.4731,27.3891-.7359,3.4931-1.4846,6.9928-2.3805,10.4488-.4096,1.5802-.8459,3.1624-1.4154,4.6936-.0565.1519-.1211.3024-.1741.4553-.3178.9165.699-1.5379.6107-1.4423-.1513.1638-.2347.509-.3475.7105-.2267.405-.9058,1.284.2447-.2131,1.0221-1.33.7556-.9309.5033-.6757.6056-.6123,2.2504-1.5673,3.374-1.9453,3.5182,1.9976,7.0364,3.9951,10.5546,5.9927-4.233-11.6614-10.6857-22.3591-19.3901-31.2383-3.9621-4.0417-8.4601-8.0205-13.3512-10.8905-4.6225-2.7124-9.7931-4.7979-14.9367-6.2801-5.2451-1.5114-10.9709-2.3851-16.2553-.5566-6.0567,2.0957-11.1956,5.9191-15.9469,10.1357-6.9764,6.1913-12.2859,13.7844-18.2585,20.8808-1.6455,1.9551-3.3524,3.8619-5.1799,5.6493-.9037.8839-1.8365,1.7382-2.8034,2.5527-.2033.1713-.4103.338-.6143.5084-1.0762.8986.3893-.2065.6321-.473-.4197.4606-1.1068.8178-1.6206,1.1686-1,.6828-2.0328,1.3183-3.0961,1.8979-.6009.3276-1.2117.6372-1.8309.9287-.2035.0958-.605.2111-.7565.3444l1.2782-.5363c-.2604.1071-.522.211-.785.3116-2.7222,1.0415-5.5551,1.6893-8.4379,2.09l2.289-.3076c-1.8869.2376-3.771.3511-5.6653.1343l2.2942.3083c-.6474-.0898-1.2871-.2078-1.9165-.3865-.298-.0846-.5863-.2032-.8834-.2878-1.2768-.3635,1.9404.9388,1.0793.4576-1.1179-.6247-2.2144-1.2157-3.2583-1.967-.2338-.1683-.4603-.3473-.6951-.5141,2.3305,1.6551,1.0953.8506.5787.4407-.576-.4571-1.1464-.9212-1.7179-1.3837-1.9763-1.5992-3.9798-3.1632-6.0057-4.6992-1.6766-1.2711-3.3752-2.5127-5.0584-3.775-.2908-.2181-.5813-.4366-.871-.6561l-.4344-.3301c-.7021-.538-.5786-.442.3707.2881-1.0736-.5531-2.0972-1.6703-3.0156-2.4524-3.1075-2.6464-6.0011-5.5403-8.5872-8.6998-.2154-.2632-.4251-.5312-.641-.7941-1.1391-1.3868,1.0298,1.4003-.0429-.051-.6109-.8266-1.2238-1.6507-1.8166-2.4904-1.1835-1.6763-2.3666-3.3736-3.4539-5.1112-2.0957-3.3492-4.0127-6.8117-6.0691-10.1854-4.1535-6.8145-8.7473-13.8572-15.0463-18.8878-3.5664-2.8482-7.5198-5.2198-11.9914-6.3499-3.3178-.8385-6.844-1.0983-10.256-1.2616-3.3645-.161-6.7459-.1444-10.1062.099-3.326.2409-6.7615.5755-9.942,1.6322-7.2284,2.4016-13.4542,7.1395-18.6461,12.6237-5.06,5.3449-9.4612,11.4018-13.1923,17.7407-1.9874,3.3764-3.5743,6.9164-5.3574,10.3969-.508.9916-1.0534,1.9636-1.6758,2.8884l-.1449.2156c-.4899.6784-.3987.5716.2736-.3205-.0091.3495-1.0887,1.2218-1.345,1.4738-.286.2811-.709.551-.9521.8649,1.1156-1.4412,1.0786-.7891.3633-.323-.6969.4541-1.4371.8326-2.1899,1.1842-3.6038,1.6829-7.1626,3.4554-10.8132,5.0383-3.9198,1.6997-7.9488,3.311-11.4625,5.7822l11.0576,11.0576c1.8227-2.4823,2.4137-5.3365,2.7793-8.323.2341-1.9124-1.0732-4.4266-2.3712-5.7246-1.4042-1.4042-3.7079-2.4615-5.7246-2.3712-2.0938.0938-4.2653.7815-5.7246,2.3712-1.5488,1.6871-2.095,3.4681-2.3712,5.7246.346-2.8268-.2184-.3463-.2341.1053.5424-1.2219.6131-1.4569.212-.7051-.16.2646-.3342.5195-.5226.7646-2.0047,2.7646-1.1798,7.5508,1.2637,9.7939,2.4857,2.2818,6.8187,3.3829,9.7939,1.2637,5.377-3.83,11.8654-5.6841,17.6122-8.8525,2.2921-1.2637,4.8191-2.1771,6.9532-3.709,3.4437-2.4719,6.2144-5.6745,8.1546-9.4566,1.4455-2.8177,2.5706-5.7863,4.0168-8.6065,1.2803-2.4966,2.6633-4.9412,4.1439-7.3245.7108-1.1442,1.4445-2.2743,2.2024-3.3879.428-.6288.8637-1.2524,1.3072-1.8704.2229-.3106.4483-.6195.6754-.9271.1362-.1851.2733-.3695.4115-.5531.4743-.6245.3679-.4908-.319.4011.991-.8689,1.7685-2.2023,2.6473-3.1989,1.0573-1.1991,2.15-2.3632,3.2974-3.477,1.0144-.9846,2.0658-1.9309,3.1595-2.8267.1409-.1154,1.2734-1.0562.2938-.246-.9698.802.1509-.0984.3077-.211.6369-.4575,1.287-.8963,1.9518-1.3124,1.1225-.7027,2.2851-1.298,3.4703-1.884,1.0521-.5202-.4959.2225-.6034.2441.3717-.0745.7725-.3009,1.1329-.4264.5691-.1982,1.1454-.3761,1.7291-.5263.5384-.1385,1.0827-.2538,1.629-.3566.5658-.1065,2.8222-.3157.3121-.0909,1.3864-.1241,2.7633-.3014,4.1541-.3888,2.9345-.1843,5.8814-.2146,8.8194-.1019,1.3377.0513,2.6749.134,4.0072.2661.2425.024.4846.0536.7271.0772,1.3319.1299-1.5753-.2551-.673-.0969.6825.1196,1.3635.2175,2.0388.377.7834.185,1.5286.4467,2.2915.6975.9925.3263-.2047-.2147-.3501-.1547.1389-.0574.8955.4566,1.0591.5447.6315.3402,1.2468.7091,1.8459,1.1036.2595.1709,1.0441.5477,1.1814.8254l-.661-.5168c.2522.1996.5013.403.7472.6103,1.1738.9904,2.2754,2.0636,3.3171,3.1916.4931.534.9729,1.08,1.4403,1.6366.2292.2729.8134.7796.9135,1.1199l-.5282-.6903c.1923.2512.3827.5038.571.758,2.0352,2.7476,3.8689,5.6411,5.6183,8.5769,3.469,5.8216,6.5774,11.8577,10.1201,17.6317,3.9318,6.4081,8.614,12.2132,14.3238,17.1154,2.7742,2.3818,5.6779,4.6059,8.5061,6.9219,2.2791,1.8663,4.4461,3.8655,6.7303,5.7246,2.7749,2.2584,5.2872,4.0116,8.6853,5.2008,2.803.981,5.9814,1.2354,8.9351.9948,7.0867-.5772,14.0331-2.5384,20.1189-6.2841,5.0036-3.0795,9.3759-7.1254,13.2099-11.5513,7.2669-8.3886,13.2841-17.7343,21.9956-24.7886.1868-.1513,1.4231-1.1465.2577-.2152s.0893-.0528.2855-.1951c.6385-.4629,1.2875-.9116,1.9502-1.3392,1.2954-.8359,2.6471-1.4984,4.0096-2.2076-2.4163,1.2578-.3329.1663.3981-.0451.2616-.0756.5261-.1457.7916-.2066.9542-.219,1.5143.1538-.6758.0419.5133.0262,1.0418-.0554,1.5604-.0371.8492.03,3.0201.5549.0524-.0737,2.7839.5897,5.4869,1.2205,8.1763,2.1793.7053.2515,1.4063.5149,2.1027.7902.2763.1092.5499.2282.8275.3336-2.2936-.8711-1.1466-.4889-.5891-.2443,1.3243.5812,2.6312,1.2049,3.9056,1.8891.9265.4974,1.8393,1.0248,2.7132,1.6104.5842.3915,1.1454.8154,1.7123,1.2312,1.4075,1.0326-1.2169-.9759-.3061-.2449.4575.3673.9182.7301,1.3707,1.1037,2.5288,2.0881,4.9166,4.3462,7.1488,6.7485,1.0888,1.1718,2.1402,2.3779,3.153,3.6159.2663.3255.5249.6572.79.9836.7376.9083-1.2793-1.7097-.2356-.3033.5502.7415,1.0962,1.4852,1.6239,2.243,1.8579,2.6681,3.5423,5.4578,5.0251,8.3515.3769.7355.7405,1.4778,1.091,2.2263.1747.3731.3425.7491.513,1.1241.4823,1.0605-.8002-2.031-.2082-.4106.56,1.5327,1.1048,3.0627,1.5783,4.6251,1.3423,4.4293,5.9831,7.2605,10.5546,5.9927,6.0769-1.6853,8.1174-8.6027,9.7782-13.9253,1.298-4.16,2.2994-8.3944,3.282-12.6374,1.702-7.3493,3.3051-14.7184,4.9455-22.0816,1.8519-8.3128,4.1123-16.5022,6.2424-24.7449,2.1471-8.3085,3.497-16.702,4.9679-25.1462,1.4953-8.5841,3.1202-17.145,4.7411-25.706,1.5889-8.3917,3.3085-16.7676,4.8087-25.1749,1.3645-7.6471,2.1312-15.3627,1.7951-23.133-.1533-3.5449-.6809-6.8683-2.4228-10.0018-1.9804-3.5627-5.6844-5.9389-9.529-7.0125-7.6325-2.1313-15.9059-.5989-23.694-1.5635.8933.12,1.7866.2401,2.6799.3601-2.7757-.378-5.4656-1.044-8.054-2.1237.8015.3382,1.603.6765,2.4045,1.0147-4.0654-1.7881-7.5892-4.5878-11.1957-7.1363-3.6412-2.573-7.351-4.8243-11.4658-6.5608-9.9747-4.2094-20.8765-4.9854-31.5864-5.3902-5.6151-.2122-11.2336-.3866-16.8117-1.1108.8805.1183,1.7611.2366,2.6416.355-9.8113-1.3459-19.4953-4.1985-29.0346-6.793-8.5746-2.3321-17.365-4.2947-25.5891-7.7189.783.3304,1.566.6609,2.349.9913-4.8821-2.0813-9.4201-4.9018-14.1563-7.2872-5.0088-2.5227-10.1935-4.813-15.5429-6.513-2.4885-.7908-5.0211-1.4395-7.5804-1.956-2.7026-.5454-5.3989-.9015-8.0321-1.7527-2.4654-.7969-4.8573-1.8032-7.3236-2.5977-3.2427-1.0446-6.6709-1.6119-10.0748-1.7091-2.9588-.0845-5.9157.0957-8.8722.1837-2.6697.0794-5.3398.2185-7.9524.8388-4.5889,1.0896-8.6312,3.6398-12.1351,6.7178-6.483,5.6952-10.3327,13.8148-13.6078,21.616-2.7211,6.4814-4.7486,13.2088-7.2637,19.7661-4.1892,10.9224-8.3326,21.7918-11.1034,33.1806-2.8827,11.8489-3.7481,24.0985-7.017,35.8556-1.5733,5.6588-3.4686,11.2259-4.8911,16.9269-1.4244,5.7087-2.5035,11.5117-3.6376,17.2833-2.2542,11.4715-4.4071,22.9966-7.8617,34.1833-.862,2.7914-1.7295,5.5814-2.6692,8.3468-.4559,1.3416-.9345,2.6755-1.4383,3.9998-.2357.6197-.4772,1.2371-.7239,1.8525-.1416.3531-.2852.7053-.4299,1.0571-.0557.1353-.5315,1.2796-.205.5036-1.1466,2.7246-2.3601,5.4213-3.5717,8.1175-1.3274,2.954-2.8661,5.9011-3.975,8.936-1.0073,2.7569-2.1724,5.4618-3.1698,8.2273-1.518,4.209,5.0564,6.8819,7.1743,3.0246h0Z" style="stroke-width:0px;"/><path d="m836.6592,366.0873c-1.0246-4.4601-8.8955-9.66-12.8539-12.2407-5.8855-3.8368-14.4402-7.5755-21.1564-10.1499-8.5379-3.2723-16.8684-7.557-25.5396-10.484-9.1298-3.0806-20.2763-6.0761-28.3019-11.3764-3.038-2.0067-4.9225-5.0469-7.9146-7.1551-4.6299-3.2617-10.2789-5.0968-15.2406-7.7688-5.7655-3.1047-11.8943-6.3008-17.1946-10.1724-7.6332-5.575-16.8829-9.3714-23.9623-15.4968-7.0491-6.0996-13.4122-12.392-20.9804-18.0096-7.8148-5.8014-16.1128-8.5951-24.6249-12.855-10.8091-5.409-21.505-7.4449-33.387-9.7284-6.992-1.343-14.6016-.6424-21.7371-.5807-7.039.06-12.5759-1.9618-19.4378-2.6972-6.6153-.7085-13.8471.1334-20.523.1334-7.678,0-16.578-1.4461-23.9707.5717-11.5507,3.1535-23.8351.3699-35.7126,2.5728-11.5535,2.1434-23.0733,2.1255-35.0562,1.9753-9.9695-.1244-19.2842,2.6479-29.4386,2.5896-6.8025-.0398-13.6061.009-20.4086.009-13.2065,0-28.1842-1.926-41.2892-.1334-5.492.7517-9.65,2.7084-15.3723,2.7656-4.5156.0448-9.0429-.0622-13.5607-.0594-7.5564.0045-15.4418-.6782-22.9719-.1334-8.6864.6289-15.9726,2.8811-24.8911,2.7062-6.3995-.1256-11.4672,2.0358-17.7753,2.5728-14.6958,1.2511-29.6438,3.0739-44.1187,5.7179-18.9266,3.4579-38.3762,4.9993-56.9042,9.0872-17.9457,3.959-36.4082,7.8344-54.1213,12.7995-17.9855,5.0419-33.1353,16.7546-51.498,21.3615-3.8788.9731-4.381-.0544-7.5766,2.8794-2.4243,2.2258-4.5812,6.7605-5.2784,9.9711-1.158,5.3328.2141,12.4498.1833,17.9502-.0712,12.9083,2.5565,24.9937,2.5728,37.9519.0118,9.6533-2.1502,15.735,7.6769,20.6922,5.7493,2.9001,15.1935,1.0286,18.8666,5.3513,3.4371,4.0442,1.806,13.2849,1.7623,18.2299-.0729,8.233,2.2253,15.2131,2.7012,23.2516.5431,9.1741-1.1463,18.5163.4394,27.5956,1.5398,8.8153,4.1921,17.9485,4.7061,27.0155.5084,8.9639.1071,16.9295,1.8077,25.71,1.9753,10.1953,3.6552,20.5437,5.2056,30.8237,1.9019,12.6084,1.8542,25.4567,3.7179,38.0797,1.0476,7.0996,4.0447,14.1891,4.7061,21.3565.7819,8.4818-1.7387,16.0685,4.8289,23.2791,5.015,5.5066,11.9251,6.8978,18.0696,9.8837,28.2279,13.7188,59.5051,19.0707,90.7049,23.8788-3.5857-3.5576-7.2106-7.0626-11.1096-10.2138-7.5811-6.1265-16.8902-10.2049-24.126-16.698-3.7297-3.3463-7.9684-5.9668-11.9487-9.039-2.6126-2.0173-4.0117-2.3598-3.6602-6.02.375-3.9091,3.3144-7.2397,5.3592-10.4537,4.2706-6.7151,5.9712-14.7681,8.6477-22.2062,1.0869-3.0212,2.9775-10.9431,5.5895-12.8937,4.6792-3.4943,10.9733.0101,15.6319,1.1261,5.3278,1.2763,10.0423,4.1591,15.1464,6.3905,3.0425,1.3307,5.9124,3.0874,8.9174,4.5055,1.7438.8228,3.5913,1.5168,5.4589,2.186-2.315-8.5681-4.64-17.1273-6.1388-25.9163-1.69-9.9134-4.927-20.0594-5.8597-30.0406-.4103-4.39.8038-9.0042.2657-13.3724-.4507-3.6608-2.334-6.849-2.8385-10.507-1.2421-9.0037.25-19.0309.1418-28.1494-.0303-2.547-1.357-8.3282.3201-10.6174,3.0279-4.1316,8.7481-1.6031,13.1073-2.6266,5.5621-1.306,9.3181-6.4718,14.8561-7.5312,4.1277-.7903,8.4118,1.1104,12.6168-.0818,2.3279-8.1315.2562-19.5129.2562-28.0272,0-5.1333-.1059-10.2811-.0415-15.4144.0796-6.3832-.2735-5.8838,5.0705-8.1578,6.5559-2.7897,12.3988-4.9023,19.6329-4.7129,5.3754.1413,6.8412-.6564,11.2844-2.5975,4.5032-1.968,8.2722-1.2959,12.6084-2.8205,1.4058-6.0402-2.9865-17.4648,4.0761-20.2326,2.6087-1.0224,6.8619.0011,9.6892-.0432,5.5324-.0863,9.5042-2.4411,14.8651-2.7286,3.5604-.1911,7.3087.6194,10.8545.2293,4.6002-.5062,8.2397-2.4876,12.8646-2.7656,5.4752-.3285,22.3464-2.3178,24.8351,1.6933,2.3721,3.8222-.4585,11.6538.1967,15.8774.602,3.8816,2.0039,8.0878,3.0212,11.8567.8907,3.297,1.2937,6.8294,2.1423,9.9807,1.843,6.8417,5.7554,4.4231,12.7384,4.381,9.5356-.0583,19.0746.0022,28.6102.009,4.2858.0028,8.6365-.287,12.9128-.1171,7.5934.301,6.228,1.8783,7.5194,7.8445,1.4277,6.5962,4.1002,12.8012,5.2274,19.4154,1.6429,9.6331,3.8132,18.7741,6.4623,28.1478,2.6496,9.3759,2.2707,19.6295,4.4018,29.1645,2.4315,10.8797,6.2992,21.9019,9.0821,32.8007,2.348,9.1948,6.6215,17.8224,9.6371,26.8227,2.9394,8.7722,4.3822,18.685,7.8765,27.0149,1.75,4.172,5.1775,7.4673,7.0435,11.637,1.5112,3.3766,2.1771,6.8473,3.6669,10.2318,3.3374,7.585,6.1478,15.3079,9.0693,23.1557,3.0818,8.2778,5.8182,16.0831,7.3266,24.5699.1923,1.0824.3285,2.1266.4753,3.1782,13.6084-2.1059,26.8686-8.5138,40.5779-9.8714,4.1535-.4114,8.7083,1.0286,12.8046.2657,3.4265-.6379,6.0245-2.4142,9.595-2.8385,9.2677-1.1009,19.421.1334,28.7817.1334h48.9672c9.8047,0,20.5689,1.287,30.2918.1323,5.5907-.6637,10.5972-2.4209,16.2708-2.774,1.5381-.0958,3.4808.6014,4.9438.2517,7.9718-1.9024,12.4582-10.5552,15.4379-17.4877,1.8744-4.3603,3.2196-9.4924,5.6579-13.5787,2.2959-3.8457,4.8261-5.9668,6.7106-10.2912,3.1031-7.1198,5.5794-15.4424,7.5267-23.0223,2.8015-10.91,8.456-20.6009,11.6331-31.4515,3.39-11.5815,7.3574-22.2718,11.5636-33.5658,2.5212-6.7689,3.158-13.6448,5.0357-20.5325,2.8172-10.336,7.6153-19.921,10.4011-30.2604,1.1468-4.2555,2.7892-8.7514,3.3609-13.1386.3363-2.5823-1.0246-5.0234.0639-7.5861,3.8351-9.0356,21.2483-4.1849,28.2918-4.9825,8.5581-.9691,10.1488-5.2459,12.7272-13.0501,2.3755-7.1921,4.1367-14.9777,5.168-22.5005,1.0157-7.3983,3.1995-14.3298,4.4909-21.7365.9574-5.4858,2.0257-14.5848.7646-20.0701Z" style="fill:#45d88e; stroke-width:0px;"/><path d="m844.2292,364.0004c-2.694-8.6926-12.0838-14.5535-19.606-18.8376-9.1248-5.1969-19.1345-8.55-28.7274-12.7396-10.2785-4.4891-20.7574-7.7975-31.2647-11.6362-4.0265-1.4711-8.4318-3.1061-11.8616-5.7292-3.9654-3.0327-6.7518-6.7371-11.2617-9.2131-9.5346-5.2346-19.5389-9.1604-28.514-15.4735-8.6806-6.1059-18.274-10.4792-26.2427-17.5793-8.3529-7.4424-16.5408-15.4657-26.4305-20.8668-4.8371-2.6417-9.9491-4.7224-14.9214-7.0866-5.2774-2.5092-10.5295-4.9583-16.1127-6.7291-10.278-3.2597-21.5968-5.8843-32.4004-6.112-5.3425-.1126-10.7198.5076-16.0531.1297-6.0291-.4272-11.8834-2.2716-17.9314-2.7343-5.3966-.4129-10.808.0795-16.2047.2178-5.4649.14-10.8919-.4058-16.3519-.4525-5.3792-.046-10.2731,1.0551-15.4998,2.0203-5.6536,1.044-11.53.6591-17.2496.6708-11.8235.024-23.3737,2.69-35.2183,2.9321-5.4239.1109-10.8656-.1715-16.2843.0377-5.8816.227-11.6756,1.3276-17.5133,1.9886-11.8651,1.3436-24.4068.8509-36.3315.4233-10.9712-.3934-22.0039-1.4004-32.9568-.163-5.0079.5658-9.8034,2.338-14.7778,2.8679-5.7987.6177-11.9671.0737-17.7945-.0083-5.8876-.0829-11.7762-.4757-17.6656-.2714-5.8814.204-11.6675,1.2135-17.4749,2.0919-4.9045.7418-9.7938.4574-14.6949,1.0016-5.58.6196-10.9738,2.1035-16.5699,2.6095-12.4282,1.1237-24.8356,2.6391-37.1471,4.6834-23.4225,3.8893-47.0137,6.6517-70.2194,11.7383-21.8044,4.7795-44.4122,8.6941-64.7613,18.1781-9.4149,4.388-18.4849,9.6406-28.3932,12.8819-3.738,1.2228-8.1797,1.4208-11.6859,3.1678-4.3617,2.1733-7.512,6.1926-9.5641,10.5324-4.664,9.8635-2.7359,21.5218-2.2101,32.0737.5508,11.0534,2.5667,22.0137,2.4264,33.1045-.0982,7.7634-.7874,15.5805,5.0525,21.6871,3.2016,3.3478,7.7009,5.7951,12.212,6.7724,2.0798.4506,4.2264.6592,6.3366.9168,1.3187.1609,4.2588.8618,4.827.8238l.7449.4422c-1.1446-1.302-1.3533-1.3872-.6261-.2556.1015-.3217-.0253.2061.0686.7478.275,1.5867.132,3.6202.059,5.341-.1967,4.6403-.4614,9.1014.0824,13.7381.6097,5.1981,1.8286,10.3276,2.2058,15.5495.4611,6.383-.2334,12.7633-.2075,19.1487.048,11.8321,4.356,22.9531,5.2992,34.6548.4246,5.2673.3549,10.5626.6263,15.8381.3413,6.6354,1.5312,13.0828,2.7178,19.6044,2.0944,11.5114,4.1567,23.0978,5.1275,34.7654.9752,11.7205,1.2108,23.6671,4.1837,35.1036,1.3596,5.2303,2.9814,10.3057,3.056,15.7518.0662,4.8333-.2645,9.6854.9432,14.4291,2.7951,10.9787,12.2444,16.413,21.9972,20.3559,10.372,4.1932,20.3076,9.0331,31.0098,12.4471,10.5673,3.3709,21.3655,5.9676,32.2373,8.1429,10.9488,2.1907,21.9771,3.9514,33.0103,5.6549,3.5011.5405,6.9663-.3605,8.8656-3.6078,1.7504-2.9926,1.2453-7.0674-1.2275-9.5134-5.6476-5.5862-11.4629-10.936-18.0905-15.3535-5.3575-3.5709-11.1764-6.5661-16.1459-10.6874-2.9581-2.4532-5.8974-4.8695-9.0209-7.1174-1.1063-.7962-2.2233-1.5775-3.3237-2.3819-.7384-.5357-1.4691-1.0817-2.1921-1.638-.8875-.7001-1.0873-.8389-.5994-.4164-1.2027-1.2404-.9447-.4807.7743,2.2791-.1345-.437-.0419-.8693.2777-1.2968.8148-.8483,1.4089-2.3657,2.0743-3.3621,1.7779-2.6623,3.4458-5.263,4.7611-8.1952,2.8157-6.2773,4.7204-12.9241,6.8797-19.4442.6847-2.0675,1.2292-4.1918,2.0096-6.2271.341-.8893.6175-1.6621,1.1827-2.5147-.7209,1.0876-1.6961.1624.0973.7394,5.5482,1.7851,11.0404,3.0273,16.3213,5.5733,7.0302,3.3895,13.9201,7.1741,21.263,9.8478,5.7845,2.1063,11.1187-4.2462,9.657-9.657-3.8482-14.2443-6.6944-28.6559-9.8328-43.0644-.774-3.5536-1.6119-7.1704-1.8853-10.8056-.237-3.1506.2537-6.2465.3681-9.3873.2636-7.238-3.2262-13.5386-3.4101-20.7041-.182-7.0927.753-14.1622.6134-21.2502-.0432-2.1947.0372-5.0079-.5253-7.1109.0664-1.0815.0512-1.3156-.0456-.7023-.2707.9242-.8423,1.5675-1.7148,1.9301-.0532-.1201,1.7242-.0256,2.339-.0151,6.561.1121,11.4743-1.4374,16.9204-5.1121,2.049-1.3825,3.7394-2.7252,6.2291-2.7934,4.1583-.1138,7.7323.6989,11.9314-.1706,2.5958-.5375,4.8373-2.9769,5.4831-5.4831,2.2522-8.7402,1.045-17.6168.6357-26.4866-.2213-4.7963-.1502-9.618-.1601-14.4188-.0046-2.238.0334-4.4752.041-6.713.002-.5752.5168-1.9119-.0095-1.0838-.4616.7264-.69,4.1392-2.3578,3.4086.3428.1502,2.52-1.1892,2.955-1.3711,2.0856-.872,4.1987-1.6954,6.3572-2.3702,4.0473-1.2653,7.676-1.383,11.8664-1.5149,4.3322-.1363,7.6538-1.4032,11.6103-2.9443,4.0003-1.5581,8.3076-1.4943,12.3895-2.7531,2.4736-.7628,4.9706-2.7986,5.4831-5.4831.5342-2.7981.6249-5.4935.4628-8.3226-.08-1.3959-.2041-2.7901-.2449-4.1881-.0178-.6081-.0293-1.2164-.0163-1.8248.0295-1.3812.3025.0377.1061-1.2925-.2989-2.0244-.3047.982-.6044.444.1568.2815,1.2551.3064,2.1468.3713,3.9716.2889,7.6294.2131,11.5535-.6619,3.5556-.7929,6.6712-1.8831,10.3561-1.7563,4.4272.1524,8.5049.4324,12.9024-.5165,2.9073-.6273,5.6777-1.7455,8.6456-2.0641,2.4292-.2608,4.8928-.3917,7.3309-.5364,2.6654-.1582,5.3406-.2701,8.0109-.1862.5716.018,3.2072.2307,2.1553.0714.4897.0741.96.1856,1.4435.2826,1.1168.2241-.0999-.6345.3878.0734-.1272-.1846-1.7999-2.1046-1.9292-2.1344-.1425-.0328.1063.3179.0217.8321-.2328,1.4145-.1865,2.9406-.354,4.3745-.4499,3.8527-.5648,7.1835.2341,11.0304.7947,3.8267,2.1151,7.515,3.008,11.3162.9672,4.1174,1.2707,8.4738,3.2311,12.2967,3.1305,6.1046,9.1226,7.0947,15.3184,6.5958,8.1466-.656,16.4593-.2166,24.6282-.1973,4.1844.0099,8.3666.029,12.5501-.0719,2.1534-.0519,4.3091-.1181,6.4633-.0725.8494.018,1.7076.03,2.5542.0992.9971.0815.7967.1557.816.1352l.3161.0853c-1.1896-.3222-2.1226-1.048-2.7988-2.1776-.4359-.4315-.2103-1.5888-.3045-.4577-.0682.8185.3152,1.8763.4614,2.6954.6956,3.8981,1.9045,7.6629,3.0594,11.4428,2.6116,8.5468,3.7891,17.4096,5.8754,26.0914,1.8876,7.8548,4.2804,15.4402,5.1305,23.5026.932,8.8397,2.1538,17.3841,4.5106,25.9716,2.289,8.3406,4.8509,16.6005,7.1139,24.9493,2.1814,8.048,5.6867,15.6217,8.5147,23.4453,3.1332,8.668,4.5495,17.8226,7.5976,26.5099,1.5454,4.4045,3.5733,8.0871,6.1992,11.91,2.3279,3.3891,3.3741,6.7613,4.7404,10.6021,6.289,17.6802,15.2513,34.6505,17.8602,53.4555.6237,4.4958,5.9433,6.0977,9.657,5.4831,9.5433-1.5796,18.5983-4.9599,27.92-7.4277,4.2361-1.1214,8.6871-2.3526,13.1043-2.2204,4.6792.1401,8.9531.9716,13.6078-.2453,4.1978-1.0974,7.4853-2.5342,11.9119-2.6792,4.8468-.1588,9.6937.1017,14.5349.3054,10.4873.4413,21.0026.2369,31.4974.2369,10.3365,0,20.7055-.236,31.0373.0911,9.8768.3127,19.6593,1.0514,29.474-.5386,3.9985-.6477,8.0473-2.095,12.1146-2.1943,2.5232-.0616,4.4629.5519,7.0308-.0288,2.1561-.4875,4.2873-1.4874,6.1646-2.627,6.6241-4.021,10.7432-11.1045,13.7663-18.0118,1.6818-3.8427,2.8573-7.9182,4.6253-11.7137,1.8406-3.9512,4.9745-7.0175,7.0494-10.8144,4.5959-8.4102,6.887-18.199,9.3929-27.3749,2.5229-9.2383,7.0067-17.7384,10.1536-26.7534,3.2214-9.2283,5.8972-18.6254,9.2496-27.8198,1.5349-4.2097,3.2824-8.3842,4.5853-12.6725,1.6077-5.2913,2.3316-10.7941,3.677-16.1496,2.3739-9.4498,6.5841-18.2854,9.5438-27.5446,1.267-3.9636,2.4484-8.0098,3.5029-12.0356.6231-2.379,1.2297-4.9144,1.3802-7.3815.0713-1.1692.0633-2.4401-.2161-3.5885-.1077-.4842-.1563-.9728-.1457-1.4658-.4469.9537-.424.9924.0687.1162-1.184,1.4557.1128.2537.2393.2027-.7784.3143,3.0427-.5935,1.6829-.4108,3.2348-.4348,6.6167-.1241,9.8552.1089,6.8043.4896,14.0009.9521,19.9379-3.1328,7.4234-5.1075,9.7124-15.4459,11.7875-23.6582,2.6211-10.3734,4.1366-21.0762,6.3863-31.5461,1.993-9.2751,3.5094-19.2296,1.63-28.6385-.8309-4.1598-5.7793-6.5487-9.657-5.4831-4.335,1.1913-6.3164,5.4852-5.4831,9.657,1.3622,6.8195-.4449,14.9828-1.949,21.738-2.016,9.054-3.3198,18.2383-5.3864,27.2689-.98,4.2823-2.1817,8.5114-3.6035,12.668-.4577,1.338-.6625,2.0576-1.1106,2.9681-.296.6014-.6139,1.2233-1.0146,1.7639-.0525.0709-.7161.3006-.1696.1479-1.7132.4789-2.6749.9758-4.888.9519-2.76-.0299-5.5155-.3606-8.2689-.5285-6.1927-.3776-12.9071-.2693-18.3992,2.9858-3.064,1.816-5.5489,4.8031-6.6527,8.2018-.7501,2.3097-.6953,4.5383-.4542,6.9161.2151,2.121-.1662,3.9-.7094,5.9645-2.367,8.9969-5.4752,17.6743-8.7394,26.3739-3.4414,9.1721-4.9734,18.5154-7.5666,27.8979-2.4931,9.0204-6.4118,17.7123-9.3856,26.5912-3.0536,9.1175-5.8075,18.1605-9.5273,27.0433-3.4822,8.3153-5.7307,16.7591-8.3571,25.3534-1.2477,4.0828-2.5036,8.2985-4.3458,12.1592-1.8705,3.92-5.016,6.9936-7.0578,10.8126-3.6152,6.7621-5.1617,14.3451-9.3274,20.8606-1.1551,1.8066-3.1256,4.6791-5.3922,5.1769-1.1622.2552-2.6551-.2505-3.9022-.2499-2.7089.0013-5.6048.6254-8.2533,1.1408-4.0974.7973-8.0612,1.7651-12.2424,1.9895-4.8487.2602-9.7076.0696-14.5544-.1344-9.893-.4164-19.7776-.3542-29.6778-.3542-11.2045,0-22.4303.2002-33.6323-.0335-10.2239-.2133-21.8426-2.2354-31.7399,1.0969-1.8703.6297-3.7236,1.6161-5.6804,1.838-2.3283.264-4.7865-.2899-7.1075-.4419-5.2591-.3443-10.6723.7765-15.7704,1.9946-10.3168,2.465-20.2218,6.3998-30.7178,8.1371,3.219,1.8277,6.438,3.6554,9.657,5.4831-2.3901-17.228-9.7487-34.1819-16.5055-50.0964-1.5355-3.6166-2.5406-7.4074-4.0326-11.0392-1.7156-4.1761-4.5413-7.4247-6.7335-11.3131-3.9051-6.9268-4.7892-15.7483-6.9528-23.3236-2.479-8.6794-6.4257-16.8248-9.2563-25.3816-2.7619-8.3489-4.8917-16.9824-7.3335-25.4356-2.5045-8.6703-4.2203-17.1138-5.1614-26.0801-.9744-9.283-3.3153-17.9095-5.5126-26.9421-2.1695-8.9184-3.3672-18.0431-6.0541-26.8259-1.1562-3.7793-2.364-7.5447-3.0594-11.4428-.4664-2.6141-.923-4.9891-2.5968-7.1548-4.6791-6.0541-14.0426-4.8162-20.7701-4.6612-9.2089.2122-18.4314.0169-27.6425.0369-3.4088.0074-6.7675.0617-10.1632.3359-.6648.0537-1.333.074-1.9968.1255-1.2086.0938-1.0387-.5976-.2581.0447.2965.2439,1.9479,1.5541,2.22,1.6161.0649.0148-.3713-1.2112-.5795-2.0908-.9891-4.1787-1.7285-8.3557-2.9048-12.4951-.9928-3.4935-1.9227-6.5152-1.555-10.1379.6983-6.881,1.7884-15.1464-5.185-19.3523-4.9046-2.9582-11.5859-2.7328-17.1046-2.5257-6.9283.2601-13.7423.8191-20.4446,2.6454-4.7786,1.3021-9.0941.3625-13.9512.6024-4.5328.2239-8.626,1.9254-13.0493,2.5867-4.0628.6075-8.0669-.7887-12.1543.1245-4.0366.9018-7.4665,3.3788-9.4008,7.0754-1.698,3.2451-2.0444,7.0393-1.939,10.6444.0453,1.5518.1896,3.0987.2739,4.6483.0403.741.0827,1.4825.0839,2.2249.0006.3978-.3119,3.0199-.0148,1.4636,1.8277-1.8277,3.6554-3.6554,5.4831-5.4831-4.8503,1.4958-9.7342,1.6159-14.4837,3.6119-3.7381,1.571-5.9109,1.326-10.1466,1.5688-5.1895.2975-10.1919,1.5164-15.0306,3.3706-3.6858,1.4123-8.3082,2.6957-11.2607,5.4959-2.7526,2.6107-3.3052,6.0978-3.4165,9.7216-.1633,5.315-.0139,10.6478.017,15.9639.052,8.9539,2.2888,18.7039.0272,27.4807,1.8277-1.8277,3.6554-3.6554,5.4831-5.4831-2.5139.5206-5.2218-.3622-7.7575-.3903-3.4864-.0386-6.7549.8046-9.8723,2.3282-3.5269,1.7237-7.1336,5.5363-10.7061,5.6638-5.519.197-10.6415-.3908-15.0199,3.8697-4.0409,3.932-4.027,9.3417-3.5066,14.5441,1.1504,11.501-2.1234,23.2557.7579,34.6588.6529,2.5842,1.9673,5.0618,2.2497,7.7265.3043,2.8716-.3222,5.8561-.428,8.727-.2336,6.3392,1.2923,12.8631,2.6554,19.0253,3.1327,14.1615,5.8883,28.3351,9.6736,42.3467,3.219-3.219,6.438-6.438,9.657-9.657-6.0275-2.1948-11.7358-5.4726-17.5124-8.2651-5.666-2.739-11.4479-4.7475-17.4794-6.499-6.1619-1.7894-13.4367-1.8862-18.2822,3.0079-3.4594,3.4941-4.8693,8.7866-6.2971,13.345-1.6568,5.2895-3.3112,10.6333-5.2241,15.8354-2.0225,5.5001-5.9983,9.7714-8.2807,15.0923-2.4407,5.6899-2.3705,12.2115,2.4748,16.5725,4.4425,3.9983,9.7701,6.9815,14.3204,10.8722,5.4536,4.6631,11.5508,8.2748,17.5764,12.1203,6.381,4.0722,11.7896,9.0444,17.1596,14.356,2.546-4.3737,5.092-8.7474,7.6381-13.1211-21.9673-3.3916-44.0268-7.0139-65.2476-13.7978-9.9379-3.177-19.1544-7.5871-28.7671-11.5442-3.5852-1.4758-7.5195-2.7569-10.3914-5.4714-3.0983-2.9284-3.2958-6.4409-3.2937-10.4555.0026-4.9476-.1062-9.6906-1.0633-14.5814-1.1241-5.7444-3.1815-11.2667-4.0633-17.0647-1.6586-10.9049-1.6459-22.0189-3.0165-32.9623-1.5092-12.0494-3.7561-23.9956-5.907-35.941-1.9307-10.7225-.9161-21.7341-2.5464-32.5166-.802-5.304-2.0517-10.5233-3.1199-15.7765-1.2027-5.9147-1.3371-11.6344-1.1218-17.6472.1975-5.5166.3922-10.9691-.2839-16.4634-.6657-5.4106-1.9537-10.7741-2.2361-16.2246-.4228-8.1591,2.0295-16.8584-2.3984-24.3693-2.2791-3.8659-6.4954-6.1153-10.765-7.0207-3.6291-.7696-8.1229-.5324-11.4195-1.8273-1.3826-.5431-2.5572-1.3572-3.3418-2.2707.7741.9014-.5043-.8802-.5466-1.008.5073,1.5327-.0915-.9092-.0947-.989.0501,1.2373.0021-2.2154.012-2.8153.0376-2.2778.1819-4.5516.1824-6.8306.0023-10.7344-1.9-21.3435-2.4334-32.0464-.2484-4.9846-.365-9.9587-.6538-14.9433-.2489-4.2972-.3952-8.8134,2.4602-12.3926.7076-.8869,2.0376-1.4026.9178-1.0958,1.7408-.4771,3.5901-.5774,5.3508-1.0454,5.3881-1.4322,10.5737-3.5666,15.6628-5.8181,8.6803-3.8404,16.9385-8.6336,25.7445-12.1894,10.2564-4.1414,21.3398-6.4229,32.0816-8.9379,22.115-5.1779,44.1705-9.5715,66.6688-12.6973,11.5904-1.6103,23.0771-3.7986,34.6513-5.4965,11.0717-1.6241,22.324-2.0785,33.3598-3.835,4.883-.7772,9.3723-1.8439,14.3274-1.9361,5.7779-.1075,11.4775-1.0861,17.1743-1.974,11.1259-1.7341,22.5265-.6739,33.7371-.582,5.309.0435,10.55.2119,15.8035-.7081,4.7722-.8357,9.2665-2.2486,14.1295-2.5665,11.0043-.7194,22.0117.4651,33.0127.6521,11.3614.1931,23.0276.6277,34.3129-.8112,5.0952-.6496,10.1768-1.5195,15.3182-1.7179,5.9066-.228,11.8336.0888,17.746-.0717,11.3482-.3081,22.4207-2.875,33.7565-2.898,5.4771-.0111,10.9558.1625,16.4077-.4896,5.058-.605,9.8642-2.1483,14.9794-2.2039,4.9465-.0537,9.8772.4859,14.8226.4996,5.8859.0163,11.7663-.6396,17.6535-.3491,4.9003.2418,9.6463,1.5569,14.4888,2.2526,6.0382.8676,11.9337.4759,18.007.4291,20.3836-.1571,40.815,8.1671,58.4416,17.7935,9.6104,5.2485,17.248,13.2237,25.4404,20.3475,7.8305,6.809,17.0843,11.0572,25.5577,16.9041,8.857,6.1116,18.2038,10.7549,27.8389,15.4668,1.9185.9382,4.0114,1.917,5.6974,3.2592,1.624,1.2929,2.8888,3.0763,4.4465,4.4582,3.8839,3.4456,8.5369,5.7086,13.2814,7.7131,9.3158,3.9359,19.1734,6.3372,28.4942,10.256,9.6157,4.0428,19.5303,7.7389,28.8782,12.369,3.7987,1.8816,7.4309,4.022,10.9128,6.4406,1.2824.8908,2.5237,1.8044,3.6859,2.8512.7781.7009,1.6307,1.4393,2.2706,2.2743-.1002-.1307.5429,1.4933.1891.3519,2.9817,9.6211,18.1431,5.5159,15.1401-4.1739Z" style="fill:#45d88e; stroke-width:0px;"/><path d="m285.3703,719.1451c-.8446-.9196-1.7699-1.7387-2.6505-2.6195-.7939-.7941-1.494-1.6908-2.2718-2.5039-.7743-.8094-1.5707-1.5973-2.3752-2.3766-.4067-.3939-.8157-.7855-1.2251-1.1766-.8289-.7919-1.7219-1.4799-2.6336-2.1769l1.3365,1.0326c-2.4055-1.8619-4.6035-3.9638-6.8275-6.0341-2.6716-2.487-5.4611-4.7884-8.415-6.9376.5278.4077,1.0555.8155,1.5833,1.2232-2.1639-1.6978-4.515-3.1203-6.6947-4.7968.5422.4189,1.0843.8377,1.6265,1.2566-2.2205-1.734-4.1717-3.7593-6.1821-5.7246-2.0384-1.9926-4.2364-3.8082-6.2754-5.8014-4.0484-3.9574-7.9082-8.109-12.071-11.9501-1.6303-1.5042-3.3595-2.8655-5.1247-4.2097-1.2286-.9355-2.5417-1.7488-3.7654-2.6905.6347.4904,1.2694.9807,1.9041,1.4711-3.2797-2.5657-6.1212-5.7009-8.6697-8.9812.5067.6558,1.0133,1.3116,1.52,1.9674-4.1412-5.3696-8.1698-11.0028-11.2747-17.0446-2.9838-5.8062-7.5508-10.7348-12.6474-14.7709-1.8061-1.4303-3.6289-2.8564-5.5298-4.1615-1.1013-.7562-2.276-1.4113-3.337-2.2248l2.1316,1.6469c-.4172-.3307-.7974-.6888-1.1259-1.1088l1.6492,2.1347c-.2346-.3192-.4264-.6543-.5864-1.0166l1.0644,2.5223c-.221-.5452-.3535-1.1065-.4394-1.6877.1259.9371.2518,1.8742.3778,2.8114-.1727-1.3728-.1528-2.7577.018-4.1293l-.3792,2.8219c.5604-4.0407,2.4062-7.8625,3.8127-11.6585,1.5768-4.2555,3.1259-8.564,4.1242-12.9993.657-2.919.6437-5.8888,1.0108-8.837l-.3856,2.8696c.1257-.9229.3114-1.8268.6554-2.695l-1.0882,2.5786c.362-.839.8725-1.5986,1.4228-2.3248-.5626.7282-1.1252,1.4564-1.6879,2.1846.7406-.9561,1.5874-1.886,2.544-2.6307-.7225.5582-1.4449,1.1163-2.1674,1.6745.8763-.6462,1.8645-1.2013,2.6035-1.991.3795-.292.676-.6661.8895-1.1223.6595-.664,1.1157-1.4467,1.3686-2.3483.2126-.5038.4059-.9625.6049-1.4494l-1.052,2.4927c.0696-.1532.1457-.2973.2431-.4344l-1.5557,2.0136c.0791-.0984.1603-.1869.2566-.2686-.6469.4998-1.2937.9995-1.9406,1.4993.0728-.0575.1509-.1069.2343-.1482,4.3292-2.5177,5.9166-8.4226,3.3444-12.7548-.8914-1.5014-1.582-2.1572-2.8275-3.1195-.548-.4234-.9295-.7742-1.4983-1.0647-.8041-.4107-1.842-.8632-2.7065-1.1298-1.8386-.567-3.9507-.4064-5.8013.043-.7581.1841-2.3247.8643-3.253,1.4583-2.8698,1.8364-4.7562,4.0263-6.6819,6.8053-.3379.4876-.6503.9928-.9001,1.5315-.7351,1.5848-1.4606,3.1832-1.744,4.9137-.4528,2.7647-.5443,5.5188-.8969,8.284l.3856-2.8696c-.2296,1.6368-.7242,3.2467-1.1828,4.8312-.5033,1.739-1.0548,3.465-1.6189,5.1851-1.0714,3.2674-2.2466,6.4981-3.3985,9.7375-.5227,1.4699-1.0151,2.9553-1.3284,4.4859-.4877,2.3825-.8671,4.9253-.7011,7.3728.2109,3.1115.7112,5.7886,2.2085,8.5443,1.3494,2.4834,3.2609,4.0049,5.4873,5.6235,1.0639.7734,2.2348,1.3944,3.3313,2.1197,1.3044.8628,2.5712,1.7814,3.8092,2.7367-.7048-.5446-1.4097-1.0891-2.1145-1.6337,3.2213,2.5027,6.3549,5.2167,8.865,8.4514-.5328-.6896-1.0656-1.3792-1.5984-2.0688,1.6728,2.1915,2.8649,4.7076,4.3658,7.0166,1.707,2.6261,3.5654,5.1502,5.4777,7.6296,4.0517,5.2534,8.066,10.6713,13.3404,14.7792,1.8538,1.4438,3.6624,2.8049,5.6854,3.9884,1.4561.8518,2.8377,1.8191,4.173,2.8484l-1.8552-1.4333c3.1163,2.4251,6.0864,5.0736,9.0313,7.7025,1.4867,1.3271,2.9609,2.6683,4.4666,3.974,2.063,1.7891,4.2195,3.447,6.383,5.1129-.567-.4381-1.134-.8761-1.701-1.3142,1.9183,1.4965,3.7042,3.1491,5.5658,4.7136,2.341,1.9674,4.7824,3.7954,7.4089,5.362,2.0745,1.2374,4.2291,2.3355,6.2774,3.6159,2.0408,1.2757,3.9906,2.6883,5.9538,4.0784,1.1004.7792,2.2057,1.5521,3.3344,2.2899,1.542,1.008,3.171,2.1087,4.9399,2.649l-1.5507-.6544c1.4802.6318,2.9615,1.2621,4.4228,1.9369,1.3863.6401,2.9529,1.2568,4.1693,2.19l-.9783-.7559c.9101.7274,1.7874,1.4902,2.6288,2.2963,1.7851,1.7103,4.9281,1.907,6.6787,0,1.7912-1.9512,1.7872-4.7328,0-6.6787h0Z" style="stroke-width:0px;"/><path d="m247.1985,625.0918c-1.3437-2.9954-2.9521-5.8513-4.2366-8.8762l.4776,1.1318c-.6576-1.5659-1.2578-3.1571-1.7048-4.7971-.4607-1.6901-.6721-3.4109-.9273-5.1398-.548-3.713-1.5219-7.2999-2.6144-10.8834-2.2008-7.2191-4.3551-14.4564-6.8715-21.5739-1.3845-3.916-2.5148-7.8633-3.0749-11.9887l.273,2.0314c-.2512-1.9353-.2889-3.8707-.4374-5.813-.2038-2.6651-.5874-5.3217-1.0261-7.9573-.6684-4.0165-1.5582-7.9939-2.1157-12.029l.2967,2.2084c-.29-2.1614-.3998-4.3369-.6901-6.4976-.2848-2.1194-.766-4.2022-1.0521-6.3197l.3057,2.275c-.3181-2.5977-.1233-5.2484.0099-7.8531.1334-2.6075.1153-5.2181.1338-7.8283.037-5.2236-.1416-10.4676.5316-15.6597l-.317,2.3593c.3744-2.7862,1.015-5.5212,1.4707-8.2934.3837-2.3343.7704-4.7217,1.6815-6.9188-.3007.7125-.6014,1.425-.902,2.1375.4908-1.1372,1.2458-2.1577,1.5264-3.3898.2037-.8943.3257-1.8674.2785-2.7856-.0094-.1824-.0061-.3613.0136-.5429l-.2907,2.1632.0343-.2068c.3797-1.413.3797-2.8261,0-4.2391-.2467-1.0376-.7224-1.9414-1.4271-2.7114-1.5261-1.9753-3.7266-3.1293-6.2612-3.1421-1.7082-.0086-3.9994.4197-5.4762,1.3718-1.4141.9117-2.6406,2.085-3.4453,3.5861-.5142.9592-.9048,2.0017-1.307,3.0017-.5155,1.2819-.8445,2.6278-1.1119,3.9808-.2631,1.3312-.4587,2.6741-.6686,4.0144-.2362,1.5086-.5762,2.9965-.8298,4.5022-.4853,2.8811-.8732,5.7997-1.0478,8.7186-.1294,2.1643-.0881,4.3278-.0745,6.4943.0274,4.3678.0239,8.7352.0059,13.1028-.0101,2.4464-.0544,4.9126.2344,7.3463.2225,1.8754.5202,3.6798.9644,5.5082.2799,1.1521.5576,2.3023.7311,3.4762l-.3006-2.2372c.3298,2.4948.6104,4.9924,1.0891,7.4645.355,1.8333.7769,3.6527,1.2084,5.4693.8645,3.6394,1.7632,7.2751,2.2731,10.9854l-.2821-2.0991c.394,2.9861.6788,5.975,1.386,8.9093.5686,2.3591,1.32,4.6741,2.2123,6.9301,2.0348,5.1442,4.5078,10.1163,6.6598,15.2139l-.6636-1.5725c1.1804,2.8009,2.3347,5.6127,3.4861,8.4257,1.1576,2.8283,2.3994,5.6351,3.3809,8.5309.9284,2.7392,1.5667,5.5682,2.4883,8.3073.9642,2.8656,2.3406,5.5761,3.9083,8.154,1.5925,2.6185,3.206,5.2033,4.5747,7.951,1.0179,2.0434,4.0724,2.7778,5.9578,1.5622.9298-.5995,1.7483-1.4921,2.0012-2.6024.2756-1.2099.0658-2.2302-.439-3.3554h0Z" style="stroke-width:0px;"/><path d="m277.0329,576.3694c-3.1958-11.1788-5.6042-22.5741-7.1601-34.0969l.1793,1.3347c-.1642-1.2276-.3183-2.4565-.4851-3.6838l.1846,1.3736c-.7105-5.411-1.1768-10.8406-1.5851-16.2814-.2049-2.7305-.2996-5.4656-.4782-8.1971-.2069-3.1638-.6746-6.3059-1.0969-9.4459l.2375,1.7678c-.3144-2.3418-.6223-4.6868-.7701-7.0461-.154-2.4581.0527-4.8958-.0016-7.3515-.116-5.2486-1.4767-10.3707-2.1744-15.5526l.2657,1.9771c-.546-4.2156-.2913-8.4565-.2292-12.6942.0653-4.4498.1114-8.8998.1566-13.3498.0552-5.4356-.0255-10.8707.0263-16.3048.0244-2.5671.1423-5.1377.4754-7.6847l-.2804,2.087c.2716-2.0149.665-4.042,1.4555-5.9242l-.7914,1.8753c.2949-.6817.6432-1.3344,1.089-1.93l-1.2275,1.5888c.2926-.3769.6174-.7173.9942-1.0109-.5296.4092-1.0592.8184-1.5888,1.2275.3885-.288.8208-.5028,1.2634-.6945l-1.8641.7867c.3388-.1358.6814-.1932,1.0315-.2844l-2.038.2739.114.0005c1.9608.0079,4.0362-.8607,5.421-2.2455,1.3297-1.3297,2.331-3.5113,2.2455-5.421-.1867-4.1675-3.3682-7.6492-7.6665-7.6665l-.114-.0005,2.038.2739c-3.8488-.823-7.8755.3032-10.5777,3.2277-1.9035,2.06-3.092,4.4536-3.9438,7.1125-.7529,2.3502-1.0401,4.8472-1.3311,7.2847-.2255,1.8888-.3328,3.7908-.3804,5.6919-.0858,3.4231-.0034,6.8619.0284,10.2857.0682,7.3477.2233,14.6945.2902,22.0424.0188,2.06.0126,4.1209.0427,6.1808.0355,2.4287.3774,4.8539.753,7.2488.5719,3.6456,1.4979,7.2256,2.0194,10.8802l-.2608-1.9409c.1475,1.1082.3115,2.2136.4631,3.321l-.2591-1.928c.2603,2.0075.2533,4.0193.4207,6.0329.2092,2.5154.5836,5.0265,1.0497,7.507.7386,3.9312,1.7237,7.8131,2.277,11.7784-.0755-.5619-.151-1.1239-.2265-1.6858.5934,4.4269,1.0899,8.869,1.9131,13.2614.7459,3.9798,1.6009,7.9391,2.5608,11.8728,1.9063,7.812,4.3529,15.5143,7.1106,23.0649,1.6295,4.4615,3.3995,8.8686,5.2685,13.2349.5503,1.2855,2.3696,1.6411,3.523,1.1543,1.27-.536,2.0233-1.9649,1.6335-3.3283h0Z" style="stroke-width:0px;"/><path d="m329.5541,554.2068c-.6882-3.9757-1.4337-7.9322-1.9754-11.931-.1337-.9873-.2675-1.9746-.4007-2.9621-.0313-.2323-.0638-.4645-.0939-.697.0185.1433.1284.959.0181.1336-.0766-.5726-.1531-1.1452-.229-1.7179-.2583-1.9482-.5114-3.897-.7544-5.8472-1.0203-8.1871-1.5251-16.4581-2.8864-24.5982-.7365-4.4038-1.8146-8.7311-2.4169-13.1596l.2313,1.7212c-.6801-5.122-1.0022-10.279-1.3431-15.432-.378-5.7149-.9375-11.3733-1.7101-17.0492l.2663,1.982c-.4042-3.0123-.7351-6.0335-1.1104-9.0493-.2423-1.9469-.4016-3.9289-.8746-5.8356-.3288-1.3257-.7124-2.6293-.8994-3.9858l.2813,2.0936c-.3188-2.7848.3266-5.5485.1964-8.3342-.1524-3.2583-1.0535-6.4281-1.4871-9.6492l.2844,2.1163c-.2925-2.3653-.2936-4.7083-.6506-7.0778-.2534-1.6816-.6926-3.3277-.9454-5.0095l.2863,2.1306c-.2477-1.8485-.1928-3.7345-.2343-5.5964-.0442-1.9812-.0893-3.9624-.1101-5.944-.0401-3.8194-.1109-7.7298.3595-11.5273-.0969.7211-.1938,1.4422-.2907,2.1633.0845-.5478.2086-1.0688.4061-1.587l-.8212,1.946c.1838-.4308.4051-.8195.685-1.195l-1.275,1.6503c.4054-.5043.8754-.9312,1.3835-1.3299l-1.6502,1.275c1.1172-.8514,2.2763-1.642,3.3888-2.5015,1.352-1.0446,2.5707-2.2253,3.9019-3.2901-.5489.424-1.0977.8481-1.6466,1.2721.5573-.4231,1.1291-.7818,1.7665-1.0725-.6474.2732-1.2948.5464-1.9422.8196,1.6858-.6733,3.5087-1.0522,5.0139-2.1234,1.3145-.9355,2.4108-2.0197,3.6682-2.9936l-1.6425,1.269c.348-.2492.7129-.4456,1.1026-.6228l-1.9378.8178c1.7572-.7333,3.555-1.2602,5.2982-2.0531,1.8077-.8222,3.2731-2.2142,4.8274-3.4227l-1.638,1.2655c1.2667-.964,2.5991-1.8262,3.9761-2.6236,1.0769-.6236,2.171-1.3254,3.317-1.8136l-1.9283.8137c2.1235-.8667,4.5258-1.2185,6.7823-1.5302-.7137.0959-1.4275.1918-2.1412.2877,2.2122-.2965,4.4957-.5122,6.7213-.2346l-2.1367-.2871c.625.0865,1.2551.2187,1.8425.4544l-1.9111-.8065c.1828.0805.3535.1722.5165.2882l-1.6123-1.2456c.1168.0922.2188.1899.3119.3057-.4139-.5357-.8278-1.0714-1.2417-1.6071.0647.0917.116.1885.173.2849-.2659-.63-.5317-1.26-.7976-1.89.018.0537.0323.1083.043.1639.9151,4.0406,5.7963,6.7997,9.7324,5.5259,4.2334-1.37,6.5064-5.4032,5.5259-9.7324-.8069-3.5629-4.1229-6.3592-7.6172-7.1225-2.362-.516-4.7876-.6276-7.1903-.4508-4.4477.3273-9.2616.9168-13.3318,2.8897-3.5525,1.7219-6.7523,3.9404-9.8295,6.3982l1.6387-1.266c-.6941.5347-1.4106,1.0038-2.2121,1.3611l1.9357-.8169c-1.8322.769-3.7349,1.2607-5.5346,2.1396-1.6006.7816-2.8265,2.1281-4.1994,3.2304.5479-.4233,1.0957-.8465,1.6436-1.2698-.4688.3601-.9339.6727-1.4787.9073.647-.273,1.294-.5461,1.941-.8191-1.9039.711-3.8831,1.2267-5.5516,2.4448-1.7073,1.2463-3.1906,2.7087-4.8541,3.9978.5495-.4246,1.0991-.8491,1.6486-1.2737-.7615.5766-1.5579,1.1031-2.3278,1.6679-1.5707,1.1523-2.7508,2.1046-3.916,3.6128-1.1096,1.4363-1.9809,3.0306-2.3903,4.8257-.4171,1.8286-.515,3.7438-.5986,5.615-.2548,5.7021.0169,11.41.1911,17.1102.0663,2.1684.2719,4.3138.6961,6.4469.2912,1.4646.6697,2.9081.8732,4.3894l-.2852-2.1227c.1154.9737.1064,1.9489.1808,2.9252.1208,1.5856.351,3.1674.6216,4.7342.3267,1.8919.7866,3.7595,1.0468,5.663l-.2831-2.1066c.1768,1.6426.0458,3.2797-.0631,4.9218-.1504,2.2674-.0307,4.3525.3517,6.6124.2435,1.439.6843,2.8314,1.0401,4.2445.385,1.5288.6499,3.0867.9371,4.6363,1.2278,6.6261,2.5702,13.2148,3.4694,19.8967-.084-.6249-.1679-1.2499-.2519-1.8748.7444,5.5648,1.3841,11.1486,2.3414,16.6823.447,2.5842.9704,5.1563,1.6161,7.6986.6172,2.4296,1.3573,4.824,1.9477,7.2612,1.1986,4.9476,2.2148,9.94,3.2785,14.9178,1.086,5.0823,2.2919,10.1376,3.5295,15.1848.6918,2.8214,1.403,5.6382,2.0899,8.4608.7147,2.9367,1.1961,5.949,1.7543,8.9191.38,2.0224,2.9275,3.3567,4.8285,2.7415,2.1854-.7072,3.1178-2.6549,2.7415-4.8285h0Z" style="stroke-width:0px;"/><path d="m394.6291,528.6252c-2.0441-6.3266-3.373-12.8219-4.2633-19.4048l.1665,1.2389c-.8533-6.3705-1.2724-12.7743-1.9308-19.1643-.3347-3.2486-.7867-6.4855-1.1702-9.7287-.3845-3.2522-.9398-6.5362-1.0585-9.8105-.0665-1.835-.003-3.6717-.0561-5.5069-.0708-2.4492-.5014-4.8577-.8311-7.2808l.2837,2.111c-.2816-2.1101-.5111-4.2253-.7992-6.335l.292,2.1733c-.5467-4.0826-.8165-8.1955-.861-12.3137-.0226-2.0873.0349-4.1737.0323-6.2609-.0027-2.1323-.0957-4.3068.1316-6.4304-.1029.766-.2058,1.532-.3088,2.2979.1212-.8856.3996-1.7198.743-2.5422l-.8764,2.0768c.7575-1.762,1.5622-3.5265,2.1066-5.3721.3457-1.172.6185-2.604.6216-3.7564.0027-.9652-.1232-1.9614-.4418-2.8788-.0376-.1082-.0813-.2137-.1229-.3203-.2481-1.0434-.7265-1.9524-1.4352-2.7268-.2163-.3204-.4541-.623-.7131-.9078-.7156-.7704-1.5631-1.315-2.5426-1.6336-.9415-.4947-1.9562-.7215-3.0439-.6804-1.983.0888-4.2633.7259-5.5865,2.314-1.263,1.516-1.8972,2.5598-2.5561,4.4318-.1618.4598-.3047.922-.4935,1.3723.2856-.6767.5712-1.3535.8567-2.0302-.2258.5153-.4801,1.0158-.7448,1.5121-.6275,1.1764-1.1576,2.3767-1.6543,3.6198-.7019,1.7566-1.0295,3.6098-1.1127,5.507-.1303,2.9692.1448,5.9598.208,8.9285.0631,2.9623.2213,5.9232.5108,8.8724.2007,2.0448.4756,4.0811.7595,6.1159.2025,1.451.3961,2.9235.7353,4.3496.3829,1.6097.8371,3.1969,1.2827,4.7896.4481,1.6018.6954,3.2474.9168,4.8932-.0889-.6616-.1778-1.3233-.2667-1.9849.3549,2.6667.6201,5.3687,1.2904,7.9809.5228,2.0372,1.043,4.0751,1.5615,6.1135,1.0478,4.1189,2.1831,8.2176,3.1206,12.3636,1.7823,7.882,3.4009,15.798,5.8849,23.5001,1.4436,4.4761,3.1885,8.8556,5.1997,13.1069.7164,1.5144,2.7881,1.9812,4.2123,1.3802,1.4805-.6248,2.4733-2.3696,1.9531-3.9795h0Z" style="stroke-width:0px;"/><path d="m450.6081,467.774c2.7593,29.1279,6.2335,58.1692,11.9969,86.8726,1.3995,6.9701,3.4459,13.6099,5.7292,20.3324,2.2689,6.6803,4.026,13.5185,6.192,20.2324,2.2351,6.9284,4.658,13.7636,6.6609,20.7686,1.9426,6.7938,4.0528,13.5625,6.4046,20.227,2.6325,7.4596,5.3061,14.8914,7.2738,22.5625,1.004,3.914,1.8095,7.8791,2.7067,11.8186.9066,3.9808,1.8429,7.957,2.4193,12.0021l-.3897-2.9002c.5993,4.4831.4816,8.9569.4802,13.4682-.0014,4.5191.0236,9.0381.0379,13.5572.0284,8.949-.1898,17.8354-1.3622,26.7197l.3881-2.8886c-.5408,3.9784-1.2321,7.913-2.2162,11.806-.8456,3.3451-1.6276,6.7488-2.9376,9.9516.3527-.8358.7055-1.6717,1.0582-2.5075-.3477.7939-.7567,1.52-1.2446,2.2357l1.621-2.0981c-.2917.373-.593.6868-.9664.9784.6898-.533,1.3797-1.0659,2.0695-1.5989-.1861.1323-.3839.2438-.5933.3346.8086-.3413,1.6173-.6825,2.4259-1.0238l-.3308.1213c-2.5201.9243-4.6537,2.2682-6.0479,4.6506-1.2694,2.1691-1.8071,5.366-1.0202,7.7978.7924,2.4487,2.3099,4.8111,4.6506,6.0479l2.4174,1.0202c1.7935.482,3.587.482,5.3804,0,4.0779-.6106,7.6893-4.0583,9.5942-7.5427,1.4218-2.6008,2.45-5.5084,3.4511-8.3002,1.8111-5.0509,2.8227-10.238,3.5677-15.5425.9431-6.7144,1.6163-13.436,1.8056-20.2162.1676-6.0031.0571-12.0172.0485-18.022-.0085-5.9249.3766-11.9582-.3184-17.8525-.7824-6.6359-2.2674-13.003-3.9294-19.4593-1.4426-5.604-2.9308-11.1522-4.8303-16.6236-1.9423-5.5948-4.209-11.0614-6.2764-16.6088-2.2798-6.1174-4.2574-12.3411-6.5679-18.4462-2.6065-6.8872-5.5977-13.5916-8.4618-20.371.3055.724.6111,1.4481.9166,2.1721-3.4762-8.2919-6.5956-16.7088-10.3518-24.8846-.7864-1.7116-1.5572-3.4292-2.3193-5.1517-.7536-1.7033.619,1.5707-.0724-.1743-.1997-.504-.4066-1.0049-.6024-1.5105-.3913-1.0101-.7569-2.0287-1.1063-3.054-1.3633-4.0013-2.5757-8.0537-3.7363-12.1178-4.6369-16.2377-9.243-32.4818-11.9664-49.1707-1.553-9.5168-2.8825-19.068-4.1793-28.6225-.2505-1.8459-2.5218-2.972-4.1722-2.7238-1.7174.2583-3.478,1.8255-3.2971,3.7346h0Z" style="stroke-width:0px;"/><path d="m88.418,383.8906c8.4644-1.9438,16.9349-2.6574,25.531-3.6829,8.507-1.0149,17.0521-2.4591,25.6386-2.0772,4.167.1853,8.3223.5925,12.4932.6978,4.4766.1129,8.8627-.4202,13.2465-1.315,3.9166-.7995,7.6597-1.5343,11.6748-1.4854,4.1639.0507,8.3115.4967,12.4784.4576,4.4437-.0417,8.7527-.7706,13.1197-1.5173,3.4977-.5981,7.4945-.9208,11.3564-1.3093,4.2284-.4254,8.4206-1.0662,12.6767-1.1413,4.2872-.0757,8.5714.1805,12.8582.1768,8.7695-.0076,17.3292-1.9046,25.9203-3.4461,8.0727-1.4484,15.3866-1.9108,24.2232-1.7045,4.4071.1029,8.6496-.0879,13.0206-.6752,1.097-.1474,2.1936-.2972,3.2898-.45.1677-.0234,1.963-.2595,1.0813-.1497-.7769.0968.664-.0743.6491-.0727,2.1099-.2268,4.2148-.313,6.3322-.4327,8.9259-.5044,17.6818-2.4034,26.449-4.0273,7.5338-1.3954,14.6518-1.5179,23.0769-1.3891,8.6704.1326,17.3552-.0889,26.026-.1619,8.8752-.0748,17.7443-.2433,26.6176-.4427,4.1021-.0922,8.2014.1258,12.3021.0397,4.4471-.0933,8.6448-1.0024,13.0106-1.6716,7.5933-1.164,15.7847-.5005,23.5713-1.2097,4.1863-.3813,8.3379-1.1543,12.5242-1.4781,4.0914-.3164,8.1939.0117,12.2896-.1331,4.0052-.1416,7.7867-1.0054,11.5153-2.4339,3.2608-1.2492,6.483-2.7713,9.9267-3.4569,3.7175-.7401,7.691-.453,11.4565-.3802,3.9362.0761,7.9354.2126,11.8694.0737,3.822-.1349,7.4111-1.1751,11.1419-1.8542,2.9721-.541,6.1245-.3497,9.1427-.6043,3.4225-.2887,6.8647-.6531,10.3039-.5184,1.1028.0432,2.4093.0791,3.4584.4472,1.3688.4803,2.5207,1.6925,3.909,2.2623,3.5204,1.4449,7.2492.5489,10.8821.1741,4.3574-.4496,4.4739-6.563,0-6.8691-1.6689-.1142-3.3683-.0565-5.0282-.2726-1.66-.2161-2.2633-.7881-3.4374-1.8577-2.8251-2.5737-6.0594-3.1881-9.7839-3.3821-3.4347-.1789-6.8809.1452-10.3039.3919-3.5288.2543-7.0917.1206-10.5933.6404-3.438.5103-6.6163,1.4753-10.128,1.402-3.9517-.0825-7.9405-.3508-11.8857-.6018-4.0285-.2563-8.0944-.7184-12.1277-.2915-3.8118.4035-7.2846,1.4916-10.8849,2.742-3.3095,1.1493-6.3929,2.0072-9.8857,1.9497-4.0966-.0675-8.1884-.5546-12.2884-.3602-8.4626.4014-16.7708,1.4702-25.2704,1.4272-4.2509-.0215-8.4589.1154-12.6754.6823-4.1405.5568-7.3572,1.2323-11.6206,1.0718-8.5885-.3233-17.1579-.7114-25.7551-.8858-8.7949-.1784-17.5974-.165-26.3938-.2391-8.3765-.0706-16.8236-.6959-25.1929-.3703-8.8299.3435-17.5553,2.4678-26.2654,3.8163-2.2031.3411-2.4517.3739-4.3302.5972-2.1811.2592-4.368.4551-6.5617.5669-2.1021.1071-4.1818.2497-6.2715.5125-1.3217.1663-2.6417.3493-3.9609.5342-.4367.0612-.873.1247-1.3096.1871-.209.0299-2.069.2883-.8514.1292-8.2811,1.0817-16.639-.0545-24.9492.7119-8.8331.8147-17.5106,2.7085-26.2286,4.271-3.9878.7147-7.0004,1.0844-11.433,1.1844-4.2862.0967-8.5785-.0063-12.8586.2898-4.1511.2872-9.1062,1.1907-12.629,1.655-4.4904.5919-8.9807,1.1475-13.4,2.1607-3.932.9015-7.1939,1.6889-11.0432,1.8939-4.1723.2222-8.3587.0111-12.5267.3277-8.5336.6483-16.4177,4.216-24.9712,4.6285-4.3197.2083-8.649.1567-12.9662.4264-4.455.2783-8.7666,1.0662-13.124,1.99-8.3751,1.7757-16.7274,3.4642-24.9856,5.7447-4.1429,1.1441-8.3055,2.2063-12.4137,3.4738-2.9446.9085-1.7329,5.303,1.2717,4.613h0Z" style="stroke-width:0px;"/><path d="m600.6334,356.1645c2.6205.2095,5.1717.2232,7.6399,1.1982,2.1065.8321,4.5086,2.592,6.6993,3.7733,2.6582,1.4334,5.4628,2.2668,8.2662,3.3373.3318.1267.6603.2614.9912.3903,1.1048.4302-.7948-.3645.2722.1129.6353.2843,1.2703.5676,1.8984.8676,1.2573.6006,2.5046,1.2303,3.7112,1.9277,4.9617,2.8675,9.6654,6.1465,14.6214,9.0251,5.0629,2.9407,10.2312,5.6211,15.7002,7.7349,2.8851,1.1151,5.8399,1.9758,8.8502,2.6775,3.0583.7129,6.1468,1.3668,9.0549,2.5817-.6242-.2634-1.2483-.5268-1.8725-.7902,5.5417,2.4137,10.5214,5.9093,16.2036,8.0497,5.1618,1.9444,10.6806,2.7791,15.774,4.92l-2.1176-.8937c3.194,1.3944,6.0614,3.3817,9.1325,5.0088,2.1455,1.1367,4.4173,2.0555,6.7388,2.764,1.6916.5163,3.3853.9894,5.0257,1.6582-.7327-.3092-1.4654-.6184-2.1981-.9276,1.454.6288,2.7515,1.4611,4.0097,2.4186-.6226-.481-1.2452-.962-1.8678-1.443,2.3068,1.7899,4.571,3.6324,6.8828,5.4176l-1.8752-1.4488c3.3398,2.6228,6.2261,5.7208,9.2574,8.6797,3.372,3.2914,6.9535,6.5514,10.9195,9.1117,4.132,2.6675,9.0206,3.9415,13.5555,5.7584,4.1216,1.6514,8.3118,3.0819,12.5426,4.4272,2.3518.7478,4.7129,1.4832,7.0972,2.1214,1.4411.3857,2.9329.6552,4.3157,1.2294l-2.2987-.9701c.5256.233,1.0267.5232,1.4923.8608-.6466-.4996-1.2932-.9992-1.9399-1.4987.3397.2661.6339.5589.9078.8922l-1.4848-1.9218c.5212.6802.7941,1.4879,1.2818,2.1766,1.1946,1.6867,2.4771,2.9618,4.4196,3.7815,1.8364.775,4.0675,1.097,6.0178.4658,3.8354-1.2412,6.8598-4.7286,6.7853-8.9121-.0435-2.4419-.8665-4.9994-2.1064-7.0969-1.1704-1.98-2.8384-3.7326-4.8062-4.9338-2.2302-1.3614-4.7459-1.8967-7.233-2.5183-6.0533-1.5129-12.1237-3.3992-17.9571-5.6131-1.6139-.6125-3.2171-1.2534-4.8361-1.8526-1.6956-.6276-3.445-1.1168-5.1159-1.8069.7508.3168,1.5016.6337,2.2524.9505-2.159-.9305-4.1269-2.1821-5.988-3.6113l1.9001,1.468c-3.0906-2.4115-5.9398-5.1297-8.7347-7.8726-1.3665-1.3411-2.7332-2.683-4.1634-3.9567-2.0698-1.8432-4.311-3.4674-6.5134-5.1451l1.8728,1.4469c-2.8887-2.2364-5.6127-4.8391-8.972-6.357-2.0469-.9249-4.0706-1.6416-6.235-2.206-1.5988-.4169-3.1907-.8315-4.7205-1.4651.7214.3044,1.4428.6088,2.1641.9133-2.6564-1.1701-5.1267-2.7062-7.716-4.0101-3.2483-1.6358-6.6404-2.8845-10.1591-3.7831-2.9383-.7504-5.917-1.3434-8.8292-2.1953-2.8917-.8459-5.7054-1.9298-8.4794-3.1001.6581.2777,1.3163.5555,1.9744.8332-3.49-1.4794-6.9561-3.2112-10.6003-4.2822-3.4984-1.0281-7.1962-1.3502-10.7949-1.8289.6544.0879,1.3088.1759,1.9632.2638-6.5447-.88-12.756-2.7384-18.8333-5.2997l1.5381.6491c-3.7749-1.6028-7.4356-3.4729-11.2304-5.0243-3.4997-1.4307-6.9885-2.898-10.5525-4.1635-3.5345-1.255-7.0752-2.4341-10.7736-3.1109-3.6382-.6658-7.015-1.8287-10.49-3.067-2.017-.7187-4.0396-1.1983-6.1927-1.2433-2.0195-.0422-4.0343.2323-6.0421.4088-2.5932.2279-2.6125,3.8391,0,4.0479h0Z" style="stroke-width:0px;"/><path d="m576.3247,399.8972c-1.3035,7.1697-2.4829,14.3611-3.5752,21.5659-1.0877,7.1746-2.5583,14.3042-3.7835,21.4579-1.2788,7.4667-2.0034,15.0412-2.9089,22.5623-.8782,7.2944-1.7603,14.5884-2.6913,21.8762-.2304,1.8034-.4637,3.6064-.7007,5.409-.1138.8651-.2283,1.7301-.3439,2.595-.0289.2162-.0556.4328-.0868.6486.0053-.0365.1406-1.0394.0528-.3944-.0682.5012-.1357,1.0026-.2041,1.5038-.2933,2.1501-.5819,4.3005-.8581,6.4529-.1109.8637-.2229,1.7272-.3361,2.5906-.0566.4316-.1136.8632-.1708,1.2948-.0286.2158-.0574.4315-.0861.6473-.0965.7263-.0573.1661.0308-.2272-.4065,1.8141-.5122,3.7475-.7742,5.5899-.2546,1.7903-.5156,3.5798-.7838,5.3681-.5362,3.5758-1.101,7.1474-1.6998,10.7133-2.4303,14.4743-5.5241,28.8332-8.9318,43.107-1.7137,7.178-3.4927,14.3386-5.4412,21.4569-.9487,3.4658-1.8613,6.9606-3.0037,10.3685-.5658,1.6879-1.2105,3.3762-1.5705,5.1239-.3014,1.4634-.4232,2.9712-.5089,4.4619-.0683,1.1876-.123,2.3759-.2673,3.5574l.2379-1.7708c-.0839.6086-.1882,1.2085-.3991,1.7874l.6727-1.594c-.3322.773-.5782.3101.4833-.4834l-.1823.1931c-.4835.4444-.2362.2698.742-.5239-.5781.3282-1.1127.6765-1.73.943l1.6004-.6754c-1.1888.4812-2.4231.8192-3.648,1.193-1.6034.4893-3.4573.9857-4.8057,1.9761,1.7232-.2254,3.4464-.4509,5.1696-.6763-1.3052-.1856-2.4982-.4018-3.7977-.2692-2.3292.2377-4.2577,1.2436-5.2126,3.5063-.9002,2.1333-.418,4.5461,1.1794,6.2308.1686.1779.8472.9963.1876.1633-.6569-.8295-.0295.0547.0669.2242,1.3395,2.3557,4.876,4.137,7.5764,3.0831.9987-.3897,1.9532-.8646,2.9382-1.2814l-1.6095.6792c4.4942-1.7953,9.6123-2.5609,12.3399-7.0934,2.0786-3.4542,1.3965-7.6883,1.9068-11.5065-.0789.5868-.1577,1.1737-.2366,1.7605.5179-3.2478,1.88-6.4133,2.7475-9.5828.9231-3.3729,1.8097-6.7559,2.6644-10.1468,1.7157-6.8071,3.3126-13.6448,4.783-20.5091,2.925-13.6547,5.5653-27.373,7.5948-41.1911,2.0962-14.2726,3.7294-28.5974,4.9275-42.9721,1.1545-13.8518,2.2811-27.7203,3.2043-41.5894.5172-7.7695.4746-15.5827.9507-23.3588.4842-7.907,1.4574-15.8261,2.3875-23.691.2741-2.3174-3.6764-2.8624-4.0961-.5543h0Z" style="stroke-width:0px;"/><path d="m255.9489,297.1023c-.6792-4.403-1.8837-9.0329-2.675-13.5701-1.9133-10.9705-3.6904-22.1064-5.8125-33.0458-2.7071-13.9552-5.5392-27.9278-8.6647-41.7973-3.3096-14.6864-5.1631-29.6207-8.6158-44.279-7.7463-32.8865-9.5253-67.6475-8.6174-101.3852.1213-4.5065,1.9125-9.3558,3.8594-13.4184,2.1591-4.5055,5.8344-6.2335,9.9434-8.9268,6.7336-4.4137,13.1854-11.442,21.4403-12.7345,7.3686-1.1537,14.8515-.7891,22.2156-1.7777,3.4039-.457,4.6633-2.2664,7.7948-.1925,2.1335,1.413,4.3612,3.6406,6.382,5.3169-5.0334-.8145-15.5454,3.5399-18.108,7.9347-1.6025,2.7482-1.1521,6.1458-.7388,9.08.5265,3.7375.162,7.0299.3696,10.7339.6454,11.5168,2.661,23.2965,3.7189,34.8249.6067,6.6113,2.0887,13.0481,2.8611,19.6256.7551,6.4308.7701,12.6525,2.0451,19.0723,1.7959,9.0425,2.5665,18.4708,4.7151,27.3762,2.1595,8.9503,2.4488,18.0018,3.8577,27.001,1.8828,12.0256,4.1279,24.3134,5.1473,36.3461.465,5.4893,1.558,12.0535,3.4778,17.247,1.542,4.1715,1.3862,7.5957,2.1028,11.9332,1.6547,10.015,4.1777,19.5151,6.0917,29.2474,1.0283,5.2288.5866,8.7008-3.4028,12.4555-4.3522,4.0962-9.4534,3.0189-15.077,2.9386-3.8127-.0544-6.5845,1.2532-10.2087,2.1702-4.7236,1.1951-8.7978-.3682-13.8104-.461" style="stroke-width:0px;"/><path d="m259.2608,297.1023c.0121-2.7219-.009-5.4741-.4221-8.1563-.0925-.6007-.1756-1.2031-.262-1.8047-.0371-.2581-.0732-.5163-.1105-.7743-.0075-.0516-.1266-.9048-.0457-.3067-.1724-1.2755-.3094-2.5551-.4453-3.835-.1297-1.2216-.2513-2.4442-.3741-3.6661-.0425-.4224-.2768-2.3297-.1791-1.4798.0603.5248-.0346-.3382-.0366-.3565-.0772-.7006-.1611-1.4005-.2415-2.1007-.3018-2.6294-.6026-5.2589-.9096-7.8876-.6498-5.5634-1.1798-11.1876-2.1207-16.7098-.8927-5.2392-1.7993-10.4759-2.7326-15.708-1.8503-10.373-3.9472-20.6945-5.8903-31.0492-1.9282-10.2755-3.3585-20.6345-5.1867-30.9271-1.0125-5.7004-2.3023-11.3407-3.3927-17.0253-1.0943-5.705-2.012-11.4421-2.7863-17.1991.1054.7841.2107,1.5682.3161,2.3523-.2416-1.8185-.4754-3.6377-.7212-5.4558l.3178,2.3651c-2.6347-19.7402-3.5502-39.6748-3.3788-59.5797.0239-2.7691.0687-5.5381.133-8.3065.0644-2.772.0176-5.5919.3395-8.348l-.3367,2.5059c.4278-3.0891,1.3976-6.041,2.6051-8.9072-.3189.7557-.6378,1.5115-.9568,2.2672.7654-1.7699,1.5495-3.5157,2.7264-5.0547l-1.4903,1.9289c.8126-.9997,1.7304-1.8664,2.7424-2.6619-.6448.4981-1.2895.9963-1.9343,1.4944,2.0908-1.5839,4.3838-2.8666,6.5383-4.3575,2.7994-1.9372,5.4415-4.0976,8.1308-6.1823l-1.9274,1.4891c3.0168-2.3289,6.1087-4.5865,9.6128-6.1314l-2.2663.9564c2.0582-.8653,4.1208-1.3409,6.3284-1.642-.8389.1127-1.6777.2254-2.5166.3382,4.6586-.5955,9.3518-.7066,14.0344-.9984,2.6305-.1639,5.2381-.4364,7.8501-.7874,2.0137-.2706,3.874-1.0568,5.8622-1.3289-.8317.1118-1.6635.2235-2.4952.3353.3278-.0233.6248-.0176.9524.0106l-2.4934-.335c.3689.0599.6919.1447,1.0463.2652l-2.234-.9428c1.1081.4729,2.072,1.1769,3.0258,1.9037-.6248-.4827-1.2496-.9654-1.8744-1.4482,1.598,1.2515,3.1104,2.6064,4.697,3.8718,2.1469-5.183,4.2937-10.366,6.4406-15.549-2.9797-.3507-6.2479.3811-9.0813,1.3101-3.1817,1.0433-6.4029,2.3524-9.2483,4.1372-2.9729,1.8647-6.0207,4.3243-7.6724,7.5042-2.6283,5.0598-2.1774,10.1228-1.4201,15.5357-.1059-.788-.2118-1.5761-.3177-2.3641.3538,2.7104.2818,5.4208.2988,8.1466.0164,2.6179.2239,5.2316.4503,7.8385.4683,5.3907,1.15,10.7597,1.8184,16.1283.6652,5.3423,1.1453,10.7054,1.8022,16.0468.7345,5.972,1.8931,11.8732,2.702,17.833l-.3177-2.3641c.643,4.9123.8288,9.8643,1.3676,14.7867.6004,5.4848,1.749,10.8711,2.5794,16.3209.7251,4.7591,1.36,9.5343,2.2591,14.265.9101,4.7881,2.0955,9.4834,2.7614,14.32-.1059-.788-.2118-1.5761-.3177-2.3641,1.0363,7.7276,1.7453,15.4796,2.9795,23.1833,1.1543,7.2052,2.3691,14.4013,3.3515,21.6328-.1059-.788-.2118-1.5761-.3177-2.3641.8964,6.681,1.3145,13.4209,2.3681,20.0798.444,2.8063,1.024,5.5974,1.8275,8.324.815,2.7654,1.8124,5.3594,2.2215,8.2338-.1056-.7861-.2112-1.5721-.3169-2.3582.4816,3.6481.8359,7.3028,1.4832,10.9293.5867,3.2867,1.2642,6.5565,1.976,9.8181,1.3733,6.2932,3.1005,12.5855,4.0535,18.9597l-.316-2.3514c.1774,1.3324.2523,2.6529.1108,3.9922.1053-.7836.2106-1.5671.3159-2.3507-.1226.8922-.3392,1.7383-.6712,2.5758l.8912-2.1118c-.3848.878-.8691,1.6741-1.4458,2.4391.4607-.5963.9214-1.1926,1.3821-1.7888-.7948.9921-1.6821,1.8897-2.6855,2.6711l1.7883-1.3817c-.6701.4815-1.3609.8864-2.1116,1.2303.7035-.2969,1.4069-.5937,2.1104-.8906-1.0837.4483-2.1923.7257-3.3518.8897l2.3478-.3155c-3.4209.3937-6.8535-.1215-10.2684.2157-2.4292.2398-4.7274.6811-7.045,1.4152-1.8671.5913-3.7118,1.2554-5.6564,1.5431l2.2448-.3016c-3.9579.4582-7.9312-.4708-11.8887-.5834-4.301-.1224-8.4133,3.8676-8.2184,8.2184.2041,4.5575,3.6102,8.0873,8.2184,8.2184,1.0055.0286,2.0071.1415,3.0048.2659-.7333-.0985-1.4666-.1971-2.1999-.2956,3.8163.513,7.693,1.446,11.5586,1.0125,3.8242-.4288,7.3627-1.8168,11.1438-2.3881-.7644.1027-1.5288.2054-2.2932.3081,2.1391-.2694,4.2628-.08,6.4049.0475,2.6329.1567,5.1052.0478,7.7256-.381,5.7316-.9379,10.6234-4.8936,13.6955-9.6932,3.0677-4.7928,3.0545-10.3204,2.1421-15.7165-.8279-4.8965-2.0392-9.7429-3.1166-14.5887-1.2485-5.6153-2.5464-11.261-3.3248-16.9648l.3168,2.3573c-.5932-4.6502-.963-9.1987-2.4912-13.6561-1.3213-3.8538-2.11-7.8779-2.6723-11.9058l.3173,2.3616c-.4581-3.417-.6831-6.8591-1.0688-10.2845-.4959-4.4044-1.1003-8.798-1.7519-13.1819-1.1089-7.4597-2.4872-14.8822-3.5139-22.3535l.3177,2.3641c-.6252-4.6712-1.0434-9.3667-1.6479-14.0403-.6993-5.407-1.7745-10.6345-2.8694-15.9647-.9332-4.5431-1.5819-9.1377-2.2617-13.7236-.7007-4.7267-1.6908-9.4115-2.349-14.1409.1059.788.2118,1.5761.3177,2.3641-.7054-5.3562-.8512-10.7657-1.5246-16.1251-.7391-5.8831-1.8714-11.7005-2.6692-17.5737.1059.788.2118,1.5761.3177,2.3641-.5483-4.1842-.8795-8.3968-1.3828-12.5874-.5193-4.3236-1.0859-8.6414-1.5844-12.9675-.4845-4.2045-.9139-8.4195-1.151-12.6461-.1144-2.0389-.0692-4.0767-.0821-6.1175-.0173-2.7371-.3681-5.3783-.7375-8.0924l.3177,2.3641c-.2293-1.7705-.373-3.5285-.1396-5.3065-.1059.788-.2118,1.5761-.3177,2.3641.1289-.7368.3166-1.4268.5918-2.1216l-.8965,2.1244c.2358-.5063.4958-.9775.8225-1.4289-.4635.6-.927,1.1999-1.3906,1.7999.6678-.8581,1.4621-1.5767,2.32-2.2406-.6.4635-1.1999.927-1.7999,1.3906,1.7149-1.2774,3.5974-2.2835,5.5593-3.1259l-2.1244.8965c1.9771-.8216,4.0243-1.4021,6.1445-1.7129l-2.3965.322c1.1508-.1489,2.3004-.2124,3.454-.0585l-2.4197-.3251.2421.0409c2.0923.3533,3.9247.3874,5.9307-.4591,1.7498-.7384,3.4432-1.9999,4.3556-3.7268,1.8138-3.433,1.6722-8.3031-1.4242-11.0378-2.9293-2.5871-5.7377-5.8705-9.2893-7.5966-3.1717-1.5415-6.3725-1.9888-9.8243-1.1854-1.3509.3144-2.6236.8226-4.003,1.0328.8331-.1119,1.6661-.2239,2.4992-.3358-5.3579.679-10.7606.6878-16.1418,1.0619-3.202.2226-6.476.5038-9.6148,1.1727-2.7389.5837-5.4068,1.7534-7.8804,3.0369-3.7824,1.9626-7.0996,4.6844-10.4724,7.2575-3.8458,2.934-8.0681,5.2846-11.8569,8.2928-4.584,3.6397-6.9456,9.0083-8.834,14.4007-1.9032,5.4351-2.0983,11.0305-2.159,16.7255-.113,10.5897.0555,21.1843.597,31.7614,1.1053,21.5921,3.7257,43.1536,8.888,64.1699,2.57,10.4629,4.6061,21.0089,6.7071,31.573,2.1069,10.5934,4.842,21.0369,7.2881,31.5544,2.4555,10.558,4.6799,21.1687,7.187,31.7132,2.4811,10.435,4.5621,20.9781,7.4893,31.3002.6942,2.4478,1.6883,4.6229,2.5361,7.1963,1.1448,3.4751,6.4884,2.9719,6.5055-.8804h0Z" style="stroke-width:0px;"/><path d="m595.4325,180.9032c-.2238-2.2492-.7042-4.4614-1.0151-6.6985l.1978,1.4718c-.2312-1.7663-.1532-3.5488-.1143-5.3254.043-1.9618.1409-3.9221.2647-5.8803.2431-3.8467.5739-7.684.7428-11.5354.3401-7.7561-.1086-15.4891-.4503-23.2362-.1945-4.4104-.1788-8.8267-.4132-13.2325-.1089-2.0472-.7882-3.9908-2.2646-5.4673-1.341-1.341-3.5413-2.3509-5.4673-2.2646-1.9996.0896-4.0736.7464-5.4673,2.2646-1.4203,1.5471-2.1787,3.3458-2.2646,5.4673-.1757,4.3365.3685,8.6804.831,12.9887.4627,4.3098.9822,8.6139,1.3685,12.9315.7745,8.6556.483,17.3383.9935,26.0062.1615,2.7424.2641,5.5733,1.1627,8.1901.6562,1.9108,1.5687,3.6599,1.8964,5.6733.1844,1.1329,1.3509,2.52,2.3394,3.0423,1.0282.5432,2.0882.7597,3.2459.6041,1.0682-.1435,2.1722-.5822,2.9229-1.4001.861-.9379,1.6225-2.2775,1.491-3.5995h0Z" style="stroke-width:0px;"/><path d="m640.2542,188.1538c2.8024-4.4276,5.1206-9.1279,7.4424-13.8183,2.3353-4.7177,4.7607-9.3508,7.5727-13.8047,2.9824-4.7238,5.7519-9.575,8.5537-14.4079,1.3923-2.4015,2.7984-4.7969,4.1549-7.2189,1.2654-2.2591,2.4175-4.5788,3.5891-6.8872,1.3259-2.6123,2.6778-5.2173,4.2435-7.696.716-1.1335,1.5671-2.1741,2.286-3.2995.1664-.2604.2781-.5579.4016-.8417.3151-.7235.834-1.7725,1.0781-2.6464.4228-1.5136.2341-3.0854-.0692-4.5972-.0515-.2567-.1247-.5055-.2107-.7526-.7214-2.0747-1.9356-3.5899-3.9772-4.4514-1.8944-.7994-4.3343-.8732-6.1135.3462-.2606.1786-.5334.3333-.8191.4683-.8311.393-1.6094,1.0541-2.2435,1.7225-.2566.2705-.5357.5173-.7963.7833-.6933.7076-1.238,1.6062-1.835,2.4053-.9881,1.3226-1.7804,2.7047-2.5139,4.1829-1.7945,3.6162-3.2744,7.3826-4.8404,11.1005l.7757-1.8382c-3.114,7.3763-6.8241,14.5138-10.3436,21.7026-1.9306,3.9433-3.7248,7.9938-5.3055,12.0897-1.3506,3.4996-2.4997,7.0718-3.66,10.6376-1.3293,4.0848-2.6807,8.1662-4.3487,12.1279l.4324-1.0246c-.2142.5046-.4326,1.0072-.6559,1.5079-.4715,1.0574-.7403,2.0522-.4204,3.2137.2664.9674,1.0144,2.0158,1.9166,2.4925,2.058,1.0874,4.4587.4746,5.7061-1.4962h0Z" style="stroke-width:0px;"/><path d="m700.4115,220.1381c.0873-.263.1819-.5218.2847-.7791l-.5817,1.3785c.3875-.9179.8927-1.7594,1.4905-2.5553l-.9748,1.2617c.6536-.8446,1.3487-1.6506,1.9961-2.5028l-1.0092,1.3062c1.4412-1.8544,3.1917-3.4492,4.7966-5.1578,1.7313-1.8432,3.4408-3.7097,5.0454-5.6643,3.1766-3.8694,6.3438-7.7828,9.9133-11.3023,3.4044-3.3567,7.2383-6.2279,11.0015-9.1618,1.8912-1.4745,3.7697-2.9677,5.5706-4.5523,1.5079-1.3268,2.9093-2.7563,4.3506-4.1526,4.0187-3.8932,8.5342-8.4823,8.4296-14.5052-.0348-2.0029-.8379-4.0389-2.2634-5.4644-1.3403-1.3403-3.5394-2.3496-5.4644-2.2634-1.9986.0895-4.0714.746-5.4644,2.2634-.4028.5213-.8056,1.0427-1.2083,1.564-.699,1.2053-1.0507,2.5054-1.0551,3.9004l-.0138.1188.2763-2.0565c-.0573.3784-.166.7378-.3079,1.0927.2625-.622.525-1.244.7875-1.866-.5214,1.2225-1.3794,2.3311-2.1824,3.3812.4143-.5362.8285-1.0724,1.2428-1.6086-1.5128,1.9496-3.2886,3.6524-4.9666,5.4538-2.2516,2.4173-4.6947,4.6256-7.2198,6.7525-2.6118,2.1999-5.2851,4.3275-7.8421,6.592-2.5616,2.2686-4.9278,4.7069-7.1449,7.3127-2.9935,3.5183-5.7717,7.2149-8.594,10.8698l1.1227-1.4532c-2.0076,2.5981-3.8659,5.3067-5.8714,7.9074l1.0545-1.3649c-.9233,1.1924-1.8704,2.3655-2.7778,3.5706-.5325.7071-1.0946,1.4422-1.4973,2.2328-1.2554,2.4648-1.9767,5.1804-2.0068,7.9521-.0306,2.8129,2.1709,5.176,4.8925,5.5417,2.8492.3828,5.2957-1.3461,6.191-4.0417h0Z" style="stroke-width:0px;"/><path d="m763.5272,260.6901c4.0283-.9853,6.2641-4.6081,9.357-7.0009l-1.3777,1.0644c1.4744-1.1375,2.9305-2.2969,4.4027-3.4364-.4643.3587-.9286.7174-1.3929,1.0762.6002-.4583,1.2161-.8981,1.8686-1.2795.7619-.4454,1.4152-.8314,2.091-1.4984.2135-.2107.4224-.4167.6588-.6027l-1.2916.9979c.2172-.1616.4383-.3037.6845-.4169l-1.4461.6103.1023-.0417,1.4358-.6059c.7004-.3777,1.2626-.8937,1.6864-1.5481.7832-1.0138,1.3495-2.3253,1.2905-3.6418-.0478-1.067-.3217-2.0893-.8206-3.0336-.3777-.7004-.8937-1.2626-1.5481-1.6864-.5805-.5313-1.2618-.8899-2.044-1.0758-.9128-.3725-1.9901-.4372-2.95-.4845-1.6862-.0831-3.2625.4737-4.739,1.2402-1.171.6079-2.2483,1.3843-3.2925,2.1861-1.3093,1.0054-2.4746,2.0523-3.6202,3.2301-1.3454,1.3833-2.3818,3.0424-3.5586,4.5657l1.0134-1.3116c-.4661.5926-.9569,1.1605-1.544,1.6371l1.2823-.9907c-.293.2232-.5924.4106-.9297.5595l1.4967-.6316-.1411.0545c-1.5647.6039-2.8631,1.3786-3.7387,2.8749-.7847,1.3409-1.1171,3.3172-.6306,4.8205,1.0686,3.302,4.2876,5.2028,7.6954,4.3693h0Z" style="stroke-width:0px;"/><path d="m694.9705,968.1899c-1.1141-23.5057-6.9013-46.8062-9.8608-70.1529-2.7829-21.9537-2.4513-43.8547-7.7616-65.472-1.3057-5.3151-2.7483-11.1496-2.9999-16.5537-.1977-4.2467,1.5655-9.4203-1.8462-12.5225-2.6997-2.4548-8.6624-4.2952-12.0952-5.5702-7.7197-2.8672-17.4258-1.251-25.5456-1.251-9.1243,0-18.2487.0076-27.373,0-5.194-.0043-10.6964.8617-15.5533-1.245-5.2506-2.2775-8.9901-2.1818-14.8445-2.1854-8.5447-.0053-17.3882-.6153-25.9056-.0397-3.6353.2457-6.9591,1.2742-10.618,1.7152-2.3012.2774-2.5392-.6351-3.5191,1.55-.5607,1.2503.1192,6.0985.1223,7.4534.021,9.0294,1.7463,19.9151.0886,28.7772-.7916,4.2323-1.6848,8.6391-2.6584,12.9223-1.1306,4.9734-2.365,11.1359-2.6645,16.2365-.173,2.9476.5987,6.1529.1772,9.074-.3348,2.3199-1.4981,4.0656-1.8985,6.3081-.402,2.2519.146,4.5797-.287,6.9098-.3753,2.0194-1.2653,3.6636-1.3978,5.8369-.5875,9.6409-.8128,19.272-2.9847,28.5132-.9252,3.9365.1678,8.0202-.7632,11.9608-.3398,1.4385-1.1152,2.1096-1.4223,3.812-.3804,2.1092.5833,4.4327.1772,6.525-.8252,4.2525-1.8765,7.3291-1.8099,11.9119.0689,4.7422-3.2563,11.162-1.4379,15.5256,1.2854,3.0848,6.9674,7.6009,10.2033,6.6385.3215-.0956,3.2027-3.6778,3.5065-3.9833,2.6619-2.6774,5.6558-5.1648,8.3565-7.8466,4.7982-4.7646,7.5893-10.4857,11.9669-15.5136,3.6248-4.1632,8.0462-6.6206,12.0952-10.2027,5.5063-4.8715,9.4274-7.7319,17.5735-6.9952,6.2375.5641,13.0371,3.1314,18.0249,6.9126,5.9776,4.5316,8.7875,12.1568,13.9261,17.3571,5.8668,5.9373,15.4821,10.6943,23.8881,10.2304,5.5176-.3045,10.8981-4.1521,15.6843-6.9282,4.1929-2.432,9.6132-7.1334,14.1583-8.3565,7.9249-2.1325,10.4263,5.5135,14.9668,10.1114,2.04,2.0658,4.1381,3.5059,6.519,5.1489,2.1235,1.4653,4.8206,4.3847,7.2425,5.1027" style="stroke-width:0px;"/><path d="m698.8344,968.1899c-.0816-2.0569-.1974-4.112-.338-6.1657-.1401-2.0462-.1116-4.1066-.179-6.1573-.0675-2.0509-.1606-4.101-.2743-6.1499-.0259-.4667-.0722-.9375-.0811-1.4048-.013-.6789-.0451-1.0556-.1664-1.8474.0215.1402.1044,1.1599.0616.2674-.0505-1.0534-.1691-2.1081-.2599-3.1588-.7026-8.1325-1.6507-16.2409-2.5328-24.3551-.2473-2.2748-.4895-4.5502-.7196-6.8268-.2913-2.8821-.4623-5.7952-.8916-8.6569l.2695,2.0054c-2.161-16.1825-2.1712-32.5375-3.4528-48.7918-.4147-5.2597-1.0173-10.4909-1.7432-15.7166.11.8183.2199,1.6365.3299,2.4548-.7917-8.6684-3.6915-16.9804-4.8785-25.5827.1132.8425.2264,1.6849.3396,2.5274-.2238-1.6916-.4154-3.4053-.4208-5.1138-.0042-1.3351.1466-2.6651.2527-3.9942.3222-4.038-.0963-8.5318-2.4363-11.9739-2.3165-3.4074-5.5837-5.7526-9.3077-7.4051-3.0831-1.3681-6.2268-2.5365-9.3812-3.7207-3.6736-1.3791-7.7398-1.7855-11.6414-1.9042-3.2983-.1004-6.5951.1081-9.8798.3841-7.0604.5932-14.1499.7188-21.229.9672-4.2019.1474-8.4041.2892-12.606.4371-3.8236.1346-7.6115.6479-11.4345.1743l2.1554.2896c-3.53-.4911-6.6565-2.2853-10.1842-2.8391-4.0158-.6305-7.9325-.6418-11.9816-.6272-8.1144.0293-16.2416-.427-24.3472.1313-2.6451.1822-5.4689.4133-8.0195,1.1891-1.0657.3242-2.1101.7215-3.1742,1.0528-1.3783.4291-3.0118.65-4.2152,1.4632,1.135-.307,2.2701-.6141,3.4051-.9211-1.8361.042-3.5815.0968-5.2388,1.0546-2.0103,1.1619-3.4327,3.3642-4.0555,5.5722-.6898,2.4458-.2566,5.0884.0231,7.5568.2981,2.631.3264,5.2962.4721,7.9391.1771,3.2129.4066,6.4233.5192,9.6395.128,3.6534.1108,7.3223-.3683,10.9519l.2257-1.6794c-.9494,6.7879-2.7239,13.4716-4.1369,20.1721-.7819,3.7077-1.4137,7.4575-1.785,11.2298-.3271,3.3234.3679,6.6448-.0196,9.9548l.2374-1.7666c-.3063,2.1119-1.3747,3.9514-1.9051,5.9964-.7442,2.8696-.3413,5.7122-.6567,8.6032l.2445-1.82c-.3322,2.3235-1.3382,4.4573-1.6525,6.7964-.3518,2.618-.4627,5.2687-.6509,7.9028-.3412,4.776-.7107,9.5623-1.3418,14.31.0855-.6363.171-1.2726.2565-1.909-.466,3.4164-1.3413,6.7584-1.7995,10.1682-.4569,3.4.0015,6.8105-.4096,10.2052l.2571-1.9133c-.1146.7972-.2638,1.5716-.5703,2.3188.2419-.5733.4838-1.1465.7257-1.7198-.4978,1.113-1.0422,2.1932-1.4763,3.3381-.4815,1.2697-.661,2.7183-.6986,4.0602-.0499,1.7825.5009,3.5219.3102,5.3088l.2575-1.916c-.4015,2.4492-1.1047,4.8401-1.4989,7.2921-.2818,1.7528-.5332,3.5299-.6069,5.3065-.0488,1.1763-.007,2.3363-.1563,3.5072l.2579-1.9193c-.7761,5.4994-2.9697,10.7456-1.6404,16.3744.65,2.7522,2.3763,5.2078,4.3409,7.1853,2.2102,2.2247,4.7715,3.7761,7.6737,4.9011,2.8049,1.0873,6.4338,1.2134,9.0866-.3608,1.6301-.9673,2.733-2.5915,3.8867-4.0431,2.866-3.6062,6.6099-6.4294,9.6975-9.8404,4.1746-4.6117,7.3128-10.0807,10.9113-15.1294l-.959,1.2413c1.4629-1.7976,3.2207-3.3423,5.048-4.7576l-1.2902.9968c1.822-1.3928,3.7318-2.6623,5.595-3.9982,2.1694-1.5554,4.2098-3.2697,6.3157-4.9062l-1.3891,1.0732c1.8077-1.3924,3.693-2.6794,5.7965-3.5843-.5668.2392-1.1335.4783-1.7003.7175,1.4988-.6215,3.0683-1.0622,4.678-1.2817l-1.9168.2576c2.127-.2599,4.2632-.1612,6.3826.1231l-1.9346-.26c3.2026.4595,6.3143,1.3609,9.2935,2.6177l-1.7626-.7438c2.6654,1.1498,5.1953,2.5771,7.5011,4.3446l-1.5118-1.168c1.6153,1.27,3.011,2.7608,4.2817,4.3711l-1.1781-1.5248c.4923.6665,1.0067,1.3179,1.517,1.9707-.3932-.5089-.7864-1.0178-1.1796-1.5268,3.2655,4.238,5.9028,8.9343,9.4808,12.9373,1.9524,2.1843,4.2815,4.0219,6.6517,5.7276,2.0439,1.4709,4.2365,2.7383,6.5309,3.7759,2.7325,1.2358,5.5279,2.3521,8.4674,2.9827,2.8506.6116,5.8965,1.036,8.8198.7838,3.8141-.3291,7.1518-1.4498,10.5825-3.1303,2.4086-1.1798,4.6727-2.6256,6.9583-4.0224,2.3119-1.4129,4.5405-2.9021,6.7603-4.4563,2.2752-1.5931,4.583-3.1824,7.1518-4.2698l-1.6702.7048c1.0104-.4095,2.0405-.7111,3.1222-.8589l-1.8587.2498c.7436-.0829,1.4764-.0872,2.2188.0103-.6196-.0833-1.2391-.1665-1.8587-.2498.6003.096,1.1757.2538,1.7405.4782l-1.6702-.7048c.7278.3113,1.3917.7156,2.0202,1.1958l-1.4151-1.0933c1.2529.9945,2.2846,2.2144,3.2629,3.472l-1.0933-1.4151c1.7115,2.2183,3.285,4.58,5.2442,6.5918,2.5634,2.6322,5.6885,4.5533,8.6012,6.7514-.4717-.3644-.9434-.7288-1.4151-1.0933,3.1337,2.4284,5.9807,4.9352,9.8165,6.1722,3.3298,1.0738,7.4456-1.2536,8.2235-4.6692.8338-3.6608-1.1039-7.0738-4.6692-8.2235-.15-.0448-.2977-.0961-.4432-.154l1.5969.6739c-.6851-.3971-1.3454-.7871-1.9769-1.2687l1.3779,1.0646c-1.3646-1.0755-2.5687-2.3342-3.9362-3.4044-1.8303-1.4325-3.771-2.7016-5.6162-4.1126l1.4151,1.0933c-1.9313-1.5005-3.6243-3.1778-5.1247-5.106l1.0933,1.4151c-1.8141-2.3507-3.456-4.9186-5.6329-6.9572-2.9249-2.7393-6.5446-4.4912-10.6093-4.5197-7.5647-.0531-13.454,5.3809-19.5218,9.0956-3.375,2.0662-6.8192,4.2044-10.4606,5.7682l1.7114-.7222c-1.5986.6659-3.2392,1.1868-4.9561,1.437.6384-.0858,1.2769-.1716,1.9153-.2574-1.7544.2188-3.5268.142-5.2765-.0841l1.9264.2589c-2.658-.373-5.2296-1.1302-7.7073-2.1546l1.7461.7369c-3.0379-1.2851-5.891-2.9528-8.5069-4.9617.4983.385.9967.77,1.495,1.1551-2.1103-1.6469-4.0041-3.4993-5.6509-5.6111l1.1649,1.5077c-3.7914-4.9364-6.5574-10.691-11.1828-14.9637-2.5714-2.3753-5.5637-4.3636-8.7243-5.8652-3.2818-1.5592-6.7107-2.8687-10.275-3.6077-6.8067-1.4112-13.9988-1.4494-20.1889,2.0819-2.558,1.4593-4.8542,3.4294-7.0087,5.4249-2.2567,2.0901-4.5764,4.0597-6.9512,6.0141-1.3436,1.1057-2.666,2.2402-3.8933,3.4755-1.2774,1.2857-2.3883,2.7109-3.5375,4.1079-2.5692,3.1232-4.8335,6.4736-7.3029,9.6724l1.0039-1.2994c-1.5116,1.9407-3.1265,3.7764-4.9313,5.4505-1.8614,1.7267-3.8122,3.3532-5.7129,5.0357-1.1957,1.0585-2.3373,2.1213-3.3886,3.3193-.7838.8932-1.548,1.9458-2.4875,2.6836l1.415-1.0932c-.0215.0182-.0453.0325-.0714.043l1.6702-.7048c-.1684.0448-.3306.0781-.5029.1041l1.8587-.2498c-.3039-.0164-.6026-.0125-.9057-.0473.6242.0839,1.2484.1677,1.8726.2516-.611-.0943-1.1886-.2781-1.7583-.5152l1.698.7166c-1.0029-.4455-1.9197-1.0301-2.7891-1.6971l1.4618,1.1293c-1.1692-.9252-2.2694-1.8916-3.1873-3.074.377.488.7541.976,1.1311,1.464-.3818-.5118-.7222-1.0429-.9789-1.6288.243.5759.486,1.1517.729,1.7276-.237-.5996-.3861-1.2077-.4749-1.8458l.2583,1.9221c-.1229-1.1148-.0593-2.2215.0853-3.3311l-.2582,1.9213c.3479-2.4311,1.0524-4.7885,1.4948-7.2012.2984-1.6272.5688-3.2909.5776-4.9491.0076-1.4439.0649-2.866.2521-4.2993-.0859.6393-.1718,1.2786-.2577,1.9179.3284-2.3363.9126-4.6214,1.3865-6.93.3536-1.7228.6239-3.4351.4335-5.187-.1364-1.2552-.3628-2.4882-.2437-3.755l-.2573,1.9146c.0856-.5731.2295-1.1126.4416-1.6519l-.7259,1.7201c.5623-1.303,1.2823-2.5541,1.68-3.9227.486-1.6724.6388-3.502.7082-5.2382.1007-2.5167-.1701-5.0325.127-7.5425-.0856.637-.1712,1.2741-.2568,1.9111.3623-2.5696,1.0526-5.0941,1.4367-7.6667.4634-3.1041.8593-6.2276,1.1078-9.3573.2035-2.5636.3026-5.139.4099-7.7082.1104-2.6441.0381-5.3679.3829-7.9924l-.2477,1.8434c.3397-2.0948,1.1077-4.0596,1.3918-6.1738.3208-2.3875-.0454-4.7511.2029-7.1327l-.2413,1.7961c.2496-1.753,1.001-3.3332,1.4924-5.0192.671-2.3021.79-4.7501.6015-7.1288-.1497-1.8887-.4008-3.7652-.3089-5.6639.0909-1.8777.2977-3.7486.5475-5.6111l-.2294,1.7069c1.2378-8.9905,3.9149-17.7152,5.0793-26.7177.5184-4.0076.4966-8.0518.324-12.0823-.1741-4.0669-.6695-8.1667-.6171-12.2366.0208-1.6103.0359-3.2081-.049-4.816-.0801-1.5154-.2023-3.0681-.0087-4.5792-.079.5877-.1579,1.1754-.2369,1.7631.0351-.224.0789-.4404.1535-.6546l-.6707,1.5893c.1709-.395.3848-.781.6472-1.1226l-1.0465,1.3545c.0865-.0976.168-.1781.2704-.2584l-1.3568,1.0483c.0577-.0407.1193-.0745.1847-.1013l-1.603.6765c.1027-.0354.1939-.056.3015-.071l-1.7865.24c.5004-.0326,1.0054.0405,1.5077.029-1.135-.307-2.2701-.6141-3.4051-.9211,2.4259,1.3198,5.1319,1.0846,7.7803.9231,2.3489-.1432,4.6395-.5749,6.9661-.8881-.6817.0916-1.3634.1832-2.0451.2748,6.1426-.767,12.4875-.3673,18.6558-.1652,3.0881.1012,6.1763.206,9.266.237,2.6415.0265,5.2909.0094,7.9164.3406-.7094-.0953-1.4189-.1907-2.1283-.286,2.1821.2972,4.2779.8782,6.3135,1.7168l-1.9262-.8128c1.4305.6078,2.838,1.2906,4.331,1.7341,1.6102.4784,3.2918.6702,4.9526.8758,1.9852.2457,3.9536.2113,5.9474.2316,4.3087.0438,8.6082.1765,12.9152.3271,8.5844.3003,17.19.8096,25.7807.689,4.3721-.0614,8.7592-.2413,13.1077.3321-.8692-.1168-1.7384-.2336-2.6076-.3504,4.6005.6467,9.1663,2.3238,13.4363,4.1236l-2.3318-.984c1.5105.6484,3.0057,1.3665,4.3259,2.3561-.6549-.506-1.3098-1.012-1.9647-1.5179.4392.3445.8324.7126,1.1906,1.142-.505-.6537-1.0101-1.3074-1.5151-1.9611.3492.4568.6257.9307.8552,1.4578l-.9749-2.3102c.2676.6816.4316,1.379.531,2.1034l-.3446-2.5647c.2885,2.5262-.1763,5.0467-.1323,7.5755.0685,3.9384.8062,7.9341,1.6272,11.7803.7138,3.3438,1.6302,6.6366,2.4299,9.9596.8143,3.3836,1.4811,6.8004,2.1249,10.2189.7252,3.8512,1.3232,7.7247,1.8484,11.6079-.1057-.7869-.2115-1.5738-.3172-2.3608,2.0179,15.0566,3.0228,30.2287,5.4278,45.2371,1.1551,7.2087,2.8464,14.2971,4.5198,21.4024,1.6753,7.1134,3.38,14.221,4.8961,21.3707.8511,4.0139,1.6964,8.0246,2.4415,12.0622.18.9756.3542,1.9524.5218,2.9302.0887.517.1756,1.0344.2606,1.5521.0283.1724.0547.3452.0842.5175.0796.4652-.054-.5913.0032.1775.1574,2.1144.3493,4.2242.4702,6.3417.1151,2.0143,1.6948,3.961,3.8639,3.8639,2.0249-.0907,3.9497-1.7006,3.8639-3.8639h0Z" style="stroke-width:0px;"/><path d="m73.0665,245.5948c2.2367-8.4939,5.0201-16.8545,8.4313-24.9502l-.5012,1.1876c3.1708-7.4959,6.9724-14.616,11.5708-21.3332,1.2068-1.7628,2.4506-3.5001,3.7558-5.1915l-.9438,1.2216c2.6537-3.4225,5.5826-6.6351,8.9698-9.3472l-1.3127,1.0142c.8022-.5758,1.5528-1.2139,2.3321-1.8181l-1.3189,1.019c2.518-1.9334,5.2546-3.5453,8.1765-4.7884-.5326.2247-1.0651.4495-1.5977.6742,2.2188-.9298,4.508-1.5775,6.8926-1.9067l-1.8125.2435c2.9984-.3899,6.0218-.3023,9.0152.089-.6186-.0831-1.2373-.1663-1.8559-.2494,3.5775.4861,7.0916,1.3928,10.5427,2.4393,2.8219.8557,5.6249,1.8063,8.3432,2.9525l-1.7085-.721c2.6096,1.11,5.1441,2.4234,7.4008,4.1533l-1.4528-1.1224c1.2887,1.0014,2.4642,2.1319,3.4716,3.4178l-1.1248-1.4558c.8526,1.1081,1.5616,2.3073,2.1173,3.5904-.2421-.5738-.4843-1.1476-.7264-1.7214.6333,1.5008,1.0399,3.0725,1.2613,4.6851-.086-.6399-.172-1.2797-.2579-1.9196.2704,2.1014.2442,4.2514.2066,6.3667-.0382,2.1539-.1727,4.3062-.4584,6.442l.2593-1.9301c-.3598,2.6111-.9498,5.1967-1.9728,7.6327l.7343-1.7401c-.6014,1.4025-1.3452,2.7261-2.2706,3.941.3804-.4924.7608-.9847,1.1412-1.4771-.7356.9485-1.5717,1.8008-2.5169,2.5413l1.4759-1.1403c-1.0058.7687-2.1112,1.4028-3.2725,1.9056l1.7406-.7345c-.7583.3166-1.538.5648-2.3537.6776.6453-.0867,1.2907-.1734,1.936-.2601-.4639.055-.924.0637-1.3882.007.6451.0867,1.2903.1734,1.9354.2601-.3756-.0551-.7348-.1511-1.0853-.2974l1.7387.7337c-.2996-.1341-.5767-.2983-.839-.4958l1.4727,1.1378c-.3131-.2476-.586-.5299-.831-.8447l1.1375,1.4724c-.32-.4283-.5741-.8913-.7859-1.3815l.7331,1.7372c-.3864-.9297-.6092-1.9108-.7442-2.9062l.2596,1.932c-.2404-1.8905-.1701-3.8075.0823-5.6929-.0864.6432-.1728,1.2864-.2593,1.9295.4843-3.4773,1.4646-6.9301,2.4806-10.284,1.1341-3.7437,2.4812-7.4201,4.0011-11.024l-.728,1.7252c3.6893-8.7035,8.4004-16.9268,13.8952-24.6129,1.5195-2.1255,3.0053-4.2665,4.6032-6.3356l-1.0872,1.4072c1.3843-1.7862,2.7761-3.566,4.1575-5.3545l-1.05,1.359c.9376-1.2096,1.9157-2.3886,2.83-3.616l-1.0165,1.3158c.8857-1.1228,1.599-2.2445,2.353-3.4417.2297-.3648.4616-.7282.6956-1.0903.4851-.7504.824-1.427,1.1562-2.3036l-1.388,2.3816.1461-.1424c.9833-.9581,1.5808-2.451,1.5808-3.8164,0-1.3238-.588-2.905-1.5808-3.8164-2.1777-1.9991-5.4714-2.1058-7.6328,0l-.1461.1424c.7939-.4627,1.5877-.9253,2.3816-1.388-1.5203.536-2.8137,1.4533-4.1413,2.3447-1.3704.9202-2.6409,1.9295-3.8344,3.0674-1.7752,1.6924-3.4367,3.4602-5.0323,5.3227-3.5934,4.1945-6.8811,8.6176-9.8445,13.2784-5.6382,8.8676-10.2416,18.4719-13.5499,28.4488-1.5977,4.8183-2.9086,9.7356-3.5432,14.7772-.199,1.581-.2731,3.1834-.1334,4.7729.1172,1.3331.2724,2.6876.5841,3.9924.2922,1.2229.8137,2.4056,1.3476,3.5339.951,2.01,2.8299,4.0102,4.8328,4.9972,1.769.8718,3.2433,1.2606,5.2309,1.3716,1.3275.0741,2.7116-.1612,3.9919-.5113,3.0385-.8307,5.6307-2.471,8.0486-4.4226,1.8375-1.4831,3.3616-3.4705,4.543-5.4995,2.5551-4.388,3.5557-9.2743,4.1226-14.2518.2184-1.9175.3154-3.8474.3378-5.7766.0219-1.8825.037-3.7957-.1607-5.6696-.1648-1.5618-.3572-3.1518-.7443-4.6796-.3688-1.4553-.9576-2.8186-1.5546-4.1946-.9224-2.126-2.2853-3.9864-3.791-5.7419-1.4924-1.7399-3.346-3.1749-5.2108-4.4871-1.4945-1.0516-3.1013-1.9368-4.7534-2.7141-4.3681-2.0552-8.9647-3.6565-13.6147-4.9403-3.0656-.8463-6.1705-1.3649-9.322-1.7738-2.5592-.3321-5.1476-.4673-7.7242-.2806-3.0801.2232-6.2128.7035-9.1267,1.7605-2.6629.9659-5.2763,2.1832-7.6892,3.6733-4.1206,2.5447-7.7776,5.7705-10.8669,9.4915-3.1128,3.7494-5.8206,7.7828-8.2889,11.9786-2.4023,4.0836-4.583,8.2658-6.4557,12.6199-4.0989,9.5296-7.183,19.4289-9.4644,29.5446-.5042,2.2356-.9682,4.48-1.3945,6.7317-.2054,1.0851-.1656,2.1388.4081,3.1191.4914.8397,1.4541,1.6405,2.4191,1.8602,2.1194.4827,4.4024-.6362,4.9794-2.8272h0Z" style="stroke-width:0px;"/><path d="m847.7383,233.3092c-.3013-1.1908-.5219-2.3982-.686-3.6152l.1693,1.2598c-.2455-1.8855-.2388-3.7933-.5121-5.6689l.1907,1.4194c.0021-2.2082.1583-4.4115.4448-6.6007-.0763.5677-.1526,1.1355-.2289,1.7032.2727-2.0285.6674-4.0368,1.1871-6.0166l-.748,1.7724c.3046-.6337.5802-1.2803.8269-1.9399.1177-.7218.2132-1.4462.2863-2.1733l-.2673,1.9891c.5084-2.6044,1.2918-5.1696,2.3144-7.6174l-.8323,1.9722c.9029-2.1302,2.0197-4.1633,3.4236-6.006l-1.3968,1.8079c1.7471-2.2584,3.9951-3.9743,6.2399-5.7111l-1.9747,1.5256c2.3103-1.7809,4.5524-3.6397,6.8215-5.4727,1.611-1.3014,3.2235-2.6025,4.6873-4.0702,2.7723-2.7799,5.3266-5.7764,7.8464-8.784,3.0485-3.6387,5.8538-7.5016,8.1654-11.652,2.3368-4.1956,4.2558-8.6619,5.8715-13.1795,1.3243-3.703,2.3424-7.495,3.0584-11.3616.5278-2.8505.8039-5.6633.6965-8.5505-.0733-1.9703-.2505-3.9361-.2947-5.9076-.0824-3.6712.4762-7.3402.1363-11.0089-.1638-1.7677-.3587-3.5744-.7699-5.3086-.4028-1.6987-1.1574-3.3597-1.9006-4.9159-.2883-.6037-.6441-1.1724-1.0323-1.7164-.9326-1.3069-1.9198-2.5916-2.9757-3.8039-2.15-2.4683-4.6865-4.5984-7.2685-6.5975-1.9396-1.5017-3.8717-3.0065-5.8977-4.3904-1.1717-.8003-2.3537-1.5779-3.6498-2.1647-2.4223-1.0964-4.8487-2.0818-7.4326-2.7032-2.7035-.6502-5.4719-.9853-8.2257-1.3379-3.3433-.428-6.7211-.6657-10.0905-.48-2.7079.1492-5.4188.5199-8.0896.9683-1.7427.2926-3.4689.6847-5.1643,1.1833-2.5556.7516-5.017,1.7978-7.4448,2.8851-1.6054.719-3.1604,1.5549-4.6308,2.5213-3.8311,2.518-7.0729,5.6576-10.2942,8.8822-2.7908,2.7936-5.5023,5.672-8.0139,8.721-6.0975,7.4024-11.4813,15.5212-13.9808,24.897-.5244,1.967-.9203,3.9679-1.2142,5.9819-.4142,2.8387-.7989,5.6844-.9511,8.5507-.127,2.3909.2384,4.7388.328,7.1246.0435,1.1577.0688,2.3551-.0682,3.507l.3924-2.9203c-.1637,1.2099-.4159,2.3917-.5016,3.6239l.39-2.9022c-.3831,1.1644-.357,2.4085-.5092,3.6146.1279-.9519.2558-1.9038.3837-2.8557-.0346.2202-.0854.4293-.1672.6369.3529-.8361.7057-1.6723,1.0586-2.5084-.0733.1651-.1587.3161-.268.4603l1.6113-2.0855c-.0977.1169-.2015.2199-.3201.3153l2.0519-1.5853c-.7278.5301-1.5942,1.1361-2.2483,1.7553,1.4705-.857,2.9409-1.714,4.4114-2.571l-.1047.0147c-1.3009.3093-2.4342.9058-3.3997,1.7894-1.0883.7049-1.9466,1.6399-2.5748,2.8049-.7306,1.1475-1.126,2.3865-1.1863,3.7169-.2976,1.3288-.2381,2.6576.1786,3.9864.7828,2.419,2.2819,4.7528,4.5942,5.9746l2.3881,1.0078c1.7717.4761,3.5435.4761,5.3152,0l.1047-.0147h-5.3152l.172.061,2.6861.3609c.0631.0023.1257.009.1889.0091.0595.0002.1183-.0062.1777-.0088.6473-.0284,2.1745-.2381,2.8154-.3777.1177-.0256.231-.0531.3468-.0864.6323-.182,1.9737-.7938,2.5729-1.0825.0697-.0336.1418-.061.2094-.0994.1068-.0607.2052-.1283.3065-.1974.7993-.5455,1.6796-1.1874,2.3861-1.8587.4297-.4083.7137-.8547,1.0998-1.3545,1.112-1.4393.7519-.8096,1.4642-2.4974.2279-.5401.4512-.9947.6242-1.5203-.3668.8693-.7337,1.7386-1.1005,2.6079.6685-1.1584,1.2585-2.6648,1.5135-4.052.2792-1.5187.5359-3.079.5464-4.6286.0088-1.3035-.0918-2.6051-.1974-3.9033-.0813-.9994-.1924-2.0058-.1699-3.0099.0443-1.9755.248-3.9577.5082-5.9151-.1326.9867-.2652,1.9734-.3977,2.96.5549-4.0543,1.4829-8.0823,3.0715-11.8635-.3752.889-.7503,1.7781-1.1255,2.6671,1.925-4.4946,4.6016-8.6657,7.5735-12.5341l-1.7515,2.267c2.4108-3.1188,5.0457-6.0543,7.7938-8.8783,1.3693-1.4071,2.7657-2.7875,4.1764-4.1529,1.3352-1.2923,2.6531-2.6078,4.1177-3.7553l-2.2786,1.7604c2.1932-1.6925,4.6138-3.0468,7.1604-4.1299-.8981.379-1.7962.758-2.6943,1.137,3.5746-1.4969,7.34-2.4831,11.1778-3.0044l-2.9916.402c4.7265-.6206,9.4687-.4297,14.1844.1982l-2.9784-.4002c3.0379.4155,6.086,1.0281,8.9234,2.2207-.8896-.3754-1.7791-.7508-2.6687-1.1262,2.9169,1.2603,5.5514,3.3046,8.055,5.2319l-2.2542-1.7416c2.8175,2.1803,5.6269,4.5314,7.8191,7.3607l-1.7357-2.2466c.6251.8216,1.1676,1.6806,1.5725,2.6327l-1.118-2.6491c.4338,1.0768.6963,2.1988.8597,3.3462-.1319-.9816-.2638-1.9633-.3957-2.9449.4698,3.5855.008,7.188.0116,10.7842.0038,3.841.7064,7.6884.2409,11.5249l.3929-2.9242c-.4185,3.0922-1.1954,6.1799-2.0293,9.1832-.8438,3.0393-1.8773,6.0234-3.097,8.9323l1.0884-2.579c-2.144,5.0668-4.864,9.8789-8.2257,14.2394l1.6511-2.1371c-2.2292,2.8677-4.5254,5.7061-6.9654,8.3979-2.4808,2.7368-5.1044,5.3265-7.7022,7.9506-1.3834,1.3974-2.6826,2.8509-3.9402,4.363-1.3435,1.6154-2.7126,3.2505-3.7802,5.0675-1.6666,2.8363-2.891,6.0452-3.6283,9.2525-.4928,2.1438-.7823,4.3475-1.0105,6.5312-.22,2.1051-.4598,4.4576.0609,6.5156-.0883-.6575-.1767-1.3149-.265-1.9724.1872,2.8238.5592,5.6535,1.1172,8.4279.5064,2.518,1.1337,5.1325,2.2031,7.4701-.1778-.4213-.3556-.8426-.5334-1.2639.8969,2.7963,2.0145,5.5725,3.4874,8.1182,1.0581,1.8288,3.3723,2.5385,5.2846,1.7315,1.948-.8221,2.973-2.926,2.4503-4.9924h0Z" style="stroke-width:0px;"/><path d="m857.9267,268.7217c.0203-1.2655.0405-2.531.0608-3.7965.043-1.1399-.1947-2.2031-.713-3.1898-.3339-1.0264-.9045-1.9146-1.7119-2.6645-.7499-.8074-1.6381-1.378-2.6645-1.7119-.9867-.5184-2.0499-.756-3.1898-.713l-2.2009.2957c-1.4025.3934-2.6203,1.1031-3.6533,2.1292l-1.2946,1.6756c-.7489,1.2913-1.1257,2.6842-1.1304,4.1787.0203,1.2655.0405,2.531.0608,3.7965-.0427,1.1315.1933,2.187.7078,3.1664.3314,1.0189.8979,1.9005,1.6993,2.6449.7444.8014,1.626,1.3679,2.6449,1.6993.9794.5146,2.0349.7505,3.1664.7078l2.1848-.2936c1.3922-.3905,2.6011-1.095,3.6265-2.1136.4284-.5544.8567-1.1089,1.2851-1.6633.7434-1.2818,1.1174-2.6645,1.1221-4.148h0Z" style="stroke-width:0px;"/><path d="m888.1158,303.0954c1.2342-1.2351,2.4266-2.5152,3.7338-3.6732,1.2489-1.1065,2.4911-2.2207,3.728-3.3407,2.5252-2.2866,5.1102-4.5416,7.517-6.9531,4.8176-4.8269,9.6002-9.6889,14.4649-14.4685,2.433-2.3905,4.8865-4.7605,7.3742-7.0941,2.4247-2.2744,4.9053-4.4842,7.2574-6.835,4.5723-4.5698,8.8355-9.4374,12.9855-14.3901,2.3272-2.7773,4.6194-5.5836,6.914-8.3879,1.1379-1.3906,2.2763-2.7808,3.4201-4.1665,1.0336-1.2523,2.0355-2.5268,2.9924-3.8394.5443-.7466,1.1186-1.467,1.5593-2.2797h-15.8947c.669,1.198,1.439,1.9731,2.4717,2.771.5716.5678,1.2455.9605,2.0215,1.1782.398.1901.8043.3591,1.2189.507.7957.1069,1.5914.2138,2.3871.3208,1.2363.0466,2.3895-.2112,3.4597-.7734.7606-.2133,1.421-.5982,1.9812-1.1547.9776-.6332,1.7485-1.473,2.3128-2.5194.7922-1.2502.9889-2.1949,1.1691-3.5357.2182-.8119.2182-1.6238,0-2.4357-.0571-.4848-.1236-.9682-.1995-1.4502-.4373-1.5592-1.2263-2.913-2.367-4.0614-1.1484-1.1407-2.5022-1.9297-4.0614-2.367-1.6312-.4384-3.2624-.4384-4.8936,0-1.5592.4373-2.913,1.2263-4.0614,2.367-.7802.6801-1.4213,1.5026-2.0938,2.2883-1.1517,1.3454-2.1895,2.7902-3.2457,4.212-1.2743,1.7154-2.5416,3.4359-3.8105,5.1553-2.5348,3.4349-5.0765,6.8649-7.6845,10.2447l1.3921-1.8018c-2.9683,3.8411-6.0216,7.6191-9.251,11.2447-3.2797,3.682-6.7391,7.2006-10.0351,10.8693-3.3997,3.7841-6.7292,7.6305-10.0392,11.493-3.287,3.8357-6.6306,7.6337-9.787,11.5775-1.7941,2.2417-3.5987,4.4752-5.4229,6.6925-.8856,1.0765-1.7664,2.1589-2.6729,3.218-.9496,1.1095-2.0483,2.1155-3.0804,3.1483-1.0565,1.0572-1.7065,2.6255-1.7065,4.12,0,1.4291.6347,3.1361,1.7065,4.12,1.1104,1.0193,2.5682,1.776,4.12,1.7065,1.5452-.0692,3.0054-.5911,4.12-1.7065h0Z" style="stroke-width:0px;"/><path d="m898.1142,357.0576c2.716.1251,5.312-.8513,7.7076-2.0176,1.6937-.8246,3.2628-1.8723,4.8669-2.8532,3.7981-2.3225,7.8834-4.1443,11.6835-6.4674,1.9171-1.172,3.8362-2.33,5.8327-3.3633,1.9032-.985,3.8558-1.8611,5.7911-2.7791,3.9199-1.8594,7.8992-3.6052,11.7077-5.69,2.5939-1.4199,4.9189-3.0314,7.2421-4.8683,1.6934-1.3389,3.2772-2.81,4.9858-4.1304l-1.7868,1.3805c.748-.5711,1.5166-1.1142,2.3267-1.5943.721-.4273,1.3205-.7975,2.0031-1.3249.6832-.5279,1.1899-1.0513,1.7946-1.6383-4.3717-.5633-8.7434-1.1267-13.1151-1.69.224.3561.4481.7123.6721,1.0684.6947,1.1044,1.6836,2.1535,2.8164,2.8164l1.8753.7914c1.0435.3272,2.087.3739,3.1304.1402.7085-.0022,1.3689-.1808,1.9811-.5359.665-.1865,1.2423-.523,1.7321-1.0095,1.2739-.9842,2.4817-2.4493,2.8133-4.0779.0806-.396.1613-.7919.2419-1.1879.3977-1.4799.3977-2.9599,0-4.4398-.2584-1.0867-.7566-2.0333-1.4947-2.8398-.5888-.9091-1.3698-1.626-2.3429-2.1507-1.3024-.7554-2.7073-1.1354-4.2147-1.1401-1.2317.0089-2.7039.077-3.8012.4471-1.2043.4062-2.3254.9599-3.3765,1.6598-1.5435,1.0277-3.0062,2.196-4.4124,3.4038-1.7582,1.5102-3.403,3.1491-5.2338,4.5745l1.7616-1.361c-5.2228,4.0058-11.4656,6.4405-17.1875,9.6045-2.9194,1.6143-5.7433,3.3554-8.4573,5.2961-1.9391,1.3866-3.8723,2.7727-5.7083,4.2958-1.3632,1.131-2.7234,2.2656-4.0838,3.4-1.3132,1.095-2.625,2.1789-3.8639,3.3582-1.1769,1.1202-2.3438,2.2526-3.6284,3.2508l1.2441-.9612c-.8488.6465-1.7389,1.2299-2.7199,1.6558l1.3905-.5868c-.5426.2219-1.0935.3887-1.6731.4806-1.2535.1986-2.7957,1.5021-3.3721,2.5931-.6021,1.1396-.842,2.3146-.6696,3.5979.3813,2.8373,2.7067,4.7619,5.5417,4.8925h0Z" style="stroke-width:0px;"/></svg>