<?xml version="1.0" encoding="UTF-8"?><svg id="ARTWORK" xmlns="http://www.w3.org/2000/svg" viewBox="0 0 1000 1000"><path d="m473.613,623.3853c.1069,4.3349.2676,8.7018.6367,13.0227.3725,4.3605.9099,8.8334,2.1385,13.044,2.582,8.849,7.0533,17.0307,11.3723,25.1287,4.393,8.2366,9.2907,16.1178,15.5121,23.1136,3.1858,3.5823,6.3594,7.1792,9.6621,10.6548,3.5972,3.7855,7.4148,7.1505,11.8123,9.9979,2.1088,1.3654,4.2846,2.6226,6.4469,3.9004,1.9904,1.1762,3.9383,2.3912,6.0463,3.3512,4.4675,2.0346,9.152,3.4584,13.6738,5.3472l-2.0273-.8555c2.3634,1.0056,4.6285,2.1897,6.6827,3.7409l-1.7176-1.327c2.3839,1.8575,4.2402,4.2078,6.0831,6.5821l-1.327-1.7176c2.1184,2.7531,3.8479,5.7382,5.8747,8.5445,1.4077,1.9492,2.6601,3.47,4.7208,4.7498,1.8042,1.1206,4.219,1.6754,6.3208,1.5629,1.9608-.1049,3.8282-.5524,5.6902-1.1208,2.0758-.6338,3.9713-1.041,5.9863-1.9499,3.8548-1.7388,6.4516-5.3038,9.6989-7.8709-.5651.4366-1.1302.8732-1.6953,1.3098,1.6407-1.2367,3.4535-2.1815,5.3412-2.9812l-1.9928.841c2.7644-1.1358,5.6045-1.8387,8.5029-2.5269,3.3121-.7865,6.5664-1.8143,9.7947-2.8888,3.4041-1.1331,6.9673-2.0763,9.9732-4.1054,2.8263-1.9079,5.3058-4.2574,7.9948-6.3407-.5377.4154-1.0754.8309-1.6131,1.2463,2.7367-2.0717,5.7875-3.7036,8.5577-5.7371,1.7821-1.3082,3.5721-2.6564,5.1965-4.162,1.3816-1.2806,2.5805-2.7852,3.7386-4.2662,1.4866-1.9008,2.918-3.835,4.3064-5.808.2372-.3371.4738-.6747.7109-1.012.1279-.182.413-.4845.4749-.6747.0053-.0162-.8774,1.0569-.4123.508.6338-.748,1.258-1.5035,1.9052-2.2401,2.6391-3.0038,5.1394-6.1223,7.7585-9.1427,1.228-1.4161,2.5638-2.6999,4.0158-3.8851.1521-.1242.3061-.246.4584-.37.8421-.6855-.299.226-.392.2948.3166-.234.6265-.4777.9411-.7146.7909-.5957,1.5869-1.1846,2.3732-1.7865,3.293-2.521,6.2975-5.2217,9.0996-8.2807,2.4514-2.6762,4.7589-5.4796,7.1891-8.1747,2.8105-3.1169,5.8512-5.9429,8.41-9.286,1.3382-1.7483,2.4744-3.6208,3.6235-5.4956,1.1178-1.8237,2.3535-3.5394,3.5925-5.2799,1.3896-1.9521,2.348-4.1025,3.1324-6.3652.1597-.4607.311-.9242.4713-1.3847.0965-.2773.6343-1.6325.1724-.5556-.473,1.1025.2112-.3917.366-.6602.0907-.1573.1911-.3081.2832-.4645.6647-1.1272-1.0236,1.1776-.1155.1761,2.3428-2.5839,2.7425-6.9128,0-9.4303-2.5389-2.3307-6.9481-2.7777-9.4303,0-1.6827,1.883-2.6884,3.7131-3.6061,6.0438-.2208.5607-.4187,1.1285-.6098,1.6998-.1161.3473-.2281.696-.3457,1.0428-.0785.2338-.1593.4668-.2423.699-.2401.6332-.1615.47.2356-.4896-.4332.5352-.6804,1.3672-1.0564,1.9634-.318.5042-.6609.9918-1.0078,1.4764-.9725,1.3583-1.9281,2.7144-2.8014,4.1399-.8472,1.3829-1.6547,2.7906-2.5428,4.1482-.234.3577-.4724.7124-.7187,1.0618l-.2503.3506c-.343.4599-.3421.4648.0028.0145l.2593-.3342c-.17.2149-.3426.4277-.5178.6383-.3432.4131-.6966.8177-1.0561,1.2166-2.1395,2.3738-4.4345,4.593-6.5325,7.0073-1.9945,2.2951-3.9302,4.6414-5.9641,6.9023-.9707,1.079-1.96,2.1436-2.9956,3.1608-.5618.5518-1.1367,1.0908-1.7236,1.6158-.634.5672-1.5849,1.1039-2.1023,1.7666.8153-1.0443.7324-.5617.209-.1669-.2642.1993-.5295.397-.7951.5942-.6341.4708-1.272.9365-1.9049,1.4087-1.5995,1.1934-3.2053,2.3955-4.7021,3.7179-2.5023,2.2107-4.5648,4.8997-6.7122,7.4433-4.7316,5.6046-9.605,11.364-15.4165,15.8896l1.5403-1.19c-1.1043.851-2.1825,1.7292-3.2805,2.5869l1.554-1.2006c-2.043,1.5681-4.2127,2.9453-6.4312,4.2499-2.803,1.6483-5.4388,3.2579-8.0006,5.2818l1.6195-1.2512c-1.3982,1.06-2.7641,2.1583-4.1471,3.2374.5433-.4197,1.0865-.8394,1.6298-1.2592-1.5668,1.2098-3.181,2.3423-5.0051,3.1314l1.944-.8204c-1.6312.655-3.3715,1.0648-5.0534,1.5713-1.6707.5031-3.3373,1.021-5.0121,1.5106-3.2834.9599-6.6485,1.5595-9.9345,2.4913-3.4798.9867-7.0191,2.3267-10.0978,4.2424-3.317,2.0639-5.7925,4.9979-8.846,7.3638.568-.4388,1.136-.8777,1.704-1.3165-.7064.5222-1.4216.9669-2.2309,1.31l2.0147-.8502c-1.1752.4426-2.4182.6129-3.6238.9494-1.1237.3137-2.2227.6801-3.3818.8449l2.2527-.3027c-.4598.052-.9037.0678-1.3633.0087l2.2547.303c-.2243-.0406-.4357-.0961-.6502-.1732.6757.2851,1.3513.5703,2.027.8554-.2624-.1115-.499-.2452-.732-.4088.5725.4423,1.1451.8847,1.7176,1.327-.4232-.3285-.7738-.7156-1.1064-1.134l1.327,1.7176c-2.019-2.6535-3.6312-5.6017-5.654-8.2663-1.4965-1.9714-3.0086-3.9466-4.6215-5.8263-1.5139-1.7643-3.2844-3.174-5.1468-4.5623-5.6014-4.1752-12.6154-5.7903-18.9727-8.4404l2.0273.8555c-3.0485-1.2938-5.8205-3.028-8.6666-4.705-3.0691-1.8084-6.1235-3.6437-8.9469-5.8242l1.7176,1.327c-5.0973-4.0124-9.5995-8.8351-14.1194-13.4703-4.2951-4.4046-8.4465-8.9266-12.2149-13.7959l1.163,1.5053c-5.0183-6.525-9.5206-13.4691-13.9285-20.4161-2.1347-3.3644-4.0882-6.811-5.6961-10.4613-.078-.177-.388-.9321-.0977-.2121.2759.6845.0337.0803-.0196-.0492-.3132-.762-.6372-1.5172-.976-2.2679-.0997-.221-.1956-.4438-.2939-.6654-.2372-.5346.1046-.3123.076.1909.021-.3695-.4259-1.0382-.5605-1.379-.7055-1.7854-1.3453-3.5965-1.9265-5.4261-1.3838-4.3564-2.3153-8.7435-2.9994-13.259-.2226-1.4692-1.9924-2.3716-3.3256-2.1711-1.4452.2174-2.666,1.4416-2.6281,2.9769h0Z" style="stroke-width:0px;"/><path d="m566.0061,641.9249c-1.6315-4.8617-4.2991-9.2821-5.8443-14.1732-2.5926-8.205-2.7335-15.9234-2.8271-24.3638-.1358-12.2611,5.8978-23.789,4.4122-36.2073-.6398-5.3493-1.7206-10.7405-3.3159-15.8533-1.5902-5.097-3.7056-8.8114-6.9262-13.0044-1.4697-1.9121-2.0498-3.9769-4.1028-5.4104-3.0169-2.1056-6.6496-2.9813-9.6857-5.381-2.6447-2.0908-5.8092-2.6203-8.4151-4.4419-1.9684-1.3758-2.0682-3.8785-4.9556-3.6069-.6678-3.4236,3.2737-8.3068,4.7262-11.3254,2.7991-5.8177,5.1106-11.6954,8.1753-17.4667,5.1304-9.66,9.9462-19.6333,15.8476-28.7847,1.1311-1.7537,1.3461-3.784,2.3895-5.4721,1.186-1.9183.9382-1.5478,3.3261-1.6213,2.2473-.069,4.6023,1.2117,6.9033,1.4392,1.3871.1369,2.4478.2681,3.5317.4503-1.2081-3.5911-2.4173-7.2042-3.8751-10.8446-6.8985-17.2263-12.7085-35.1834-20.702-52.1048-4.6464-9.8365-11.1588-19.0111-16.9171-28.1031-5.1411-8.1167-7.3754-18.9251-11.3475-27.6754-7.6579-16.8704-13.3198-35.1563-18.8628-52.8204-3.046-9.7069-6.2612-18.5545-10.8163-27.5413-2.342-4.6195-3.8536-9.5932-5.9891-14.3242-2.0066-4.4447-2.2436-9.2272-4.6504-13.3472-3.1696-5.4262-7.8132-10.2104-11.0321-15.7096-2.1627-3.6952-2.7799-5.1389-5.831-8.1122-1.5667-1.5268-3.3956-2.7001-4.9813-4.266-6.6436-6.5599-15.0288-10.1114-23.7138-13.5628-7.9193-3.147-17.9221-1.9981-25.8292.1041-4.7663,1.2672-8.8482.3355-13.563,2.0501-4.8942,1.7791-9.7482,2.7578-14.6588,4.3237-9.4507,3.0129-18.985,4.4679-27.6143,8.7582-7.1058,3.5334-15.0769,4.7101-22.4098,7.5092-6.5192,2.488-13.653,3.3773-20.2251,5.8652-5.687,2.1531-10.6731,6.014-16.163,8.7243-7.4763,3.6907-15.0921,6.7805-21.2982,12.497-4.2103,3.8779-8.504,7.5267-13.2895,10.7512-11.9635,8.0602-18.7401,13.6108-22.7484,27.5351-2.8947,10.056-4.6077,20.9294-3.2927,31.5244.9727,7.8373,4.6668,15.8046,6.5429,23.617,1.0604,4.4159,2.5295,7.6291,4.3409,11.8091,1.9958,4.6065,2.3375,9.3647,3.7059,14.1896,2.9258,10.3179,8.0935,19.7674,10.866,30.1532,3.5057,13.13,8.1396,25.9602,13.5133,38.4492,9.3106,21.6399,14.772,44.7172,23.7539,66.5387,5.3168,12.9173,9.7983,26.5146,14.5222,39.7136,8.7656,24.4905,19.4249,48.1799,30.892,71.5265l4.3234,8.6462c1.0511-.069,1.8281-.5171,2.331-1.3464-1.5922,6.0383,2.4314,6.199,4.8045,10.3128,1.8252,3.1646.6401,6.8405,1.9384,10.0661.8245,2.049,2.3661,2.9179,3.373,4.6852,5.4274,9.5242,9.4221,19.5598,16.1367,28.1642,2.2696,2.9089,4.2459,4.7361,6.0542,8.1665,1.0146,1.9245,2.0314,4.1772,3.3773,5.906,2.8424,3.6522,6.18,8.1891,9.4391,11.3808,6.3619,6.2295,17.5088,6.991,25.9409,6.9729,10.5962-.0226,21.4662.6777,32.0491.0509,3.7368-.2218,7.6746-1.24,11.2397-2.1089,5.4508-1.3271,9.6509-5.846,15.1052-7.6698,21.178-7.0815,40.9075-18.1602,62.7601-22.644,11.9154-2.445,21.4871-9.333,31.9931-14.9165-.7795-2.5513-1.5715-5.1072-2.4317-7.671Z" style="fill:#45d88e; stroke-width:0px;"/><path d="m573.4884,639.8621c-1.7336-4.9616-4.4158-9.7217-5.8443-14.1732-1.604-4.9985-2.0647-8.6273-2.3279-13.6075-.1284-2.4292-.1737-4.8617-.2054-7.2939-.0158-1.2128-.0291-2.4223.0266-3.6344.0273-.5936.0678-1.1858.119-1.7778.0218-.252.2038-1.9588.0841-1.0302.6465-5.0145,2.0559-9.914,3.0062-14.8736.9945-5.1907,1.7472-10.5508,1.2075-15.8374-.5695-5.5789-1.5625-11.1586-3.099-16.554-1.3596-4.7746-3.283-9.443-6.0352-13.5895-2.7872-4.1992-5.4467-9.0236-9.8081-11.7435-2.2854-1.4252-4.8597-2.3021-7.1683-3.6851-2.2871-1.3701-4.2919-2.7817-6.7556-3.862-.478-.2096-.9587-.413-1.428-.6419-.2821-.1376-1.923-.6748-1.1538-.5294.7319.1384-.6371-.6378.1045.174.3749.5026.3638.4847-.0334-.0539l-1.2133-1.5704c-2.2118-2.5555-5.2206-3.9181-8.6182-3.8552,2.5865,2.5865,5.173,5.173,7.7594,7.7594-.1319-1.0688.2027-1.3074-.1523-.2626.1579-.4646.7309-1.8342.171-.6738.6261-1.2975,1.3757-2.5274,2.1137-3.7628,1.6898-2.8287,3.0023-5.8287,4.3475-8.8334,3.1887-7.1228,6.7627-14.0077,10.3672-20.9264,3.4728-6.6659,7.4632-13.0056,11.0596-19.5849.5971-1.0923,1.064-2.2638,1.5017-3.4277.1529-.3981.2965-.7995.4308-1.2044-.2288.4094-.2157.381.0394-.0854.8943-1.6951,2.1385-2.0501-1.9738.3005-3.8375,2.1936-3.3625,1.5319-1.5201,1.5557.4414.0261.4284-.0136-.039-.1191.4366.0885.8684.1962,1.2952.323.8705.2349,1.7242.5288,2.6058.7222,1.2365.2712,2.5034.4035,3.7599.5484.3778.0375.7553.0789,1.1323.1242-.9284-.1307-.9488-.1281-.0613.0079,2.8213.4496,5.4282.1258,7.5495-1.9955,1.873-1.873,2.8645-4.9663,1.9955-7.5495-2.5569-7.6005-5.5616-15.0159-8.3865-22.518-2.8422-7.5481-5.6047-15.1268-8.5662-22.6294-3.0657-7.7667-6.2161-15.5866-10.0688-23.0029-3.6163-6.9612-7.9717-13.4997-12.2401-20.0695-1.897-2.9197-3.8416-5.8082-5.3645-8.9468-1.2883-2.6551-2.3235-5.5855-3.5414-9.0915-2.2726-6.5421-5.1682-13.3888-7.6837-19.4052-6.1247-14.6487-10.8181-29.8533-15.5712-44.9861-4.8112-15.3177-11.574-29.3553-17.4989-43.7805-.3707-.9025-.6902-1.8894-1.0714-3.2191-.4852-1.6923-.8766-3.4122-1.4265-5.0858-1.329-4.0443-3.3934-7.5062-5.903-10.9079-2.0841-2.825-4.3183-5.5421-6.2633-8.4681-1.6837-2.533-3.0044-5.2853-4.8327-7.7219-2.1606-2.8794-4.646-4.9996-7.3548-7.3274-3.044-2.6158-5.9079-5.3118-9.2767-7.5415-6.0406-3.9981-13.0484-7.0161-19.8608-9.4205-7.5153-2.6525-15.8337-2.1837-23.5531-.8444-2.7188.4717-6.1541,1.5571-8.1531,1.6762-4.4674.2662-8.6174.8465-12.8725,2.246-7.499,2.4665-15.2384,4.4997-22.873,6.5064-3.5991.946-7.2031,1.8944-10.7219,3.1126-3.7307,1.2915-7.9231,3.5102-11.0294,4.6359-3.4314,1.2435-6.9349,2.2169-10.443,3.2152-3.7978,1.0808-7.4614,2.5109-11.2329,3.6584-7.6362,2.3234-15.4112,3.5701-22.587,7.2674-2.9926,1.5419-5.8168,3.3834-8.7326,5.0609-3.1281,1.7997-6.4145,3.2833-9.6579,4.8586-6.945,3.373-12.9259,7.3939-18.6842,12.5443-9.2554,8.2784-21.2328,14.0636-28.9555,24.6514-3.6824,5.0486-5.9512,11.0298-7.5739,17.0227-2.0507,7.5736-3.3983,15.4945-3.5137,23.3524-.123,8.3792,1.6502,16.2463,4.2484,24.1544,2.4376,7.419,4.309,14.8324,7.4307,22.0144,1.0798,2.4842,1.897,6.274,2.5659,9.4604.8225,3.9178,1.9784,7.708,3.3662,11.4618,2.6456,7.1561,5.9087,14.0888,8.0659,21.421,2.1864,7.4317,4.2679,14.8512,6.8797,22.1517,2.7098,7.5748,6.0771,15.3262,8.9683,22.4744,5.9707,14.762,10.398,30.0764,15.5701,45.1222,5.0927,14.8148,11.2122,29.2507,16.3989,44.0395,10.4053,29.6684,22.4535,58.6,36.4857,86.7478,1.3242,2.6562,2.6548,5.3092,3.9822,7.9638,1.6454,3.2906,5.4967,4.1105,8.7628,3.5659,2.1527-.3589,4.4071-1.6104,5.755-3.3419-4.323-2.5165-8.646-5.033-12.969-7.5495-1.2491,5.3783-.2921,10.0932,3.5564,14.1252.4693.4917.9844.9387,1.4551,1.4294.256.2668.5054.5375.744.8204-.4512-.5347-.3807-1.0348-.1688-.0831-.097-.4356-.0858-.8523.068.4072-.0429-.3509-.0811-1.318.0162.2905.1061,1.7526.2002,3.4854.5024,5.2217.5112,2.937,1.8447,5.3639,3.7292,7.6341.2969.3577.6133.6973.9166,1.0495-.2229-.2588-.7027-1.1976.0791.1484.686,1.1811,1.3325,2.3871,1.9757,3.5919,2.3389,4.3808,4.4999,8.855,6.884,13.2119,2.6237,4.7947,5.5798,9.3238,9.009,13.5841.6452.8015,1.2977,1.6031,1.9771,2.3758.9819,1.1167.3893.4454.177.1675.3087.4039.6062.8237.8879,1.2477,1.4131,2.1268,2.3505,4.5161,3.7047,6.6762,1.6358,2.6093,2.7235,3.6897,4.788,6.3473,1.5489,1.9939,3.1135,3.9792,4.7993,5.8602,3.3823,3.7739,7.2963,6.4058,11.9876,8.2698,8.6194,3.4247,18.1658,3.0036,27.2615,3.1481,11.0882.1761,22.5656,1.1669,33.5176-.991,5.1234-1.0095,9.9182-2.428,14.4003-5.1751,1.8593-1.1396,3.7049-2.2801,5.5914-3.3733,1.2103-.7014.7621-.3992.373-.2344.5303-.2247,1.0959-.3832,1.6404-.5715,1.4453-.4997,2.8887-1.0031,4.3251-1.528,9.6193-3.5151,18.9782-7.688,28.477-11.5067,5.2228-2.0997,10.4912-4.0978,15.8557-5.8086,5.4917-1.7514,11.1253-2.7823,16.6564-4.3446,10.9727-3.0993,20.4774-9.5356,30.4231-14.8616,2.9381-1.5734,4.5393-5.5839,3.5659-8.7628-.7855-2.5652-1.5854-5.1251-2.4317-7.671-1.3215-3.9754-5.3532-6.5715-9.545-5.4195-3.8869,1.0682-6.7471,5.5514-5.4195,9.545.8463,2.5459,1.6462,5.1057,2.4317,7.671,1.1886-2.9209,2.3773-5.8419,3.5659-8.7628-4.0701,2.1796-8.0342,4.5459-12.0677,6.7912-3.9188,2.1815-7.8109,4.1896-11.3404,5.4471-4.506,1.6054-9.2365,2.3482-13.8442,3.5938-4.6955,1.2693-9.3157,2.8067-13.8791,4.4867-9.0259,3.3228-17.8277,7.2108-26.7382,10.8233-4.5341,1.8382-9.0978,3.6075-13.7266,5.1942-4.5617,1.5637-8.3345,3.8755-12.4388,6.3132-.9103.5406-1.8462,1.1128-2.8275,1.5158.4169-.1712.9273-.2339-.3719.0722-.5573.1313-1.114.2923-1.6692.4305-2.4544.6107-4.9889,1.3278-7.5097,1.5883-4.0105.4143-9.7401.3163-14.3499.2614-9.1991-.1096-18.6188.2394-27.7747-.7315-.2573-.0273-1.5046-.2486-.1655-.0217-.3698-.0627-.7398-.1217-1.1089-.1887-.9798-.1781-1.9525-.3876-2.9164-.6384-.834-.217-1.6438-.5083-2.4714-.7427-1.3766-.3899-.5345-.1636-.1755-.0116-.5485-.2322-1.0848-.5032-1.6098-.7843-.4174-.2234-.8265-.459-1.2279-.7102-.17-.1064-1.3757-.9463-.6558-.4015.7167.5424-.4111-.3793-.56-.518-.2845-.2649-.5593-.5398-.8319-.817-1.741-1.7709-3.3191-3.7012-4.8607-5.6454-.6348-.8006-1.2671-1.6185-1.5039-1.9252-.3188-.4131-2.4938-3.4377-1.7753-2.3342-1.3278-2.0391-2.2767-4.272-3.521-6.3566-2.366-3.9635-5.55-7.016-7.8178-10.3353-2.9612-4.3341-5.4184-8.9812-7.8132-13.6442-2.4881-4.8446-4.6685-10.5011-8.4318-14.5185-.2437-.2601-1.0481-.7905-.1341-.048l-.3929-.6308c.2125.5128.243.5135.0914.0019-.2232-.8816-.0481-.0621-.0255.1199-.0974-.7828-.0844-1.5885-.1417-2.3748-.2335-3.2057-.7699-6.3086-2.5361-9.0677-1.1087-1.732-2.5224-3.1471-3.9491-4.5977-.2179-.2216-.4197-.508-.6641-.694-.7021-.5345.9304,1.3952.2832.2447.4172.7416.4796,1.1732.5628,1.9578-.1596-1.5068-.39,1.3079.078-.707.7822-3.3679-.5169-6.9794-3.5659-8.7628-2.715-1.588-7.3229-1.4589-9.4031,1.2133,2.1024-.7203,2.4667-.9367,1.093-.6491,2.9209,1.1886,5.8419,2.3773,8.7628,3.5659-11.2014-22.4014-21.8269-44.9772-30.7128-68.2611-5.5633-14.5776-10.2804-29.4631-15.9378-44.0057-2.8321-7.2801-5.7845-14.4878-8.3404-21.8739-2.4995-7.2233-4.8149-14.5084-7.2032-21.7688-2.3855-7.2519-4.8417-14.4847-7.6212-21.5966-2.8558-7.3072-5.9357-14.0963-8.6918-21.4848-2.7151-7.2786-5.1422-14.6664-7.207-22.1561-2.0108-7.2936-4.8108-14.1989-7.5927-21.2222-1.2925-3.2631-2.5315-6.5543-3.5256-9.9224-1.1259-3.8143-1.632-7.7721-2.7335-11.5899-.5715-1.9809-1.3742-3.8557-2.1897-5.7474-.77-1.7863-.723-1.5917-1.3445-3.1754-1.3935-3.5508-2.1771-7.2516-3.2872-10.8906-2.108-6.9102-4.9639-14.17-5.3553-20.7812-.4491-7.5858.3926-13.9707,2.1624-21.2265.7789-3.1933,1.6783-6.3509,2.8645-9.4181-.6119,1.5823.2137-.4598.3044-.6512.2795-.5899.573-1.1732.8823-1.7481.5928-1.1019,1.2419-2.1739,1.9483-3.2067.1775-.2596,1.422-1.8812.2291-.387.377-.4722.7625-.9369,1.1611-1.3912.8038-.916,1.6535-1.7909,2.5364-2.6307.9135-.8689,1.8642-1.6981,2.8377-2.499.1718-.1413,1.8768-1.478.4981-.4214.7293-.5589,1.4708-1.1021,2.2164-1.639,5.8216-4.193,11.6945-8.1719,17.0846-12.939,1.2252-1.0836,2.4091-2.2151,3.6493-3.2811,1.0019-.8612,1.4327-1.169,2.8797-2.1215,3.0806-2.0277,6.3731-3.704,9.6862-5.3131,2.9781-1.4464,6.0063-2.8014,8.8947-4.4239,3.1884-1.791,6.2426-3.8194,9.4958-5.4956,5.4533-2.8098,13.1748-3.8659,19.751-5.9737,3.4672-1.1113,6.8543-2.3894,10.3617-3.3876,3.5026-.9968,7.0317-1.9294,10.443-3.2152,3.6761-1.3857,6.8155-3.1236,10.1575-4.3285,3.7934-1.3677,7.697-2.3962,11.5938-3.4199,7.3381-1.9278,14.7192-3.9389,21.9573-6.2133,1.8295-.5749,3.6164-1.341,5.5129-1.6755-.3183.0561-1.1819.0877.612-.0703.8819-.0776,1.7664-.1154,2.6494-.1775,4.239-.2977,8.189-1.364,12.3346-2.1417,5.7788-1.084,11.7249-1.0582,17.6959,1.2993,3.0043,1.1862,4.8688,1.9456,8.1394,3.5724,2.9458,1.4653,5.8575,3.1059,8.483,5.0978-.9948-.7548,1.1219.9507,1.0247.8662.6372.5539,1.2351,1.1436,1.854,1.7167,1.2094,1.1197,2.5125,2.1073,3.765,3.1755,1.1625.9915,2.1947,2.08,3.2134,3.2145-1.2153-1.3534-.0131.0116.1981.3312.332.5025.6399,1.0209.9466,1.539,3.6321,6.1372,8.3816,11.4446,12.0669,17.521,1.5483,2.5529,1.889,4.7253,2.8263,7.9944,1.1842,4.1304,2.7514,7.2007,4.2348,11.0134,2.6742,6.8734,6.3889,13.839,8.8801,20.1949,5.5044,14.0438,9.3193,28.7157,14.2814,42.9554,2.6241,7.5303,5.4893,14.9634,8.6319,22.2927.7256,1.6923,1.5057,3.3607,2.2322,5.0522-.5412-1.2602.4815,1.2265.4576,1.1649.3009.7744.5902,1.5533.8747,2.334,1.2565,3.4484,2.3826,6.943,3.6575,10.3849,2.59,6.9921,6.0133,13.0864,10.0661,19.3122,4.104,6.3045,8.2347,12.6187,11.6474,19.3335,6.819,13.4173,11.6225,27.7985,16.983,41.996,2.7182,7.1993,5.5915,14.3186,8.0461,21.6149l9.545-9.545c-1.3495-.2151-2.7049-.4232-4.0642-.5623-2.1065-.2155,1.1868.4291-1.2008-.2185-2.4138-.6547-4.6997-1.3306-7.2327-1.3858-4.3818-.0955-7.8047,1.6067-10.0261,5.4644-.609,1.0576-1.0743,2.2334-1.5144,3.3699-.198.5296-.3882,1.0621-.5705,1.5973.2639-.5226.1624-.3543-.3046.5049-1.1595,1.8495-2.3183,3.6962-3.4218,5.5804-2.1375,3.6498-4.1442,7.3743-6.1118,11.1178-4.0658,7.7357-8.1045,15.4513-11.6763,23.4297-1.5483,3.4585-3.1656,6.7853-5.077,10.0529-1.9371,3.3115-4.0115,7.3446-3.5216,11.3124.5067,4.104,3.1439,7.8449,7.7594,7.7594-.9655.0179-2.2489-.9295-2.9926-1.4494.2207.1543,1.2289,1.2808-.2699-.3937.7393.826,1.2774,1.8376,2.0783,2.6129,1.8685,1.8085,4.0752,2.874,6.4164,3.8977,1.7965.7855,3.3252,1.7439,4.9328,2.8499,2.0066,1.3806,4.2667,2.2698,6.4268,3.3682.2872.1461,2.2551,1.1654,1.6108.7716.9348.5714.5751.6391.2256.1461.2841.4007.513.8418.7702,1.2598,1.1403,1.853,2.5164,3.5327,3.7011,5.3572,2.6172,4.0309,3.4874,6.538,4.7452,11.3787,1.1991,4.6148,2.1072,8.828,2.2189,13.3009.0261,1.0434.0076,2.0872-.0503,3.1293-.0329.5934-.0847,1.1837-.1353,1.7756-.1386,1.618-.091.9643-.0437.5866-.295,2.3543-.8181,4.6931-1.32,7.0102-1.0936,5.0487-2.2179,10.0603-2.7908,15.2032-.5166,4.6378-.3177,9.3824-.0718,14.0344.2986,5.6499.9909,11.3866,2.6042,16.8233,1.586,5.3448,4.4803,10.383,6.1224,15.0829,1.3817,3.9545,5.3092,6.5836,9.545,5.4195,3.838-1.0547,6.8081-5.5707,5.4195-9.545Z" style="fill:#45d88e; stroke-width:0px;"/><path d="m373.3547,239.4118c-2.6656.7568-5.2959,1.623-7.9522,2.4082-2.6416.7808-5.3111,1.4695-7.9532,2.2513-5.2638,1.5576-10.4975,3.2161-15.7123,4.93-1.4345.4715-2.8687.9441-4.3031,1.4157-1.958.6438-3.8178,1.4981-5.7079,2.3145.6083-.2567,1.2166-.5134,1.8248-.7701-2.1334.8958-4.4478,1.2981-6.601,2.1605-3.5837,1.4354-6.9274,3.0948-9.1033,6.4633-1.5135,2.343-1.8442,5.5395-1.0227,8.178.8523,2.7373,2.8264,5.1156,5.2812,6.5782,1.7993,1.0721,4.2324,1.7472,6.3333,1.5886,1.1057-.0835,2.2482-.2016,3.3223-.5091,1.0702-.3064,2.1017-.8205,3.1128-1.2518l-1.8812.7939c2.038-.8551,4.1076-1.6244,6.1425-2.4898l-1.8246.77c1.3744-.5088,2.7371-1.0661,4.0589-1.6992.8055-.3858,1.551-.8824,2.3713-1.2365l-1.8172.7669c1.0639-.4269,2.1782-.6428,3.2927-.8911,1.7084-.3805,3.3306-1.022,4.8881-1.8262,2.1885-1.13,4.3563-2.2991,6.5616-3.3963,4.5796-2.2785,9.3272-4.2692,14.0381-6.2594l-1.7954.7577c1.6891-.7118,3.3918-1.385,5.0943-2.063,1.2115-.4824,2.4342-.9678,3.6018-1.552,1.1691-.585,2.1719-1.3654,3.1849-2.2014,2.9401-2.4265,4.129-6.8011,3.0654-10.4218-.5928-2.0181-1.6541-3.4045-2.9784-4.9885-1.3705-1.6394-3.2257-2.4728-5.1802-3.192-1.0475-.3284-2.095-.3753-3.1425-.1408-1.0488.0476-2.0255.3593-2.93.9352-1.6347.9566-3.1937,2.831-3.6216,4.7097-.4595,2.0174-.3601,4.2818.7944,6.0725l1.2323,1.595c.9833.9767,2.1425,1.6523,3.4775,2.0267.1069.0373.2124.0782.3165.1225l-1.8825-.7944c.579.2574,1.1757.5622,1.6976.9221l-1.5613-1.2062c.1805.1545.328.3252.4736.5124l-1.2026-1.5566c.1664.236.3031.4755.4166.7408l-.7742-1.8347c.0776.2156.1321.4258.1676.6523l-.274-2.0395c.0211.2368.0172.46-.0107.6962l.2737-2.0371c-.043.2279-.1008.4433-.1881.6586l.7716-1.8284c-.0933.1952-.204.37-.3347.542l1.1956-1.5475c-.2481.2995-.5302.5547-.8369.793l1.5445-1.1933c-1,.7416-2.1393,1.2639-3.2799,1.7491.6039-.2548,1.2078-.5097,1.8117-.7645-5.0328,2.1226-9.9689,4.4563-14.9983,6.5846l1.7875-.7544c-2.787,1.1755-5.565,2.3429-8.2815,3.6735-2.1709,1.0633-4.2888,2.2652-6.4916,3.2592.6028-.2544,1.2057-.5088,1.8085-.7632-1.4597.6111-3.0253.7778-4.5446,1.1775-2.1571.5674-4.0174,1.7707-6.0409,2.6443l1.8221-.7689c-1.2943.5436-2.621.9221-3.9726,1.2929-1.2336.3384-2.4644.8089-3.7336.9884l2.116-.2843c-.4593.0524-.9098.0604-1.3695.0074l2.1346.2868c-.3323-.0515-.6459-.1334-.9597-.2553l1.9303.8146c-.2609-.1158-.4986-.2514-.7316-.4157l1.6441,1.2702c-.2933-.2295-.5414-.4846-.7713-.7779l1.2789,1.6554c-.1992-.2795-.3683-.5641-.5081-.8773l.8298,1.9662c-.0979-.2601-.1884-.5156-.2357-.7896l.2938,2.1863c-.0143-.1499-.0173-.2865-.0085-.4367l-.2932,2.1822c.026-.1912.07-.3659.1363-.5471l-.8255,1.9561c.1007-.2281.2231-.431.3708-.6314l-1.2763,1.652c.2765-.3421.5934-.6329.9372-.9061l-1.6426,1.269c1.2346-.9397,2.6239-1.6712,4.0464-2.2807l-1.8991.8014c1.8347-.7696,3.7399-1.3629,5.538-2.2213,1.2924-.6169,2.3825-1.5289,3.6038-2.2616,2.5784-1.5471,5.2137-3.0091,7.8242-4.5025,5.2933-3.0284,10.5716-6.0783,15.9548-8.946,3.0358-1.6172,6.1393-3.0271,9.3067-4.3671l-.8924.3766c.523-.2206,1.0467-.4395,1.5712-.6566.9148-.3787,1.6531-.7818,2.1737-1.6715.4562-.7796.6495-1.9286.3667-2.8027-.603-1.8633-2.5134-3.0971-4.4742-2.5404h0Z" style="stroke-width:0px;"/><path d="m578.8516,666.901c-1.7754-4.5286-3.251-9.1713-4.6051-13.8416-1.3403-4.6225-2.4081-9.346-3.9905-13.8953-.8577-2.4657-1.9449-4.8388-2.9359-7.2516.059.1436.4287,1.032.0726.1693-.0971-.2353-.1953-.4701-.2917-.7057-.1927-.4712-.3823-.9437-.5653-1.4188-.4357-1.131-.838-2.2747-1.178-3.4384-.6526-2.2329-1.1006-4.5023-1.4812-6.7946-.1668-1.0044.0029.1947.0356.3219-.0774-.3014-.0813-.6442-.117-.9541-.0584-.5079-.1105-1.0165-.1568-1.5257-.11-1.2075-.1872-2.4176-.2401-3.6289-.2223-5.0884-.3139-10.3351.3368-15.3936l-.2201,1.6377c1.5339-11.2687,6.3555-22.0312,5.2278-33.6036-.6121-6.2808-1.6104-12.6084-3.4898-18.6458-.8997-2.8901-2.0621-5.7378-3.4695-8.4175-1.1778-2.2427-2.7304-4.2306-3.9812-6.4206-.9661-1.6913-1.8171-3.1561-3.0598-4.7033-1.2347-1.5372-2.8895-2.7083-4.559-3.7422-2.5443-1.5755-5.3829-2.5723-7.7825-4.3986l1.76,1.3598c-1.9217-1.5397-3.6893-2.8344-5.9081-3.852-1.5363-.7046-3.0763-1.366-4.4646-2.3442.5997.4634,1.1995.9267,1.7992,1.3901-.4042-.3133-.7451-.6639-1.0657-1.0622l1.3947,1.8052c-.9816-1.2908-1.8209-2.7227-3.0138-3.8314-2.3123-2.149-5.3801-3.381-8.5569-3.2481,2.898,2.2064,5.796,4.4128,8.694,6.6192l-.0334-.2316.3222,2.398c-.0348-.4089-.0231-.8021.0233-1.2092l-.3231,2.4043c.1268-.8113.3778-1.5775.6899-2.335l-.9166,2.1719c1.3663-3.1366,3.5355-5.833,4.9826-8.9329,1.9332-4.141,3.6959-8.3599,5.6838-12.4755,1.9652-4.0688,4.1442-8.0403,6.2248-12.0511,2.0957-4.0399,4.2056-8.0735,6.4404-12.0387,1.2105-2.1478,2.458-4.275,3.7592-6.3692.6409-1.0316,1.3291-2.0253,1.8393-3.1298.7841-1.6974,1.3399-3.4342,2.0265-5.1614l-.93,2.2038c.3565-.8293.8027-1.6367,1.3526-2.3556l-1.4422,1.8667c.0899-.1043.1746-.1914.2811-.2782l-1.8666,1.4421c.0615-.0448.1275-.0816.1979-.1103l-2.2031.9297c.1216-.0415.2312-.0651.3586-.0836l-2.4517.3294c.9233-.0777,1.9095-.0766,2.8269.021l-2.451-.3293c1.4965.2257,2.9071.7627,4.3735,1.115,2.0775.4992,4.2419.586,6.357.8665-.8163-.1097-1.6327-.2194-2.449-.3291,2.4381.3432,4.8209.965,7.2214,1.4998,2.7611.6152,5.5289,1.1996,8.2911,1.8096,5.1907,1.1463,10.6138,2.1882,15.5464,4.216l-2.1939-.9258c2.2868.9763,4.3358,2.3288,6.3044,3.8369l-1.8575-1.4351c3.496,2.7523,6.5032,6.0195,10.075,8.6961,2.5738,1.9287,5.6057,3.1058,8.1609,5.0515-.6179-.4774-1.2359-.9548-1.8538-1.4322.8129.6467,1.5355,1.3612,2.1735,2.1817l-1.4318-1.8532c.7579,1.0373,1.2899,2.1634,1.81,3.3315.834,1.8733,1.8418,3.3275,3.1587,4.9529,1.6247,2.0052,3.8868,3.3546,5.4852,5.3843l-1.3904-1.7997c2.1828,2.9883,3.954,6.334,5.7652,9.5557,1.7705,3.1494,3.4304,6.3823,4.8425,9.7102l-.753-1.7843c1.1846,2.8405,2.1651,5.7535,2.8786,8.7489.3476,1.4593.6395,2.9308.8926,4.4092.2607,1.5224.7494,2.9853,1.1025,4.49.5302,2.2592,2.9824,4.1546,5.3194,4.05,2.424-.1086,4.6684-1.6333,5.3194-4.05.5307-1.9702.9994-3.9756,1.0455-6.0236.0367-1.6306-.0703-3.2703-.2452-4.8905-.4033-3.7364-1.0281-7.451-2.0079-11.081-.8442-3.1278-1.938-6.1928-2.9268-9.2763-1.1843-3.6934-2.6108-7.2689-4.5386-10.6426-1.1651-2.0389-2.5079-4.0055-4.16-5.6845-1.1455-1.1642-2.4091-2.1982-3.4498-3.464l1.4158,1.8325c-.6563-.856-1.1614-1.7694-1.5847-2.7592l.9201,2.1803c-.9048-2.2012-1.6891-4.4852-3.0857-6.433-1.7427-2.4305-3.4978-4.0757-5.9346-5.8299-2.4435-1.759-5.2657-2.8822-7.6731-4.7073l1.8555,1.4336c-2.6979-2.1044-4.996-4.6578-7.6402-6.8237-1.7777-1.4561-3.6299-2.9015-5.5896-4.1147-1.8164-1.1245-3.7874-1.9392-5.7688-2.7279-3.416-1.3598-7.0866-2.1886-10.655-3.0419-3.8258-.9148-7.6758-1.7227-11.5159-2.5743-2.0208-.4481-4.0305-.9571-6.0579-1.3736-2.5191-.5176-5.083-.7516-7.6324-1.0644l2.4497.3292c-1.8577-.306-3.6081-1.0331-5.4663-1.3406-2.4908-.4121-5.4298-.6731-7.9199.0064-3.0514.8327-5.1316,2.9411-6.7406,5.5427-1.2735,2.0593-1.8867,4.4273-2.8078,6.6464l.9303-2.2045c-.9512,2.1098-2.4266,4.0362-3.609,6.0263-1.1934,2.0086-2.345,4.042-3.4704,6.0894-2.2577,4.1074-4.4084,8.2721-6.5735,12.4286-2.228,4.2771-4.4954,8.5187-6.4949,12.9099-1.7966,3.9456-3.3775,8.0655-5.5081,11.8455-.9826,1.7432-2.0223,3.4511-2.8204,5.2905-.6247,1.4399-1.3187,2.891-1.6384,4.4387-.5375,2.6016-.5058,4.2873-.0289,6.8789l.9089,2.1537c.5666,1.0507,1.3406,1.8939,2.3222,2.5296,1.4783,1.1421,3.5359,2.092,5.4629,1.9358.2968-.024.5689-.03.8656-.0102l-2.3923-.3215c.248.0372.4638.0868.7012.1665-.7154-.3019-1.4309-.6038-2.1463-.9058.2725.1193.507.2591.7431.4399l-1.815-1.4023c.3336.2918.6134.6194.886.9681l-1.3983-1.8098c1.7562,2.2978,3.0761,4.0165,5.6196,5.5144,2.0562,1.2108,4.3604,1.969,6.5545,2.8889l-2.0975-.8852c2.0377.8766,3.6883,2.2314,5.6167,3.285,2.4029,1.3128,5.0112,2.3763,7.5304,3.4301l-2.0351-.8588c.9536.4547,1.8944.942,2.742,1.5769l-1.6963-1.3105c.5029.4172.9389.8733,1.3467,1.3839l-1.2974-1.6792c.6762.8981,1.239,1.8728,1.9032,2.7791,1.0691,1.4587,2.2476,2.8252,3.355,4.2527l-1.2518-1.6202c1.9909,2.6025,3.68,5.3759,4.9851,8.3845l-.7642-1.8108c2.2766,5.9555,3.8032,12.1648,4.6987,18.4768l-.2516-1.8721c.5002,3.854.3187,7.7147-.1905,11.5574l.2399-1.7855c-.8598,6.242-2.3607,12.3679-3.1249,18.6276-.7101,5.8173-.3234,11.7765.2329,17.5949.6414,6.709,1.9475,13.1752,4.6201,19.3806,1.185,2.7515,2.6021,5.3924,3.8508,8.1142.1328.2894.2599.5814.3922.8711.5375,1.1776-.3674-.9865.0963.2295.2852.748.569,1.4953.8399,2.2487.5582,1.5522,1.0972,3.1112,1.6279,4.673,2.2914,6.7427,4.3396,13.5785,7.1018,20.1501.4619,1.099.9328,1.9806,2.0058,2.6085.9356.5475,2.3144.7794,3.3632.44,2.0571-.6657,3.9407-3.0932,3.0485-5.3691h0Z" style="stroke-width:0px;"/><path d="m616.4365,38.2743c-15.2009-.3947-28.9122,8.311-40.6681,17.2606-11.2618,8.5734-16.777,19.7907-24.9561,30.9466-2.6249,3.5802-4.4766,7.6208-6.4736,11.6035-2.8082,5.6007-3.2542,13.9821-8.7161,17.3544-4.4852,2.7692-6.8839,5.0423-12.1268,4.9785-5.1394-.0625-9.4709.3491-14.4116,1.4321-12.1501,2.6632-19.4475,14.0926-13.0501,25.8294,6.0908,11.1742,16.8794,17.5048,25.5037,26.3101,5.4217,5.5355,12.1107,9.3512,18.1555,14.1627,5.4657,4.3506,11.114,9.0764,17.5761,11.9271,5.2152,2.3006,10.6766,3.8099,15.6117,6.8107,5.2844,3.2133,10.002,4.2988,15.8578,6.1264,4.8167,1.5033,9.5622,2.9317,14.3681,4.2824,5,1.4051,9.6301,4.4288,14.7346,5.4801,4.8192.9926,9.6678,2.3752,14.5541,2.9835,2.8093.3497,5.3083,1.2299,8.1788,1.3373,2.8934.1082,5.8229-.0333,8.7214-.0333,4.2576,0,8.4482.2685,12.4974-.709,2.1633-.5222,4.7232-.67,6.5944-1.9961,2.4766-1.7551,3.7063-5.7934,4.6775-8.5369,1.4849-4.1949,2.5685-9.3534,2.4847-13.8155-.119-6.337-3.0993-7.9299-6.3879-12.5358-2.1876-3.0638-4.9234-8.4429-5.9558-12.0037-1.0597-3.6551-1.3524-8.8438.1795-12.3729,3.9168-9.0235,11.9229-16.2616,15.7438-25.3459,2.1703-5.1599,5.3133-9.4958,6.8778-15.0015,1.3541-4.7654,2.508-9.8011,3.8873-14.4116,2.1892-7.3177,2.3278-15.6524.0361-22.9892-1.6596-5.3131-3.272-10.7776-5.4029-15.9633-2.5505-6.2068-6.4597-10.6266-10.0497-16.1323-3.3875-5.1952-8.5276-8.721-13.3244-12.6882-4.7953-3.966-10.2057-4.9649-15.8939-6.4519-5.1056-1.3347-10.2117-2.178-15.5372-2.1617-2.6191.008-5.5735-.3662-8.1189.1231-2.1048.4046-3.6484,1.1827-5.8736,1.3181-4.8442.2946-10.64,1.5049-14.8257,4.2541-4.3669,2.8682-8.2247,8.5665-13.2911,10.1575" style="fill:#45d88e; stroke-width:0px;"/><path d="m616.4365,34.334c-4.0321-.4388-8.0149-.1961-12.0169.4068-.3214.0484-1.0339.0298-1.2923.2125l.7003-.1-1.3537.1819c-.2645.0517-.5265.1383-.7919.1934-.9064.1881-1.8107.3782-2.709.603-1.7916.4484-3.5605.986-5.3031,1.5975-7.4824,2.6256-14.322,6.6675-20.9147,11.037-7.1585,4.7445-12.717,11.081-17.8213,17.9134-2.1764,2.9132-4.2338,5.9124-6.3198,8.8903-2.1787,3.11-4.594,6.0824-6.6661,9.2616-2.6314,4.0373-4.8486,8.4894-6.6515,12.9537-1.2588,3.1172-2.0242,6.4088-3.3309,9.5086l.8736-2.0701c-.5632,1.3006-1.2214,2.5478-2.0765,3.6817l1.3595-1.7596c-.55.6993-1.1589,1.3248-1.8579,1.8761l1.7632-1.3622c-1.1814.8823-2.4976,1.6185-3.7438,2.408-1.1564.7325-2.3278,1.4351-3.5826,1.9878l2.0947-.884c-1.1051.463-2.237.7758-3.4239.9411l2.3375-.3141c-2.1093.246-4.2577.0653-6.3783.148-2.8145.1098-5.6031.4546-8.389.8615-4.3252.6317-8.3842,1.7211-12.2761,3.7846-4.0236,2.1333-7.2649,5.2836-9.8748,8.9705-2.5694,3.6299-3.7479,7.9846-4.1,12.3627-.7433,9.2401,4.7188,17.6779,10.5673,24.2917,4.8973,5.5382,10.8441,9.987,16.2991,14.9384,1.5811,1.4351,3.0651,2.9612,4.6062,4.437,2.1449,2.0539,4.4907,3.8686,6.8463,5.6715,3.7232,2.8496,7.6497,5.4208,11.3637,8.2828l-1.8109-1.3991c4.9382,3.8365,9.7026,7.9561,15.0552,11.2197,5.409,3.2979,11.4736,5.1587,17.2813,7.5975l-2.1284-.8982c3.2939,1.4027,6.2543,3.3844,9.5033,4.8616,3.6833,1.6747,7.4474,2.9496,11.315,4.1075,3.6293,1.0866,7.2418,2.2281,10.8751,3.3018,3.6212,1.0702,7.2856,1.9712,10.7738,3.4361-.7055-.2977-1.4111-.5955-2.1166-.8932,2.5529,1.0852,5.0737,2.2464,7.6548,3.2652,2.0738.8186,4.1698,1.3342,6.3416,1.8109,2.2428.4923,4.4738,1.037,6.7183,1.5218,2.9539.6381,5.9123,1.066,8.9093,1.4602l-2.3475-.3154c3.4059.5005,6.7142,1.4446,10.1767,1.5972,3.0293.1335,6.0664-.0487,9.0969-.0431,2.9586.0054,5.9291.1308,8.878-.1774,1.9784-.2068,3.9292-.4927,5.8667-.9268,1.2839-.2877,2.595-.4594,3.8609-.8259,4.1679-1.2066,7.4637-3.7644,9.6977-7.487,1.415-2.3578,2.3133-5.0471,3.1765-7.6496.8192-2.47,1.5153-4.9629,1.9576-7.5302.5587-3.2432,1.0459-6.6281.8168-9.9333-.2508-3.6197-1.0585-7.1857-3.0894-10.2555-1.5819-2.3911-3.5845-4.4553-5.349-6.7035l1.2825,1.66c-2.3176-3.0021-4.1614-6.4068-5.6561-9.8851l.8092,1.9176c-.839-1.9921-1.4513-4.0118-1.7665-6.1539l.2832,2.1079c-.2498-1.8605-.3047-3.7163-.0766-5.582l-.2811,2.0917c.1627-1.1573.4285-2.2791.8738-3.3617l-.7914,1.8753c2.0335-4.6883,5.0579-8.8252,8.0301-12.9494,1.4973-2.0776,2.9898-4.1619,4.3482-6.334,1.6579-2.651,2.9301-5.4055,4.1396-8.2874l-.7759,1.8385c2.2148-5.1572,5.2672-9.895,7.0449-15.2516,1.708-5.1465,2.6657-10.5412,4.0429-15.7801,1.4559-5.5386,1.9767-11.4112,1.4815-17.1194-.2736-3.1534-.7574-6.3288-1.6731-9.3646-.7724-2.5606-1.5799-5.1136-2.4053-7.6576-1.8028-5.556-3.7677-11.1693-6.8529-16.1588-1.2946-2.0937-2.7329-4.0924-4.158-6.098-1.7626-2.4806-3.3942-5.0439-5.2917-7.4263-3.0438-3.8219-6.963-6.7567-10.7416-9.8011-2.3482-1.8919-4.6423-3.7961-7.3823-5.0953-2.5427-1.2057-5.1729-2.1588-7.8837-2.9003-6.2458-1.7084-12.5638-3.1898-19.0476-3.5944-2.8977-.1809-5.8788-.2826-8.7818-.2239-1.933.0391-3.905.2944-5.7737.7923-1.3071.3483-2.5804.7729-3.9258.9594.6178-.083,1.2355-.166,1.8533-.249-2.9986.3248-6.0005.5463-8.9522,1.2139-2.9376.6644-5.8371,1.7284-8.5015,3.1306-4.6202,2.4314-7.866,6.6063-11.9257,9.7658l1.4109-1.0901c-1.0438.7925-2.1344,1.4942-3.334,2.028l1.6653-.7028c-.3343.1393-.6703.2649-1.0143.3781-1.7191.5655-3.2366,1.6151-4.1663,3.2038-.8744,1.4943-1.2449,3.6966-.7028,5.3718,1.1164,3.4499,4.8663,6.0893,8.5756,4.8691,3.5535-1.169,6.4437-3.2257,9.217-5.6954,2.0305-1.8082,3.9004-3.7966,6.05-5.469l-1.4109,1.0901c1.3473-1.0214,2.8066-1.8369,4.3568-2.5081-.5551.2343-1.1102.4685-1.6653.7028,2.7403-1.1452,5.6319-1.8358,8.5689-2.2403-.6178.083-1.2355.166-1.8533.249,2.1613-.2811,4.3502-.324,6.4912-.7625,1.6458-.3371,3.213-.9529,4.8803-1.2013l-1.8533.249c2.3767-.2928,4.7616-.042,7.1454-.0189,2.5623.0248,5.0977.1611,7.6396.499-.6178-.083-1.2355-.166-1.8533-.249,3.3204.4625,6.5538,1.2443,9.7993,2.0668,2.8622.7254,5.7303,1.4391,8.4675,2.5646l-1.6653-.7028c1.8977.8048,3.6779,1.8047,5.3184,3.0554-.4703-.3634-.9406-.7267-1.4109-1.0901,4.4628,3.5153,9.2193,7.0195,12.7232,11.5403l-1.0925-1.4141c2.0616,2.7268,3.935,5.6407,5.8838,8.4524,1.9674,2.8386,3.779,5.7692,5.1397,8.952l-.7062-1.6735c1.5251,3.6683,2.7678,7.4464,3.9547,11.2352,1.152,3.6774,2.3743,7.3161,2.8911,11.149l-.251-1.8681c.3967,3.1582.3896,6.2759-.01,9.4328l.2555-1.9015c-.5854,4.3322-2.0459,8.3922-3.2695,12.5678-1.2363,4.2189-2.0866,8.6044-3.7949,12.6675l.7694-1.8233c-1.0599,2.4599-2.3618,4.7978-3.6071,7.1659-1.2095,2.3001-2.1681,4.7175-3.3841,7.0111-2.4258,4.5751-5.6838,8.6312-8.6989,12.8189-1.488,2.0667-2.9304,4.1721-4.1856,6.3901-1.4594,2.5786-2.8566,5.3549-3.3536,8.2944-.9984,5.9058-.3664,11.8447,1.931,17.3766,1.2676,3.0522,2.6272,6.0609,4.368,8.8775,1.5669,2.5352,3.5275,4.7914,5.3521,7.1396l-1.2931-1.6736c.7954,1.0376,1.5143,2.1136,2.0376,3.3158l-.8397-1.9897c.3913.9553.6417,1.9372.7905,2.9581l-.2992-2.2267c.268,2.1478.1182,4.3244-.1604,6.4634l.3027-2.2531c-.6221,4.4622-1.9744,8.7951-3.7158,12.9428l.8752-2.0739c-.5491,1.2739-1.1734,2.5041-2.0237,3.6058l1.3674-1.7699c-.3822.4665-.7889.8822-1.2628,1.256l1.7755-1.3717c-.475.342-.9784.6102-1.5137.846l2.0997-.8861c-1.1895.469-2.4314.7099-3.6836.9459-1.3779.2597-2.7335.5982-4.1249.7855l2.3394-.3143c-3.3778.4085-6.7755.2362-10.1682.2392-3.4114.003-6.8905.3017-10.2842-.1348.7819.1051,1.5637.2101,2.3456.3152-1.1863-.1717-2.3552-.425-3.5275-.6719-1.8579-.3913-3.7276-.6355-5.6114-.8796.7826.1052,1.5651.2103,2.3477.3155-3.504-.481-6.9414-1.308-10.3831-2.1069-3.2999-.766-6.4859-1.4629-9.6232-2.7774l2.1153.8927c-3.3328-1.4151-6.5997-3.0433-10.0486-4.1627-3.0452-.9883-6.1608-1.7848-9.2262-2.7117-3.0233-.9141-6.0334-1.8705-9.057-2.7835-2.6471-.7994-5.2908-1.6087-7.8476-2.6689l2.1251.8968c-3.3649-1.4253-6.377-3.4964-9.7123-4.9824-3.9857-1.7758-8.0989-3.2143-12.118-4.9045.7104.2998,1.4207.5995,2.1311.8993-4.786-2.0401-9.055-4.9379-13.1601-8.1048l1.8091,1.3977c-3.4825-2.6995-6.8656-5.5226-10.4202-8.1296-3.0038-2.203-6.0866-4.297-9.0368-6.5729l1.8142,1.4017c-2.7167-2.1127-5.116-4.4786-7.5911-6.8562-2.2318-2.1439-4.5767-4.1652-6.924-6.1806-4.7053-4.0398-9.4381-8.0993-13.2602-13.0175l1.4085,1.8231c-1.7325-2.2603-3.3293-4.6795-4.4609-7.301l.9091,2.1542c-.6347-1.5299-1.085-3.1095-1.3128-4.7511l.3223,2.3988c-.1757-1.4303-.1765-2.8591.0112-4.2881l-.3225,2.4001c.216-1.4644.6417-2.8381,1.1987-4.2059l-.91,2.1563c.5639-1.2686,1.2724-2.4504,2.1152-3.5531l-1.4071,1.8213c.987-1.254,2.1189-2.3632,3.379-3.3415l-1.8149,1.4022c1.4063-1.0627,2.9262-1.9345,4.5435-2.634l-2.1337.9004c3.0265-1.2653,6.3064-1.8443,9.5422-2.2831-.7857.1056-1.5714.2111-2.3571.3167,1.6633-.2154,3.3328-.3655,5.0083-.4439,1.7034-.0798,3.4205.0093,5.1196-.1182,4.1154-.3087,7.8387-1.5115,11.3432-3.7006,2.7528-1.7196,5.8782-3.4523,7.9743-5.9591,2.4884-2.976,4.0296-6.2024,5.2865-9.872.9298-2.7148,1.6075-5.5153,2.7072-8.1708l-.8664,2.0531c1.2966-3.0407,2.8464-6.0539,4.4366-8.9504,1.6615-3.0261,3.7488-5.7906,5.6368-8.6757,3.5309-5.3958,6.8642-10.9309,10.8088-16.0423l-1.236,1.5998c4.8413-6.2233,10.8066-11.3438,17.0165-16.1573l-1.4215,1.0982c1.4526-1.12,2.926-2.2126,4.4307-3.2617,1.8188-1.2681,3.9572-2.334,5.5717-3.8441l-1.2832.9914c1.7334-1.1539,3.507-2.2461,5.3366-3.2412.9017-.4905,1.816-.9578,2.743-1.3987.436-.2073.8747-.4089,1.3162-.6042.1694-.0749,1.041-.48.2731-.1216-.7747.3615.19-.0271.3049-.0686l1.2164-.5133-.6138.2473c.245-.04.5297-.1906.7691-.2735.4617-.1599.9257-.313,1.3922-.4583.9811-.3055,1.9727-.5773,2.973-.8123.9994-.2348,2.0058-.4185,3.0176-.5896.8146-.1378-.5279.0531.0178-.0087.275-.0312.5493-.0664.8246-.0951.5518-.0575,1.1047-.101,1.6584-.1373,2.0526-.1346,4.04-1.7159,3.9403-3.9403-.1042-2.326-1.7376-3.7006-3.9403-3.9403h0Z" style="fill:#45d88e; stroke-width:0px;"/><path d="m640.9362,48.3625c-.7198-3.7267,1.444-5.4965,2.5667-8.647.9009-2.5279,1.8148-5.6549,3.3093-7.8058.7513-1.0812,1.9111-1.3552,3.0632-2.1617,1.513-1.059,3.0475-3.5632,4.8056-4.266,1.7887-.715,5.7666-.4877,7.793-.2475,3.5618.4221,5.3286,1.3148,6.9185,4.2851,1.3217,2.4692,2.8578,6.3114,3.3135,9.0754,1.273,7.722-6.5032,18.723-12.8169,22.2739l-.2179-.9771" style="fill:#45d88e; stroke-width:0px;"/><path d="m644.5128,48.3625c-.053-.5956-.0499-1.1831.0254-1.7765l-.1335.9934c.0885-.5695.2428-1.1123.4584-1.6466l-.3923.9296c.5797-1.3528,1.4967-2.5126,2.2337-3.7777,1.0246-1.7588,1.7297-3.7131,2.5113-5.5842l-.4707,1.1154c.6265-1.4818,1.3173-2.9475,2.2847-4.2411l-.7637.9885c.1995-.246.4143-.4558.6628-.6512l-.9969.7702c.5567-.3972,1.181-.6613,1.7864-.9725.9111-.4683,1.7243-1.1078,2.4983-1.7747,1.0172-.8765,1.8697-1.925,2.9174-2.7682l-1.0588.818c.3529-.2714.7167-.5091,1.1235-.6919l-1.2588.5312c.4308-.1701.8766-.2617,1.3342-.3268l-1.4115.1897c2.0527-.258,4.1754-.0749,6.2183.1935l-1.4594-.1961c1.2141.1649,2.4294.3854,3.5679.8521l-1.3369-.5642c.5076.2194.9808.4867,1.4224.8201l-1.1423-.8825c.4425.3504.8262.7506,1.1723,1.1959l-.8901-1.1521c.9819,1.3403,1.6809,2.8412,2.3295,4.3657l-.5768-1.3668c.8924,2.1268,1.7161,4.3643,2.0311,6.6601l-.2056-1.5302c.1293,1.0564.1015,2.1147-.0336,3.1691l.2062-1.5344c-.2456,1.7682-.7791,3.4737-1.4717,5.1154l.5845-1.3851c-1.0656,2.4789-2.4819,4.7907-4.1276,6.9256l.9129-1.1816c-1.519,1.9495-3.2299,3.7594-5.184,5.2785l1.189-.9186c-1.0749.8234-2.12,1.6779-3.1847,2.512l8.8966,1.1464-.0861-.1706-.878-1.1365c-.5086-.5476-1.111-.9346-1.8071-1.1611-1.1157-.4709-2.4713-.6665-3.6562-.283-2.4091.7796-4.0479,2.8551-4.1225,5.4147l-.0057.1954c-.0519,1.7795.8644,3.3915,2.2323,4.4483,1.3094,1.0116,3.2977,1.6492,4.9381,1.0139,1.2415-.4808,2.4296-.9347,3.4834-1.7405,1.12-.8565,2.2148-1.7162,3.2272-2.6976,1.8193-1.7635,3.4151-3.775,4.8704-5.8435,1.2415-1.7646,2.3211-3.645,3.1789-5.6257.5865-1.3544,1.1663-2.7126,1.5762-4.1326.4009-1.389.6035-2.8044.772-4.2397.2765-2.3558-.0752-4.7627-.7281-7.0323-.7763-2.6985-1.8893-5.3492-3.1716-7.8434-1.1936-2.3217-2.9494-4.5487-5.3302-5.7415-2.5025-1.2538-5.1558-1.6318-7.9296-1.7809-1.1588-.0623-2.3233-.0773-3.4823-.0123-1.444.081-2.9812.1814-4.3544.6653-1.8647.6572-3.4108,1.7749-4.7334,3.2315-.8061.8878-1.5263,1.8875-2.4703,2.6376l1.0225-.79c-.5231.3893-1.0911.7004-1.6383,1.0523-1.1975.7702-2.0376,1.5636-2.8699,2.6963-.9724,1.3234-1.5799,2.9799-2.1374,4.5038-.8957,2.4487-1.3153,5.0267-2.3265,7.433l.4194-.9939c-.5394,1.2782-1.1813,2.576-1.4484,3.9497-.3476,1.7877-.3219,3.5226.1629,5.2864.4731,1.7216,2.1853,2.7956,3.9243,2.5619,1.6261-.2185,3.2592-1.7364,3.1012-3.5127h0Z" style="fill:#45d88e; stroke-width:0px;"/><path d="m572.339,733.3761c5.3407-1.8327,10.6866-2.9268,15.8685-5.1632,5.2548-2.2679,10.6864-4.2397,15.8431-6.7224,7.5862-3.6524,14.0319-8.9034,20.2833-14.4665,5.8956-5.2466,12.2639-9.2893,17.8204-14.9094,7.2804-7.3639,14.52-15.2953,22.293-22.0667,3.7146-3.2359,8.0895-5.7472,11.4931-9.3725,2.9791-3.1731,5.4408-6.8937,8.0532-10.3956,2.2707-3.0438,4.285-6.2288,6.4245-9.3679,2.3121-3.3924,5.4439-5.8571,7.8824-9.0836,1.7268-2.2848,3.0053-4.1201,4.8188-6.1657,1.4278-1.6105.9308-3.0931,3.8995-2.5646,1.9665.3501,4.2003,3.7794,5.3689,4.9599,8.5844,8.6725,16.6123,17.7521,23.2495,28.0431,3.2565,5.0492,5.4612,10.6734,8.3976,15.8986,2.0608,3.6672,3.3553,6.8587,4.8419,10.784,1.4193,3.7477,3.8931,6.8578,5.5516,10.4996,6.2577,13.741,10.8765,27.2341,12.9785,42.1809,2.6546,18.8756,3.4848,37.7379,3.6036,56.756.1226,19.6082-2.4491,39.8425-9.3561,58.3017-3.7213,9.9455-8.9582,19.629-14.6303,28.5907-7.5348,11.9048-15.489,23.6484-24.0811,34.8165-10.4182,13.5417-24.0739,26.3417-38.6258,35.3222-5.0335,3.1064-9.52,7.4926-14.7987,10.0606-2.6385,1.2836-5.524,2.3908-8.2195,3.6015-4.9109,2.2059-9.7939,2.6863-14.9908,3.8024-13.5632,2.9127-26.2051,7.7474-40.3056,8.2083-6.1244.2002-12.3119-.0581-18.4397-.0625-6.5541-.0047-12.6777-.843-19.1442-1.3699-8.7135-.71-17.5295-.7809-25.9616-3.502-3.308-1.0675-6.382-2.3267-9.3561-4.1537-3.2772-2.0133-5.4471-5.1059-8.7993-6.91-5.8866-3.1681-11.2451-7.3137-16.5892-11.3634-5.4349-4.1185-12.4692-5.7147-15.4044-12.4889,5.0622,2.6742,8.9228,4.4507,14.8592,3.1465,2.6051-.5723,4.3187-.9428,7.0783-.9749,3.0406-.0354,5.7094-1.217,8.7231-1.4,6.2708-.3807,12.433.8282,18.5298-.8799,6.637-1.8594,11.6929-4.4324,16.6192-9.4395,3.7802-3.8423,7.2208-8.5808,10.3564-12.9831,2.6753-3.7561,5.1583-8.5029,3.6641-13.302-1.8025-5.7889-8.8355-6.1863-12.7452-9.9796-5.3587-5.199-7.8624-11.007-7.8524-18.4238.0079-5.8093,1.4304-11.9689,6.5632-15.5845,5.8981-4.1547,12.3473-5.1177,19.3789-5.014,4.8085.0709,10.4338-2.2297,14.7494-4.2033,4.6712-2.1362,8.2927-6.5906,9.9785-11.3428,2.0208-5.6967,1.8918-9.5241-3.524-13.0917-4.7448-3.1256-9.8766-4.2269-15.4737-3.8834-4.0429.2481-7.9363,2.2092-12.1677,1.4094-1.8658-.3527-4.0584-1.4809-5.5792-2.6012-3.2671-2.4067-1.7779-3.4421-2.1621-7.0878-.2322-2.2037-1.6542-3.9484-1.4786-6.2421.1977-2.5825,2.3429-5.1648,3.4988-7.4374,2.8451-5.5934,5.1846-11.6419,6.8681-17.7121,1.5762-5.6833,1.3064-9.1277.2553-14.8092-.9796-5.2951-.4736-9.1515-4.1007-13.5955.0721,1.0684.1045,2.138.0971,3.209" style="stroke-width:0px;"/><path d="m573.2254,736.5911c3.2219-.8827,6.494-1.5499,9.7376-2.3442,3.2408-.7937,6.3331-1.9117,9.4891-2.9753,6.2712-2.1135,12.6606-4.5274,18.4556-7.7475,5.6282-3.1274,10.7551-7.1018,15.6956-11.208,4.8501-4.0311,9.6717-7.399,14.8603-11.5281,5.0571-4.0243,9.5151-8.755,14.1314-13.264,2.3501-2.2955,4.7157-4.5755,7.1313-6.8023,1.1999-1.1061,2.4116-2.1994,3.64-3.2737.57-.4985,1.1436-.9928,1.721-1.4826.2467-.2093.4937-.4184.7421-.6257-.049.0409,1.4219-1.1816.7207-.6104-.6593.537.3152-.2362.4741-.3538.2378-.1759.4766-.3503.7163-.5236.6405-.4631,1.2879-.9164,1.934-1.3716,1.6316-1.1497,3.2349-2.3234,4.8106-3.5497,2.4259-1.888,4.5317-4.0081,6.5248-6.3444,4.4947-5.2688,8.6233-10.8578,12.7156-16.4393.1986-.2709.4012-.5392.5977-.8117.7198-.998-.9468,1.0276-.139.2084.4912-.4982.9309-1.0527,1.4185-1.5568,1.1098-1.1477,2.2862-2.2281,3.418-3.3535,2.1355-2.1233,3.8814-4.5516,5.8343-6.8366,1.1895-1.3919,2.5278-2.6751,3.5449-4.208.0652-.0983.6986-1.0057.6576-1.1152.2701.7214-2.7314,2.3779-2.7226,2.3727-1.5538.9138-2.9284,1.5297-4.737,1.0334-.0469-.0129-2.217-1.2269-1.1882-.4902.0506.0363-1.5394-1.4646-1.0247-.7835.3112.4118.7743.7635,1.1192,1.1591.741.85,1.3879,1.7774,2.1278,2.6277,4.0584,4.6644,8.3924,9.0787,12.3708,13.8199,1.009,1.2024,2.0016,2.4186,2.9759,3.6494.1935.2444.3762.507.5828.7403-1.5016-1.6954-.6735-.8826-.341-.4398.5033.6702,1.01,1.3377,1.5061,2.0132,1.8689,2.5448,3.6931,5.1444,5.3293,7.8462,1.7204,2.8409,3.1551,5.8407,4.6094,8.8228,1.4072,2.8854,2.9923,5.6733,4.4192,8.5462.3169.638.6223,1.2816.9165,1.9304.1641.3619.3047.7527.4876,1.103.0211.0404-.7719-1.8979-.3841-.9023.7191,1.8464,1.4234,3.7033,2.1938,5.5287,1.2908,3.0587,2.9755,5.8151,4.5789,8.7104.6964,1.2575,1.2953,2.5533,1.8793,3.8659.3483.7827.6922,1.5673,1.0315,2.354.1265.2932.2435.5929.3785.8822-1.0694-2.2918-.3321-.7863-.1108-.2508,1.205,2.916,2.3407,5.8608,3.389,8.8368,2.0843,5.917,3.8174,11.9588,5.0971,18.1016.3243,1.5569.6203,3.1197.8865,4.6877.1253.7382.2437,1.4776.356,2.2179.0937.6183.4102,3.903.1642,1.0794.3013,3.457.8491,6.9027,1.1914,10.3585.6831,6.8971,1.1564,13.8141,1.4721,20.7375.611,13.3984,1.0299,26.9225-.0118,40.3085-.2511,3.2273-.5918,6.446-1.0114,9.6557l.3513-2.6146c-1.0349,7.6903-2.5616,15.3121-4.7374,22.7636-1.0539,3.6092-2.2563,7.177-3.6253,10.6791-.198.5066-.4055,1.0094-.6042,1.5156-.2503.6377-.2743,1.5226.2383-.5403-.2037.8196-.7055,1.6331-1.0525,2.4042-.8559,1.9021-1.7559,3.7842-2.6939,5.6471-7.0674,14.0366-16.1057,27.2167-25.2413,39.9741-2.2826,3.1875-4.6261,6.3277-6.9885,9.4562-1.3617,1.8033,1.0356-1.3107.1718-.217-.2503.3169-.498.6359-.749.9523-.5678.7158-1.1421,1.4265-1.7228,2.1319-1.1729,1.4247-2.3723,2.8278-3.5964,4.2088-4.9734,5.6108-10.3472,10.8716-16.0815,15.7028-1.2727,1.0723-2.5695,2.1131-3.8711,3.15-1.3484,1.0742.3775-.3688.5272-.4042-.3745.0885-.9143.693-1.2365.9335-.8245.6155-1.6558,1.2217-2.4942,1.8182-2.8857,2.0531-5.9324,3.8493-8.8455,5.8563-2.9682,2.045-5.7364,4.3665-8.7338,6.3703-1.3996.9357-2.847,1.7882-4.3647,2.5182-.863.4151-1.7389.8027-2.6176,1.1834-.3946.171-.7943.3322-1.187.5072,3.0263-1.3479-1.1881.5001-1.7847.7539-.3941.1677-.7885.3348-1.1814.5052-.2927.1261-.5846.2541-.8756.3841-.6834.3013-.3846.1773.8963-.372-.0703-.0754-2.731.9375-2.9481,1.0004-1.9584.5678-3.9597.9682-5.9615,1.3479-4.1836.7935-8.3268,1.6926-12.4528,2.7488-8.2762,2.1186-16.4895,4.5235-24.9668,5.7211l2.6363-.3542c-5.0851.6796-10.1778.7852-15.3019.7383-5.1963-.0475-10.4236.0103-15.6129-.2655-5.0515-.2684-10.0747-.8979-15.1162-1.2943-5.0152-.3943-10.0424-.6189-15.0363-1.2514l2.642.355c-3.4996-.4707-6.8823-1.2231-10.2751-2.1912-1.3542-.3864-2.7047-.7681-4.0329-1.2385-.374-.1322-.7461-.2696-1.1162-.4123-.9511-.3802-.7394-.2856.6353.2838-.306-.4657-4.1759-1.8001-3.9083-1.7292,2.4298.6433.4401-.0211-.2767-.5044-.3084-.2097-.6117-.4265-.9099-.6505,1.1261.8784,1.3081,1.0138.5459.4062-1.4532-1.1942-2.9176-2.3892-4.4402-3.4926-2.5631-1.8575-5.5656-3.0301-8.3039-4.6091-5.3107-3.0622-9.8322-7.2525-15.1364-10.2965-2.0698-1.1878-4.211-2.2647-6.1795-3.6209-.2576-.1768-.5116-.3586-.7621-.5455,1.0111.7955,1.1916.924.5413.3854-.4488-.4331-.8941-.8772-1.3455-1.3068-.5472-.639-.4299-.4633.352.5271-.1935-.2617-.3771-.53-.5511-.8051-.3642-.5762-.6684-1.1782-.9536-1.7963-3.6685,3.6685-7.3371,7.3371-11.0056,11.0056,2.8793,1.4973,5.8759,3.0332,9.0331,3.8404,3.8038.9726,7.5446.9013,11.3772.1763,1.2881-.2437,2.5611-.5587,3.8511-.7961.2375-.0437,1.1471-.2029-.0319-.0032-1.2477.2113-.0414.0301.2811.0076.8164-.057,1.6359-.0475,2.4511-.1199,1.964-.1743,3.8975-.5227,5.8161-.9629.1826-.0419,1.9693-.6234,2.1466-.462-.1376-.1252-1.453.0769-.2039.0391.5591-.0169,1.1175-.0591,1.677-.074,6.9905-.1864,13.7508.5254,20.5372-1.7179,6.0029-1.9843,11.4813-4.8944,16.1682-9.1735,4.829-4.4088,8.596-10.0367,12.2193-15.4394,3.8471-5.7364,7.2049-12.8045,4.7641-19.8013-1.1645-3.3381-3.0364-5.8246-5.8535-7.9181-1.6705-1.2414-3.5334-2.1027-5.3834-3.0363-.9649-.4869-1.8784-1.0304-2.8024-1.5876-.9319-.5619.914.9145-.175-.1605-.5064-.4999-1.0101-.9998-1.4892-1.5265-.418-.4595-.8174-.9329-1.2092-1.4147.7995.9833-.0866-.1631-.3492-.5604-.3234-.4894-.6306-.9896-.9171-1.5017-.1618-.2891-.3179-.5824-.467-.8783-.0865-.1717-.6771-1.4559-.2918-.5727.3351.7682.0053-.0006-.0432-.1399-.1087-.312-.2241-.6208-.3256-.9352-.179-.5543-.336-1.1153-.473-1.6814-.1395-.5763-.242-1.1581-.355-1.7397-.1729-.8898-.2459-.0878.0244.1903-.1251-.1288-.0781-.8679-.0906-1.0546-.088-1.3069-.0878-2.6207-.0137-3.9282.0096-.1689.0789-1.7464.1496-1.754.0404-.0044-.2268,1.2749-.0567.4932.0888-.4079.146-.8233.2366-1.2315.1263-.5689.2755-1.1324.4488-1.6888.0985-.316.2273-.6245.3203-.9413.224-.7635-.1647.4595-.1911.4188-.0937-.1443.6923-1.3492.8023-1.534.1691-.2839.3718-.55.5363-.8352.4195-.7272-1.0054,1.044.0568-.049.4185-.4306.859-.8309,1.286-1.2515.51-.5025-.2068.1673-.2863.2166.3455-.2141.6741-.4607,1.0182-.6784.5882-.3722,1.1918-.7192,1.8082-1.0423.3447-.1807.708-.3313,1.048-.5189.8568-.4729-.8996.2944.0177-.0141,1.3558-.4559,2.6847-.9161,4.0863-1.2219.6504-.1419,1.3064-.2436,1.9609-.3624.769-.1396-.2477.039-.3374.046.4798-.0376.958-.098,1.4381-.1349,3.3359-.2564,6.6081-.062,9.9286-.6046,2.9136-.4761,5.7169-1.4301,8.4449-2.5397,3.3802-1.3748,6.4399-2.7451,9.3206-5.0092,8.8772-6.9771,14.7611-22.9449,4.4359-31.2557-5.5417-4.4605-11.9003-6.9186-19.0091-7.3428-1.397-.0833-2.7899-.0681-4.1814.0828-1.1791.1278-2.3756.2516-3.538.4948l-.3034.0507c1.1854-.1321,1.1221-.1151-.19.0508-.7595.1021-1.4901.2293-2.2381.3863-.2377.0499-1.1558.0578-.1776.0526,1.1011-.0059-.2065.0105-.4857.0282-.6591.0417-1.5337.1827-2.1642-.0222.0569.0185,1.3074.3459.5972.0226-.3174-.1445-.7074-.2267-1.0455-.3271-.8664-.2573.5995.18.5867.2376.0107-.0483-1.1385-.6198-1.2807-.7019-.3254-.1878-.6281-.426-.9578-.6017-.7423-.3957.5064.3785.5532.4592.0309.0534-.6169-.6239-.6841-.6333.1144.0161,1.0893,1.7206.6196.7734-.1202-.2425.8074,2.0032.5539,1.2458-.2872-.8582.0457,2.1987.1932,1.3008.0682-.4148.0421-.8967.0666-1.3162.1778-3.04-.5122-5.838-1.4624-8.6864-.4344-1.302.0549.3521.0516.6106l-.1023.5635c-.1424.7347-.137.7512.0162.0496-.0138.009.5884-1.3566-.0477-.028-.5417,1.1315.0321.0011.1817-.2698.6814-1.2336,1.4848-2.3971,2.1667-3.6305,1.8006-3.2568,3.2359-6.764,4.6245-10.2083,2.4611-6.1046,4.7374-12.6813,4.8298-19.3306.0476-3.4242-.6086-6.843-1.1812-10.2052-.0473-.2775-.0902-.5556-.1367-.8332-.249-1.485.0813.4923.0833.6605-.0068-.5836-.1445-1.1894-.2182-1.7699-.2271-1.7879-.4111-3.6048-.814-5.3658-.8581-3.7509-2.7824-6.8014-5.1152-9.7856-2.0644-2.6408-6.5356-2.9425-9.3255-1.7651-2.9658,1.2516-5.4391,4.4261-5.2477,7.8016.0607,1.0704.0858,2.1371.0864,3.209.0025,4.4709,3.9297,8.7543,8.5475,8.5475,4.6289-.2073,8.5501-3.7557,8.5475-8.5475-.0006-1.0719-.04-2.1394-.1078-3.209l-14.5732,6.0364c-.1558-.1966-1.0081-1.5314-.2994-.32.1366.2335.2863.4582.4207.6932.1297.227.2447.4606.3711.6893.6803,1.2309-.2544-.4834-.2692-.6633.0921,1.1175.678,2.348.8639,3.4858.3146,1.9258-.1888-1.5709.0048-.0591.1402,1.0946.2865,2.1884.4363,3.2817.1968,1.4364.4637,2.8569.7082,4.2855.0678.3962.1223.7951.1932,1.1907.1718.9581-.1263-.8201-.1088-.8349-.155.1311.1503,1.5835.1677,1.8933.0347.6152.0505,1.2315.0386,1.8476-.0072.3708-.3184,1.9562-.1386,2.1379-.0341-.0345.3128-1.781.1056-.8529-.0859.385-.1393.7788-.22,1.1656-.1533.7339-.3344,1.4608-.5297,2.1846-.3979,1.4747-.8431,2.9378-1.3169,4.3898-.4766,1.4604-.9884,2.9094-1.5335,4.3457-.2727.7184-.5686,1.4277-.8445,2.1446-.3454.8973.1913-.423.2136-.488-.1744.5084-.4384,1.0118-.6589,1.5038-1.1979,2.6733-2.7049,5.1122-4.0438,7.7015-1.9887,3.8459-2.979,7.8613-1.7579,12.1396.0779.2728,1.1192,3.5319,1.1937,3.5383-.1338-.0117-.0551-1.7108-.1404-.9016-.03.2844.0241.5931.0239.8817-.0003.4894-.0392.9771-.0474,1.4662-.1235,7.4007,6.521,12.6341,13.2691,14.1665,3.9202.8902,7.9031.4214,11.7524-.5905.6919-.1819,1.375-.395,2.0704-.5689.2544-.0636,1.5906-.5446,1.7813-.3945-.2219-.1747-1.3369.112-.2053.0372.2968-.0196.5928-.0464.8898-.0639.7779-.0458,1.5565-.0624,2.3356-.0451.1245.0028,1.9282-.0431,1.9991.1188-.0019-.0043-1.8027-.3271-.2281-.0297.2799.0529.5598.1025.8388.1605.6498.1352,1.2945.2955,1.9302.4865.4499.1352,2.3549.8805,1.0358.2949,1.0637.4722,2.7793,1.0759,3.5492,1.9997-.0154-.0185-.8808-.8153-.3935-.2654.1534.1731.352.3207.5155.4859-.0587-.0593.6098.6487.5973.6585-.1328.1034-.7833-1.3163-.3391-.3572.0224.0484.28.6291.3685.6961-.0927-.0702-.3937-1.3161-.3429-.7198.0194.2273.1028.5258.1833.7404.2257.6018-.1563-.7774-.1169-.8405-.1203.1924-.0491,1.1386-.0164,1.4091.0818.6772-.0069-.6934.1106-.7373-.0492.0184-.1966.9763-.228,1.1091-.1306.5521-.2868,1.098-.4578,1.6389-.0816.258-.6633,1.9864-.3703,1.1605.2795-.7877-.0096.0233-.0803.1644-.1593.3179-.3104.6371-.4783.9512-.3369.63-.7063,1.2442-1.1048,1.8371-.3196.4755-1.0212,1.1729-.241.3646-.4366.4523-.8265.9453-1.2734,1.3899-.4457.4434-.9145.854-1.3934,1.26,1.0646-.9025-.4096.2306-.8316.4793-1.1121.6554-2.311,1.142-3.4856,1.6706,1.1265-.507-.5479.2187-.9037.3566-.7652.2965-1.5363.577-2.3155.8347-1.2559.4152-2.5319.7773-3.8294,1.038-.3848.0773-.779.1549-1.1692.2066.1253-.0166,1.0686-.049.3257-.0748-.7586-.0263-1.5459.0446-2.309.0464-3.2076.0076-6.4243.2993-9.5783.8902-5.7419,1.0757-12.1642,3.8585-16.0313,8.3815-3.9916,4.6687-5.6618,10.4024-5.9277,16.4671-.4758,10.849,4.6545,22.651,14.5718,27.8952,1.8434.9748,3.716,1.8486,5.52,2.8968,1.2131.7048-.541-.6522.1742.1233.1363.1478.2935.2922.4394.4305.6142.582.0485.3686.1578.1404.0389-.0811-.4313-.5729-.0308.0405.5473.8381-.3117-.2577-.0843-.3502.0383-.0156.2039.7357.2062.7417.2901.7802.0518-1.1457.0357.3757-.0056.5244-.2347,1.6854.0372.5986-.1667.6663-.3901,1.3294-.5495,1.9945-.2303.9606.4723-.8129-.0122.0513-.1456.2597-.2631.5394-.403.8028-.3751.7058-.7918,1.3904-1.2321,2.0572-.781,1.1829-1.6562,2.2993-2.517,3.4243-.1349.1763-.818,1.0411-.0751.0977-.1981.2516-.3943.5046-.5923.7562-.531.6746-1.0668,1.3454-1.6098,2.0104-1.951,2.3896-3.9928,4.7074-6.2197,6.8447-.8849.8493-1.8102,1.6349-2.7406,2.4323-.7937.6803,1.0986-.7616.2412-.1939-.2198.1455-.4292.3097-.6461.4598-.5718.3956-1.1577.7715-1.7545,1.1284-1.0404.6222-2.118,1.1507-3.2081,1.6776-1.2309.595,1.4616-.5546-.3465.1327-.6685.2541-1.3435.4896-2.0238.71-1.1865.3843-2.3892.7434-3.6057,1.0207-.276.0629-.9833.2945-1.3144.2605.0745.0076,1.3687-.142.4349-.0513-.8762.0852-1.7492.1581-2.6293.1899-3.2075.1161-6.4118-.1496-9.6188-.1508-3.5193-.0013-6.9377.5725-10.3615,1.3433-1.7063.3841.2315.0169.2399.0078-.0954.1035-.8162.0561-.9594.0623-.6971.0302-1.3938.0274-2.0903.0768-1.8347.1301-3.6756.4035-5.4809.7538-.6504.1262-1.3054.2484-1.9489.4055-.3646.089-1.0653-.0254-.1755.0737,1.0654.1186-.0811.0035-.4193.0251-.6513.0417-1.2915.0191-1.943.0085-.249-.004-1.1819-.1379.0078.0326,1.3783.1976-.3131-.0922-.4776-.1308-.5053-.1185-1.0056-.2627-1.4986-.4247-.2385-.0784-2.2005-.8014-1.0231-.3615,1.1776.4401-.7584-.3892-1.0515-.5357-.706-.3529-1.403-.7237-2.0998-1.0945-3.0534-1.6249-7.2846-1.4255-9.7478,1.2578-2.6047,2.8375-2.7924,6.3378-1.2578,9.7478,2.4618,5.4702,7.4493,8.9935,12.5009,11.8668,2.1619,1.2297,4.2752,2.4759,6.2564,3.9856,1.2075.9202,2.4093,1.8478,3.6209,2.7625.6929.5231,1.3879,1.0436,2.087,1.5585.262.193.5238.3866.7879.5766.808.5814-1.0678-.8757.1265.1108,2.8894,2.3866,5.9863,4.4835,9.1225,6.5225.2649.1722.6721.5329.9408.6318-.0392-.0144-1.3443-1.1693-.7112-.5193.4475.4594.9589.8685,1.4173,1.3203,1.0583,1.0432,2.0615,2.1438,3.1704,3.135,5.4088,4.8348,12.5423,8.1315,19.5923,9.6927,7.0653,1.5646,14.3313,1.9437,21.528,2.4506,6.5818.4636,13.1389,1.3685,19.7398,1.5332,6.8004.1697,13.6614.3199,20.4607.0824,7.1117-.2484,14.2102-1.4612,21.1261-3.0955,6.2451-1.4758,12.4051-3.2877,18.6498-4.765,6.7775-1.6033,13.4883-2.4674,19.928-5.2647,2.9356-1.2752,5.935-2.4463,8.807-3.861,2.6759-1.3181,5.1083-3.0481,7.4897-4.8311,4.7726-3.5732,9.8267-6.6733,14.6614-10.152,10.6417-7.6569,20.3872-16.5041,28.8599-26.515,8.9093-10.5268,16.8104-22.0007,24.3734-33.5183,7.6418-11.6377,14.6581-23.449,19.943-36.363,5.1702-12.6338,7.9679-25.9787,9.6217-39.4882,1.614-13.1845,1.5093-26.4461,1.108-39.7-.4363-14.4074-1.6097-28.7557-3.5797-43.0342-1.738-12.5971-5.2936-24.7583-10.1729-36.4885-1.4518-3.4902-2.8619-7.0582-4.5791-10.4313-1.3465-2.6451-3.0022-5.1156-4.3432-7.7655-.801-1.5829.3283.6301.2639.6541.0008-.0003-.5027-1.3089-.4667-1.2159-.2637-.6803-.5312-1.3592-.8061-2.0352-.8064-1.9824-1.6281-3.9672-2.5387-5.9052-1.3532-2.8801-2.9891-5.6166-4.4093-8.4642-2.8792-5.773-5.827-11.2954-9.6039-16.5447-4.0204-5.5877-8.3733-10.9438-12.9885-16.0501-2.107-2.3312-4.3538-4.5444-6.5955-6.7465-1.6901-1.6603-3.1814-3.5479-4.9116-5.1561-3.4913-3.2451-8.1911-5.1161-12.9692-3.782-2.6762.7472-4.7697,2.5137-6.2708,4.7937-.2225.3379-.4112.6977-.6107,1.0495-.0896.158-.2055.3033-.2766.4717-.2971.7028,1.3086-1.6523.2904-.3594-1.1926,1.5143-2.3559,3.0475-3.462,4.6259-.4651.6637-.9226,1.3326-1.3883,1.9958-.1817.2588-.3705.5139-.549.7749-.3761.5181-.2333.3274.4284-.5719l-1.3555,1.7544c.126-.2181,1.2254-1.466.2221-.3483-.2001.2229-.3924.4536-.5894.6794-.4599.5269-.9255,1.0487-1.3844,1.5765-1.385,1.593-2.7288,3.245-3.9377,4.9753-1.8845,2.6973-3.4496,5.6248-5.2274,8.3936-1.7176,2.6751-3.5024,5.3211-5.3055,7.9394-.4135.6004-.8326,1.197-1.2619,1.7863-.1254.1722-.9467,1.1911-.3731.4939.5335-.6485-.1362.1578-.2038.2363-1.0506,1.2204-2.1459,2.376-3.3485,3.449-2.2116,1.9732-4.6319,3.6924-6.9127,5.5817-4.9488,4.0995-9.3655,8.9026-13.738,13.5971-4.4104,4.7353-8.615,9.7485-13.4012,14.113-4.6209,4.2137-9.6586,7.9355-14.2409,12.1957-4.4515,4.1385-8.6438,7.8094-13.6295,10.9819-5.4864,3.4911-11.5546,5.686-17.3604,8.5353-2.6706,1.3106-5.3139,2.6054-8.1042,3.6451-3.1386,1.1694-6.3202,2.2161-9.4271,3.4706-1.6686.6737-2.8451,2.2222-2.3287,4.1014.4793,1.7441,2.3586,2.8061,4.1014,2.3287h0Z" style="stroke-width:0px;"/><path d="m490.825,931.7379c-1.8226-1.8098-3.8897-3.4203-5.4545-5.4443-.7556-.9774-1.5209-1.9471-2.2824-2.9199-.9603-1.2268-2.1257-2.2072-3.2731-3.2588-1.9216-1.7612-3.8249-3.5438-5.6559-5.3997-1.5938-1.6155-3.642-3.901-4.7344-5.2953-3.0617-3.9076-5.6172-8.2058-8.2278-12.4181-2.5964-4.1894-5.3272-8.2833-8.0025-12.4216-2.8047-4.3385-5.4954-8.7704-7.7084-13.4446-.2588-.5465-.5082-1.0972-.7554-1.649-.0148-.033-.4022-.9456-.158-.3575.2434.5862-.1262-.3241-.1396-.3586-.4995-1.2901-.974-2.5872-1.3807-3.91-.7461-2.4266-1.4125-4.8875-2.1034-7.331-.3391-1.1991-.6591-2.404-.9196-3.6228-.0648-.3032-.1205-.6082-.1847-.9115-.0172-.0811-.2071-1.0931-.0768-.3282.1284.7539-.0273-.2329-.035-.3267-.0422-.5119-.0749-1.0211-.0946-1.5342-.1023-2.6659-.0213-5.338.095-8.0021.1169-2.6768.2828-5.3513.3801-8.0289.0475-1.3077.0684-2.6164.1306-3.9236.0263-.5525.0577-1.105.0979-1.6567.0193-.2654.0615-.5381.0649-.804.0424-.4168.027-.3551-.0463.1853-.1166.7757-.0962.6011.0614-.5238.2878-2.1422.0644-.4846-.0106-.0517.0436-.2519.076-.506.1177-.7583.0833-.503.1777-1.0038.2848-1.5023.2359-1.0984.532-2.1836.8893-3.2488.0437-.1304.5655-1.5261.5584-1.5297.0177.009-.5939,1.311-.2124.496.1233-.2635.238-.5311.362-.7943.4332-.9197,1.2933-1.906,1.622-2.8405-.0102.0289-1.0799,1.2007-.5301.7127.1562-.1387.288-.3315.4307-.4852.2994-.3226.6129-.633.9365-.9313.3296-.3039.6987-.5685,1.0236-.8756.0315-.0297-1.3479.9816-.6564.5332.2551-.1655.4959-.3568.7491-.5261.7664-.5127,1.5662-.9735,2.3938-1.3801.1981-.0973.4416-.1745.6251-.2957.0308-.0204-1.5802.5953-.7947.3423.5776-.1861,1.1405-.409,1.7268-.5714.4329-.12.8699-.2103,1.3071-.3114.2001-.0463.4654-.0392.6537-.1174-.0039.0016-1.7511.1067-.9818.148.4204.0226.8615-.0542,1.2856-.0506.2106.0017.4236.0223.6338.0184,1.0678-.0198-.5952-.0411-.8262-.1426.3482.1529.8255.1604,1.1974.2672.187.0537.388.1533.5782.187.6704.1189-.7568-.3126-.7914-.3435.7782.6956,2.1524,1.0957,3.0546,1.6758.4525.291,1.0219.8743,1.5148,1.0476-.0212-.0075-1.1797-.97-.5433-.4142.1965.1716.4049.3312.6038.5002.864.7341,1.6905,1.5116,2.4918,2.3133,1.5563,1.5569,3.0124,3.2092,4.466,4.8612.7041.8002,1.4066,1.6017,2.1199,2.3937.3998.4439.7805.9477,1.2259,1.3459.5547.4959-.5321-.6998-.5406-.7362.052.222.3582.523.4803.7227.1781.2913.3654.9476.6192,1.153-.0282-.0228-.541-1.5891-.3631-.8492.0508.211.153.4228.2194.6304.1372.4287.254.8649.3531,1.3039.0499.2208.0771.4521.1351.6704.2516.9469-.1416-1.6989-.0832-.7109.0556.94.1285,1.8649.1007,2.8087-.014.4736-.0429.9463-.0857,1.4182-.1628,1.7958.2853-1.5038-.0481.2634-.1729.9168-.3963,1.8235-.6707,2.7152-.1338.4348-.2841.8628-.4377,1.291-.5788,1.6139.5989-1.1254.0199-.05-1.0101,1.8758-2.0854,3.6894-3.3317,5.4216-.1361.1891-.3748.4211-.4642.6349.0655-.1566,1.1396-1.4143.273-.3538-.3262.3993-.651.7993-.9866,1.1908-.7205.8406-1.4716,1.6548-2.2489,2.443-1.4946,1.5157-3.093,2.9087-4.7404,4.2544-1.1304.9234,1.1431-.8373-.0383.0311-.4184.3075-.8349.6174-1.2572.9196-.9998.7154-2.018,1.4052-3.0487,2.0753-1.9822,1.2887-3.9989,2.5002-6.1393,3.5097-.2607.1229-1.9082.8432-.9208.4367.9888-.4072-.6868.2593-.9557.3593-1.2764.4746-2.5727.8938-3.8827,1.2656-2.3457.6658-4.7331,1.1787-7.137,1.584-1.1334.1911-2.3901.5292-3.5394.5317.0594-.0001,1.4228-.1843.5171-.0693-.3074.039-.6145.08-.9218.1189-.7226.0915-1.4457.1792-2.1692.2636-10.3236,1.2052-20.9236,2.0534-31.317,1.4324-1.1361-.0679-2.2709-.1565-3.4037-.266-.5685-.0549-1.1364-.1151-1.7038-.1806-.2841-.0328-.5679-.068-.8519-.1018-1.4223-.1697.8524.1434-.0658-.0124-2.3678-.4018-4.7324-.776-7.0709-1.3336-2.3327-.5562-4.6418-1.2196-6.9164-1.979-1.1802-.394-2.3515-.8148-3.5117-1.2644-.5223-.2024-1.1034-.3725-1.5961-.6392,1.2389.6707-.1526-.0771-.656-.3062-4.5642-2.0777-8.7763-4.6977-12.8814-7.5651-2.1474-1.4999-4.261-3.0481-6.3462-4.6333-.2491-.1894-.497-.3803-.7462-.5695.0902.0685.8396.6557.2023.1565-.4919-.3854-.9851-.769-1.4755-1.1563-1.1432-.9027-2.2787-1.8151-3.408-2.7352-8.1169-6.6133-16.4003-13.3198-23.6389-20.8991-3.5848-3.7535-6.9616-7.6971-10.3932-11.5891-3.3477-3.7969-6.7769-7.5189-9.972-11.4478-.3795-.4666-.7534-.9376-1.1294-1.407-.8364-1.0442.4291.5879-.3781-.481-.7872-1.0425-1.562-2.0937-2.3115-3.1637-1.4776-2.1093-2.919-4.2549-4.2174-6.48-.5844-1.0015-1.1405-2.0193-1.661-3.0555-.2561-.5098-.4857-1.0329-.7415-1.5424-.3312-.6598.0597.137.0953.2375-.1359-.3832-.2843-.7614-.4162-1.1462-.861-2.5103-1.4355-5.111-2.3958-7.5886-.5765-1.4874-1.2504-2.9235-1.936-4.3613-.2601-.5455-.5153-1.0935-.765-1.6439-.1237-.2726-.2456-.5459-.3666-.8196-.0452-.1021-.5201-1.1989-.2674-.6036.2641.6221-.1157-.2847-.136-.3352-.1111-.2761-.2228-.5519-.3325-.8286-.2194-.5537-.4335-1.1095-.6422-1.6674-.4571-1.2212-.889-2.4518-1.2977-3.6901-1.7375-5.2646-3.3393-10.5801-4.9815-15.8752-3.2552-10.4959-6.0833-21.2062-7.9085-32.0501-.2132-1.2666-.4124-2.5354-.5967-3.8065-.1434-.9891-.2435-1.7483-.4138-3.2416-.3111-2.7285-.5485-5.466-.697-8.2082-.3022-5.5831-.4925-11.1707-.8216-16.7533-.6617-11.2253-1.0146-22.3998-1.011-33.6446.0035-11.1551-.5782-22.4649.4921-33.5786.498-5.1714,1.1391-10.3232,1.1426-15.5269.002-2.9173-2.5666-5.7119-5.5771-5.5771-3.0393.1361-5.555,2.4502-5.5771,5.5771-.0397,5.6195-.8301,11.1714-1.3646,16.7551-.5489,5.7333-.4181,11.4749-.4216,17.2269-.0072,11.9514-.2745,23.9232.2365,35.8669.2549,5.9572.6417,11.9076.9576,17.8617.3033,5.7156.3771,11.4472.9036,17.1486,1.0839,11.7365,3.511,23.2252,6.5587,34.5936,1.5307,5.7099,3.0566,11.4193,4.5732,17.1332,1.4194,5.3479,2.7161,10.7396,4.5932,15.9511.4381,1.2164.9019,2.4235,1.3909,3.6204.3647.8928.7407,1.7814,1.1194,2.6684.0181.0424.4058.9755.1547.3532-.2777-.6881.2932.8068.3398.9435.8563,2.5132,1.3053,5.1391,2.0526,7.6832,1.5871,5.4032,4.4182,10.6417,7.6156,15.2584,6.3329,9.1441,14.0326,17.3099,21.3846,25.6277,7.3806,8.3501,15.6492,15.5823,24.1505,22.761,8.614,7.2739,17.5562,14.8214,27.4742,20.2715,9.3269,5.1253,19.7278,8.34,30.246,9.8239,11.1522,1.5733,22.3978,1.332,33.608.5016,11.5228-.8535,23.4555-1.9546,33.8187-7.4957,9.0448-4.8362,17.2417-11.8632,23.0209-20.3456,5.8966-8.6547,8.2332-20.1213,3.5339-29.8528-1.1105-2.2996-2.9053-4.1551-4.5948-6.0354-1.5956-1.7759-3.1481-3.5908-4.7831-5.331-3.772-4.0148-8.0855-7.5069-13.1858-9.6592-10.1462-4.2817-22.3258,1.2109-28.3253,9.8175-3.1063,4.4561-4.3992,10.2103-5.0253,15.5165-.619,5.2459-.2176,10.6377-.2236,15.91-.0068,5.9644.0805,11.9771,1.8158,17.7342,1.6645,5.5224,3.5382,11.1118,6.0397,16.3134,4.6565,9.6827,11.5381,18.0551,17.5383,26.9024,3.0479,4.4942,6.1519,8.9629,9.6509,13.123,3.5613,4.2342,7.6965,7.8668,11.9566,11.3776.9682.7979,1.9328,1.6028,2.914,2.3848,1.1959.9531,2.5701,1.6403,3.8925,2.4048,2.4248,1.402,4.3037,3.2183,6.2889,5.1894,3.1595,3.1371,8.0484-1.7472,4.8866-4.8866h0Z" style="stroke-width:0px;"/><path d="m537.0885,154.1342c.164-.1733.3391-.3313.5095-.4977.458-.4472-.6529.4378-.1614.1146.3526-.2318.7203-.4149,1.0828-.6264.2274-.1327-.9337.3518-.1649.0781.1822-.0648.3666-.1227.5525-.1755.406-.1154.8185-.2052,1.2359-.2678l-.9867.1326c1.4402-.1784,2.8913-.149,4.3394-.1446,1.8443.0056,3.5931-.1992,5.4213-.4585l-1.1922.1602c2.2926-.3011,4.613-.2298,6.9019.0699l-1.2864-.1729c1.305.1802,2.5986.4342,3.8692.7835,1.2929.3554,2.5387.8474,3.8076,1.2766,2.6531.8974,5.3289,1.7922,7.9135,2.8736l-1.4189-.5988c1.0945.4649,2.175.9703,3.2103,1.5568,1.0025.5679,1.9545,1.214,2.9819,1.7393,1.3487.6897,2.7618,1.2676,4.1836,1.7884,1.0513.385,2.1441.6324,3.1792,1.0602l-1.6772-.7078c1.985.8598,3.6805,2.2158,5.5537,3.276,2.2211,1.2569,4.5211,2.387,6.7639,3.6066,2.2901,1.2454,4.5736,2.5028,6.8701,3.7364,2.2591,1.2135,4.6119,2.2589,6.845,3.5167,2.3589,1.3287,4.5833,2.9125,6.7265,4.5629-.5168-.3993-1.0336-.7985-1.5503-1.1978,2.9109,2.2737,5.0482,5.2007,7.4317,7.9845,1.4216,1.6603,2.8946,3.2756,4.3406,4.9144,1.4203,1.6096,2.7659,3.2809,4.1786,4.8956,1.5751,1.8003,3.1759,3.6172,4.6387,5.5101l-1.0819-1.4004c.3624.4782.6763.9588.9134,1.5117l-.6796-1.6105c.8222,2.1308.5179,4.4277,1.8031,6.4363.7349,1.1485,1.6938,1.9956,2.9538,2.5273,1.3473.5686,2.5742.5832,4.0219.3113l.9654-.1813,1.3757-.5806,1.1655-.9005c.9007-.9007,1.4163-2.0591,1.5839-3.3067.3183-2.3692-.7942-4.422-2.7494-5.7382l-.8656-.5827c1.0198,1.7779,2.0395,3.5557,3.0593,5.3336.0295-.6221-.0732-1.2503-.0492-1.8783.0232-.6075.0816-1.2135.0876-1.8216.0243-2.438-.6587-4.5473-1.7348-6.7039-1.1572-2.3193-2.4388-4.6446-3.8834-6.7966-1.8059-2.6903-4.1083-5.1051-6.27-7.5118-1.7444-1.9421-3.4528-3.9064-5.1115-5.9222-1.3585-1.6509-2.7534-3.2574-4.3986-4.632-2.3959-2.0018-4.984-3.8916-7.6425-5.5377-2.3396-1.4487-4.8537-2.5845-7.3399-3.754-2.5854-1.2161-5.1537-2.4682-7.7277-3.7083-1.443-.6952-2.8879-1.3866-4.3386-2.0654-1.3545-.6338-2.7348-1.2181-4.0422-1.9466-1.1212-.6247-2.2064-1.3154-3.3595-1.8818-2.3554-1.157-4.5204-1.8634-7.1306-2.108.6151.0827,1.2302.1653,1.8453.248-1.5854-.2228-3.1471-.5275-4.6672-1.0377-1.7235-.5784-3.3908-1.257-5.1581-1.704-3.4658-.8767-7.0398-1.198-10.5053-2.0726-3.4981-.8827-7.1977-1.2777-10.8013-.9973-1.9621.1527-3.9252.4422-5.8206.9776-1.3432.3795-2.6977.653-4.0684.9117-1.522.2872-3.0393.6171-4.4829,1.1912-.9169.3646-1.8023.7461-2.6034,1.3246-1.1042.7974-1.8828,1.6144-2.6935,2.7043-.4724.635-.5784,1.8861-.3422,2.6159.2316.7156.6187,1.3015,1.2166,1.7634,1.2966,1.0017,3.2876.9701,4.4574-.2654h0Z" style="stroke-width:0px;"/><path d="m574.3757,156.0568l-.0629.188,2.2996-2.2996-.2447.0367c-1.2903.1933-2.5122,1.5745-2.7944,2.7944-.3323,1.4365-.3445,2.8802.1503,4.2861.4322,1.2282.9238,1.92,1.7409,2.9224.3019.3704.6216.7257.9185,1.1003l-.8123-1.0514c.9478,1.2437,1.6184,2.6594,2.4646,3.9687,1.0576,1.6363,2.3713,2.9755,4.011,4.0326,1.5838,1.0211,3.4228,1.7222,5.151,2.4321,1.6659.6843,3.3902,1.2742,5.1596,1.6241,2.4787.4901,5.3079.8379,7.7549-.0472,2.2277-.8058,4.1483-2.1228,5.3136-4.2512.8142-1.487,1.0504-2.6868,1.1791-4.367.1386-1.8094-.4864-3.0788-1.1699-4.6746-.6132-1.0364-1.438-1.8613-2.4745-2.4745-1.0758-.6239-2.2362-.9378-3.4813-.9417l-.2347.0038c-1.6968.0278-3.6686.7262-4.8438,2.0064-1.0387,1.1315-1.6786,2.4042-1.884,3.9333-.1962,1.4603-.0096,3.0921.8129,4.3679l1.0711,1.3864c.8547.849,1.8623,1.4362,3.0227,1.7617l.2222.089c-1.6879-2.217-3.3759-4.434-5.0638-6.651.0105.5271.055,1.0863-.0078,1.6101l.2493-1.8553c-.0306.2019-.0802.3943-.1566.5838l.7-1.6588c-.0679.153-.1482.2932-.2466.4286l1.0813-1.3996c-.1172.1502-.2479.2817-.3958.4017l1.393-1.0762c-.201.1534-.4164.276-.6471.3791l1.6338-.6895c-.4263.1793-.8727.2846-1.3293.3516l1.797-.2415c-1.1986.1601-2.4166.0761-3.6107-.0824l1.7414.234c-2.5632-.3534-5.152-1.0247-7.5391-2.0319l1.4569.6148c-.5475-.2341-1.0351-.5009-1.5134-.862l1.214.9379c-1.2984-1.0292-2.4328-2.2404-3.6747-3.3329-.8768-.7713-1.8133-1.4735-2.7876-2.116-.5826-.3842-1.2064-.7193-1.7729-1.1219l.914.7061c-.2008-.1568-.3797-.3224-.5436-.5172l.6612.8558c-.0943-.1269-.1756-.251-.2536-.3885l.4085.968c-.2891-.7004-.5078-1.3828-1.0925-1.9196-.5521-.5069-1.1672-.8627-1.8975-1.0656l2.4172,3.1749.0255-.1931c.0973-.7369-.43-1.8293-.9588-2.3147-.5407-.4964-1.1489-.8021-1.8796-.9003-1.6553-.2224-3.0692.7817-3.5917,2.3448h0Z" style="stroke-width:0px;"/><path d="m417.7412,459.3185c-3.2269-2.3399-6.4245-4.7197-9.6488-7.0631-.3564-.259-.7132-.5176-1.0703-.7756-.0879-.0635-.8758-.7293-.2919-.1915.9512.8761-1.5468-1.2129-.5268-.3928.6263.5035-.1188-.1049-.2513-.2146-.1664-.1376-.3329-.2751-.4996-.4124-.3752-.3089-.7512-.6168-1.1282-.9235-1.8693-1.5209-3.7685-3.0029-5.6808-4.4695l1.2248.9463c-1.3424-1.0475-2.5244-2.2838-3.773-3.4377l1.0385,1.3442c-.5904-.8048-1.1059-1.494-1.8865-2.0971-.376-.2905-.7557-.5702-1.1318-.8589l1.3645,1.0542c-1.937-1.8767-4.0737-3.4463-6.6956-4.1974,1.1009.6416,2.2019,1.2833,3.3028,1.9249-1.0924-.8639-2.0984-1.5919-3.4425-2.0268-.5927-.1918-1.6442-.2864-2.4277-.2804-1.0085.0077-2.0331.1844-3.0204.3592-1.3667.2421-2.7062.8646-3.9441,1.4359-2.1503.9924-4.0726,2.5476-5.8341,4.1017-3.1329,2.7641-5.8321,6.205-8.0566,9.7267-1.234,1.9536-2.3498,3.9711-3.6365,5.8946-1.5514,2.3193-3.1894,4.579-4.7707,6.8778-1.459,2.1211-3.0144,4.2857-4.1223,6.6175-.9039,1.9025-1.638,3.7058-1.6536,5.8517-.0163,2.2451.7291,4.2928,2.0849,6.0476,1.8434,2.3859,4.4875,3.6877,7.0338,5.1796,2.689,1.5754,5.3232,3.2443,7.7994,5.1403l-1.5993-1.2356c3.1362,2.4323,5.9811,5.1287,9.5327,6.9782,3.4579,1.8007,7.1339,3.1561,10.724,4.664l-1.8763-.7918c3.6303,1.5342,6.9856,3.3604,10.1179,5.7647l-1.5839-1.2237c2.761,2.1402,5.3345,4.5078,8.0778,6.6697,1.8087,1.4253,3.6292,2.8497,5.5838,4.0725,1.6451,1.0292,3.39,1.8948,5.1107,2.7883,3.7102,1.9265,7.4698,3.6927,11.2614,5.4511,3.02,1.4006,5.8196,3.1225,8.6246,4.9051,3.9536,2.5125,8.3893,4.4134,13.1485,4.4075,1.7166-.0021,3.7629-.7604,4.9453-2.0484l1.0936-1.4154c.6326-1.0908.9509-2.2674.9549-3.5299l.0367-.2989-.2498,1.859c.6182-4.53,2.5835-8.6683,3.9414-12.9942,1.4558-4.6379,2.0283-9.5699,2.9494-14.3344.9425-4.8753,1.9856-9.7397,3.4084-14.5003,1.4017-4.6903,3.1265-9.2748,4.8269-13.8626,1.7368-4.6858,3.4821-9.3883,4.7785-14.2191,1.3048-4.8622,2.3035-9.7706,4.0641-14.5008.8255-2.2177,1.7121-4.4145,2.4249-6.6724.7449-2.3598,1.2005-4.7901,1.7916-7.1897.6147-2.4957,1.2076-4.9967,1.8256-7.4915.6158-2.4858,1.3459-4.9466,1.9338-7.4381.6398-2.7116.9384-5.5226,1.8273-8.1713.4135-1.2322.9683-2.4087,1.3146-3.6641.3573-1.2952.7035-2.5934,1.0705-3.8859.761-2.6803,1.5871-5.3427,2.5432-7.9604.914-2.5025,1.3759-5.1602,2.3637-7.6297l-.74,1.7535c.5059-1.1631,1.2151-2.2201,1.7558-3.3658,1.014-2.1484,1.8656-4.3853,1.6567-6.8144-.1947-2.2639-.7903-4.54-2.4589-6.2086-1.8365-1.8365-4.3043-2.2665-6.7844-2.3459-1.512-.0484-3.0132.165-4.5238-.0047l1.9834.2665c-.7067-.1001-1.3803-.2745-2.0414-.5437l1.7866.754c-1.2504-.5511-2.3525-1.367-3.4719-2.1391-1.3912-.9596-2.7587-1.9487-4.0981-2.9797.5089.3931,1.0177.7863,1.5266,1.1794-2.2749-1.7626-4.467-3.6261-6.6367-5.5159-2.6094-2.2729-5.311-4.1827-8.4906-5.5479-3.2656-1.4021-6.5428-2.6321-10.0483-3.2768-1.2689-.2334-2.5383-.3907-3.7827-.7388-1.7181-.4806-3.3865-.8538-5.1822-1.0018-1.1429-.0942-2.353.0667-3.4454.3638-3.0982.8425-5.0255,3.368-5.8929,6.3344-.6551,2.2404-.5425,4.6171-.81,6.9131l.2772-2.0626c-.2567,1.8066-.9763,3.5374-1.5119,5.2745-.5347,1.7341-.8692,3.5157-1.3545,5.2631-.9981,3.5931-2.2409,7.1075-3.2003,10.7133-1.9835,7.4539-4.1171,14.8681-5.9743,22.3553-.5089,2.0516-1.0524,4.1083-1.4046,6.1938-.4541,2.6891-.7106,5.4062-1.0654,8.1089l.2671-1.9875c-.4743,3.4884-1.3606,6.9052-1.8849,10.3898-.5195,3.453-.991,6.9107-1.8759,10.2944-.9992,3.8205-2.0696,7.5367-2.3267,11.5092-.2247,3.4719.048,6.9541.0556,10.4281.0041,1.8833.8154,3.8537,2.1484,5.1867,1.2722,1.2722,3.3595,2.2302,5.1867,2.1484,3.9671-.1777,7.344-3.2231,7.3351-7.3351-.0084-3.8818-.3488-7.8191.1181-11.6849l-.263,1.9576c.3679-2.7219,1.1902-5.338,1.906-7.9813.7245-2.6755,1.2122-5.3977,1.648-8.133.4408-2.7665.8455-5.5432,1.485-8.2728.7776-3.3193,1.1721-6.6805,1.6182-10.0579l-.2677,1.9921c.52-3.8514,1.5385-7.5946,2.5387-11.3442.993-3.7225,2.0431-7.4295,3.0963-11.1353,1.0515-3.7,2.0308-7.4257,3.1296-11.1117,1.0746-3.6052,2.4118-7.1204,3.2753-10.7875.4591-1.95,1.1515-3.8216,1.7543-5.7289.8151-2.5788.7672-5.2059,1.0591-7.8546l-.2765,2.0576c.1006-.7255.2654-1.3998.5495-2.0761-1.7993,1.7993-3.5985,3.5985-5.3978,5.3978.1777-.0655.3423-.1098.5284-.146l-2.0537.276c.4213-.0529.8299-.0395,1.2518.0048-.684-.0919-1.3679-.1838-2.0519-.2757,1.1073.15,2.1715.4792,3.2505.7576,1.2415.3202,2.5215.4402,3.7821.6662,2.8195.5054,5.556,1.3736,8.1987,2.4733l-1.8233-.7695c1.8907.8058,3.6982,1.7683,5.3388,3.0127l-1.538-1.1883c1.9661,1.5423,3.8164,3.2348,5.768,4.7976,2.337,1.8714,4.7167,3.6998,7.1885,5.3909,2.1607,1.4783,4.3727,2.9635,6.9395,3.6501,1.5731.4208,3.2899.5901,4.9213.5364,1.3459-.0443,2.6731-.2034,4.0168-.0265-.6568-.0883-1.3135-.1765-1.9703-.2648l.3119.0547c-1.4759-1.135-2.9519-2.2699-4.4278-3.4049l.1051.2418-.7467-1.7693c.086.2433.1497.4721.2006.725l-.2643-1.9673c.0533.408.0521.7944.0047,1.2022l.264-1.9645c-.0981.58-.273,1.1182-.4972,1.6612l.7435-1.7618c-.4826,1.0938-1.1113,2.1126-1.6151,3.1958-.8172,1.7569-1.394,3.4879-1.848,5.358-.7029,2.8955-1.7521,5.6667-2.6022,8.5196-.8487,2.8481-1.4408,5.7785-2.3213,8.6134-.4378,1.4093-1.0335,2.7499-1.39,4.1869-.488,1.9666-.7939,3.9916-1.0332,5.9999l.2527-1.8809c-.6146,4.0518-1.6207,8.034-2.4211,12.0524-.8026,4.0292-1.4926,8.1098-2.652,12.0568-1.0914,3.7153-2.7412,7.2335-3.9326,10.9145-1.2338,3.8118-2.0318,7.7442-3.1087,11.5999-2.1668,7.7578-5.4093,15.1663-8.0666,22.7585-2.6193,7.4838-4.3244,15.17-5.8213,22.9447-.8118,4.2165-1.4888,8.4351-2.9286,12.4945-.6908,1.9479-1.4608,3.8674-2.1134,5.8288-.833,2.5039-1.2854,4.9837-1.6234,7.6013,2.3312-2.3312,4.6625-4.6625,6.9937-6.9937-.5176-.0027-1.0288-.0347-1.5429-.0956l1.8605.25c-1.2739-.1789-2.4883-.5399-3.6766-1.0285l1.6748.7068c-2.1082-.9014-4.0291-2.1435-5.9264-3.4184l1.4232,1.0995c-4.2376-3.4702-8.9003-6.3137-13.6919-8.9478-4.6132-2.536-9.4246-4.631-13.6264-7.8499.5261.4064,1.0521.8129,1.5782,1.2193-4.1425-3.2066-7.9173-6.8442-12.2004-9.8785-4.2789-3.0313-9.1884-4.8425-13.9893-6.8643l1.8787.7928c-3.1781-1.3445-6.3382-2.7928-9.0946-4.8983l1.5968,1.2337c-1.3451-1.0539-2.5804-2.2374-3.9306-3.2879-1.8652-1.4511-3.7443-2.858-5.727-4.1442-1.4606-.9475-2.9521-1.8471-4.4563-2.7235-1.0712-.6242-2.199-1.1914-3.1876-1.9451l1.6063,1.241c-.2508-.2018-.4777-.413-.6754-.6677l1.2414,1.6068c-.0917-.1321-.1687-.2647-.2355-.411l.8004,1.8967c-.0568-.1491-.0961-.2946-.1229-.4519l.2837,2.1111c-.0235-.2171-.0217-.4294.0018-.6462l-.2835,2.1097c.0706-.4517.215-.8751.3874-1.2974l-.7989,1.8931c1.0282-2.3694,2.5492-4.5661,3.9695-6.7132,1.4803-2.2378,3.0188-4.4366,4.4855-6.6835,2.2014-3.3723,3.9806-6.9797,6.4425-10.1789l-1.2036,1.5578c1.6757-2.1561,3.5337-4.1954,5.6997-5.8695l-1.5443,1.1931c.9467-.7161,1.9443-1.352,3.0328-1.8305-.6053.2554-1.2105.5108-1.8158.7663.6563-.2745,1.326-.4822,2.0296-.5934l-2.0161.2709c.2787-.0367.5537-.0547.8344-.0639,1.5236-.0496,2.941-.3269,4.2724-1.0918-1.2592.3406-2.5185.6813-3.7777,1.0219.3817-.0248.7526-.0148,1.1319.0343l-1.9371-.2603c.7651.1243,1.4939.3803,2.2098.6717l-1.6441-.6938c1.0515.4467,1.9662,1.0444,3.0783,1.4014l-1.5865-.6695c1.8893,1.075,3.7266,2.1536,5.7015,3.0677,2.2441,1.0387,4.5372,2.0575,6.7052,3.249,4.3767,2.4052,8.5519,5.2351,12.8205,7.8289,1.9806,1.2035,4.9514.5006,6.0547-1.5876,1.2126-2.2952.4196-4.5992-1.5876-6.0547h0Z" style="stroke-width:0px;"/><path d="m591.4722,332.2379c.0981-.474.2455-.9201.4326-1.3662l-.518,1.2275c.9283-2.0626,2.484-3.8163,3.7504-5.6743,1.4165-2.0782,2.6233-4.2697,3.9062-6.4307,1.2341-2.0788,2.4995-4.1414,3.7677-6.1995,1.2484-2.026,2.5053-4.0755,3.9425-5.975l-.9776,1.2653c1.0131-1.3001,2.2155-2.4388,3.24-3.7306,1.183-1.4916,1.9681-2.832,2.5734-4.6694.2466-.7484.2754-1.7605.1882-2.5832-.0848-.8-.1503-1.6421-.4217-2.4078-.7398-2.0868-2.2736-3.6041-4.5358-3.908-.998-.1341-1.8988-.0194-2.8272.3724-.9907.4181-2.1565,1.2081-2.6089,2.2323-.1442.3264-.3243.6181-.5381.9034l.9188-1.1892c-.5139.6406-1.063,1.1605-1.5201,1.8888-.2034.324-.4128.6355-.646.9393l.9847-1.2745c-.6765.8518-1.3368,1.7147-1.9971,2.5791l.9921-1.2841c-1.4389,1.8529-3.0214,3.579-4.2815,5.5679-1.2905,2.0369-2.4723,4.1405-3.6351,6.2522-1.1709,2.1265-2.3544,4.2476-3.4833,6.3968-1.1522,2.1936-2.2129,4.4231-3.3201,6.6385-.5496,1.0997-1.1607,2.1708-1.6702,3.2902-.8768,1.9263-1.4808,3.6685-1.5992,5.8015-.0661,1.1918.5969,2.7529,1.4737,3.5578.8311.7629,1.7659,1.2329,2.889,1.3838,2.3286.3129,5.0112-1.1436,5.5206-3.6041h0Z" style="stroke-width:0px;"/><path d="m613.2049,369.1696c1.2658-1.1872,2.5957-2.3001,3.9676-3.3624l-.9644.7451c4.2025-3.2324,8.8007-5.8746,13.132-8.9217,2.5902-1.8223,5.014-3.8398,7.4589-5.8473,2.2723-1.8658,4.5749-3.6923,6.8377-5.57,1.2821-1.0638,2.5598-2.1331,3.8217-3.2208.6041-.5206,1.1814-1.0561,1.7458-1.6196.2814-.281.5617-.563.8402-.8468.3253-.3315.5557-.6293.855-1.0167.6617-.8565.9138-1.6005,1.3575-2.6522.3089-1.1493.3089-2.2986,0-3.4479-.3081-1.0986-.864-2.0525-1.6678-2.8616-.8092-.8037-1.763-1.3596-2.8616-1.6678-1.1493-.3089-2.2986-.3089-3.4479,0-.6394.2622-1.4648.5299-1.9814.8323-.7199.4213-1.0294.7552-1.5239,1.206-.2941.2681-.5817.5436-.8745.8132-.6437.5928-1.2775,1.1874-1.8974,1.8051-1.176,1.1717-2.3691,2.3262-3.5669,3.4756-2.3412,2.2464-4.6564,4.51-6.896,6.8587-2.1194,2.2227-4.2859,4.3519-6.6199,6.3512-2.2233,1.9044-4.5022,3.7435-6.7458,5.6238-2.5907,2.1712-5.1324,4.3778-7.3987,6.894-.8065.8954-1.3317,1.9858-1.3317,3.2149,0,1.1151.4953,2.4471,1.3317,3.2149,1.8629,1.7101,4.5749,1.7397,6.4298,0h0Z" style="stroke-width:0px;"/><path d="m635.8665,405.3932c4.6934-.7914,9.4036-1.477,14.102-2.2375,2.347-.3799,4.6908-.7805,7.028-1.217,2.0587-.3845,4.0206-.8123,5.9726-1.5828,2.4938-.9843,5.025-1.8778,7.4734-2.9576l-1.4638.6177c.1133-.048.227-.0951.341-.1415.7889-.1876,1.4761-.5492,2.0615-1.085.6599-.4274,1.1804-.9944,1.5613-1.7008.6469-1.2244.9046-2.4867.7194-3.8654-.3905-2.9062-2.9194-5.3153-5.9538-5.2563-.3638.0071-.7234.0403-1.0847.0817-.2852.0327-1.4576.1157-2.0417.3033-.5781.1857-1.5535.6482-1.8634.7832-.7434.3238-1.4677.6851-2.1844,1.0639-1.4346.7582-2.841,1.5759-4.3365,2.2117.4679-.1975.9358-.3949,1.4038-.5924-1.8437.7584-3.8177,1.2605-5.7308,1.8133-2.0384.5891-4.0848,1.1503-6.1341,1.7003-4.0953,1.0991-8.2023,2.1547-12.2871,3.293-2.29.6382-3.9333,3.2512-3.1755,5.5928.356,1.1001,1.0378,2.1615,2.0894,2.7172,1.1423.6035,2.234.6724,3.5034.4583h0Z" style="stroke-width:0px;"/><path d="m658.0274,452.2947c1.575.028,3.1408.2403,4.7138.3125.7994.0367,1.603.0446,2.4005-.0297.7345-.0685,1.5097-.1051,2.2132-.3257,1.073-.3365,1.8235-.9476,2.6852-1.6416.5405-.5442.9144-1.1856,1.1216-1.9244.2077-.7729.2077-1.5458,0-2.3187l-.1881-.9808-.4033-.9557-.6256-.8097c-.6257-.6257-1.4305-.9839-2.2973-1.1004-1.5141-.2034-3.2437.4966-3.9865,1.9101l-.4702.8948,3.7657-2.16c-.3017.0016-.6008-.0358-.9005-.0422-.6782-.0146-1.4008.2121-2.0842.305l1.2374-.1663c-2.3916.2948-4.7861-.0897-7.1817-.0601-1.1747.0145-2.3804.4971-3.2149,1.3317-.7886.7886-1.3824,2.0823-1.3317,3.2149.112,2.4995,1.9972,4.5013,4.5465,4.5465h0Z" style="stroke-width:0px;"/></svg>