

<svg xmlns="http://www.w3.org/2000/svg" xmlns:xlink="http://www.w3.org/1999/xlink" xmlns:inkscape="http://www.inkscape.org/namespaces/inkscape" version="1.1" viewBox="56.94 38.95 492.74 53.32">
  <defs>
    <g id="font_1_67">
      <path transform="matrix(.001,0,0,-.001,0,0)" d="M327.125-732 580.2969-322.17189 832.46878-732H1097.4688V0H832.7031V-119.234378C831.4531-162.96355 833.66146-211.7552 839.3281-265.60939 844.9948-319.47398 853.21878-359.25 864-384.9375L859.0625-385.9375C827.21878-303.1979 789.9427-212.09897 747.2344-112.640628L699.59378 0H460L416.40626-91.40625C392.21876-141.375 367.40626-192.58333 341.96876-245.03125 316.54167-297.47917 294.5729-342.88023 276.0625-381.23439L271.0625-378.35939C286.8646-346.27604 299.95835-305.03648 310.34376-254.64063 320.7396-204.2552 326.25-159.07813 326.875-119.109378V0H62.125V-732H327.125Z"></path>
    </g>
    <g id="font_1_25">
      <path transform="matrix(.001,0,0,-.001,0,0)" d="M76.234378-209.23438H848.59378V0H76.234378V-209.23438ZM62.125-732H848.59378V-521.8281H341V-463.35939H848.59378V-268.23439H341V0H62.125V-732Z"></path>
    </g>
    <g id="font_1_87">
      <path transform="matrix(.001,0,0,-.001,0,0)" d="M600.6406-103C585.9427-129.9375 565.16146-150.14063 538.2969-163.60938 511.43229-177.08855 481.3125-183.82813 447.9375-183.82813H283.64064V-392.125H624C645.76046-392.125 661.6302-396.45835 671.6094-405.125 681.59896-413.79167 686.59378-427.00523 686.59378-444.76564 686.59378-456.49479 684.4844-466.03126 680.2656-473.375 676.0469-480.72917 669.5469-486.40626 660.7656-490.40626 651.9844-494.40626 640.5156-496.40626 626.3594-496.40626H283.64064V-732H599.2969C678.03646-732 742.73959-724.65628 793.40628-709.96878 844.07296-695.28128 882.59378-671.1406 908.96878-637.5469 935.34378-603.96359 949.47396-558.83859 951.3594-502.17189 952.6094-452.21354 940.63546-410.1354 915.4375-375.9375 890.23959-341.7396 854.4427-316.26564 808.0469-299.51564 761.66146-282.77604 707.84378-274.50523 646.59378-274.70314L646.53128-268.875C694.92709-267.4271 742.03646-255.61458 787.8594-233.4375 833.6823-211.26042 875.26046-168.78125 912.59378-106L974.0625 0H656.46878L600.6406-103ZM62.125-732H326.875V0H62.125V-732Z"></path>
    </g>
    <g id="font_1_15">
      <path transform="matrix(.001,0,0,-.001,0,0)" d="M943.6406-276.46876C925.6823-176.46875 881.3594-103.390628 810.6719-57.234376 739.9844-11.078125 637.81777 12 504.17189 12 396.14064 12 307.94795-1.291666 239.59375-27.875 171.23958-54.46875 120.552089-95.46875 87.53125-150.875 54.510416-206.29167 38-277.625 38-364.875 38-453.1146 54.359376-524.94796 87.078128-580.375 119.8073-635.8125 170.33853-676.9427 238.67188-703.7656 307.00523-730.58859 395.1927-744 503.23439-744 640.0573-744 743.8802-720.02609 814.7031-672.0781 885.52609-624.1406 929.42709-548.2917 946.40628-444.53126L680.8281-396.82814C670.8594-435.18229 651.69796-463.52604 623.34378-481.85939 595-500.19273 554.96359-509.98439 503.23439-511.23439 456.56773-513.1198 418.3021-508.93229 388.4375-498.67189 358.5729-488.42189 336.5104-472.14585 322.25-449.84376 308-427.5521 300.875-399.22917 300.875-364.875 300.875-331.1979 308.09898-303.375 322.54689-281.40626 337.00523-259.4479 359.18229-243.3802 389.07814-233.20313 418.98439-223.02605 457.03648-218.5677 503.23439-219.82813 550.65109-221.07813 588.27609-229.34896 616.1094-244.64063 643.9531-259.94273 664.625-284.2604 678.125-317.59376L943.6406-276.46876Z"></path>
    </g>
    <g id="font_1_43">
      <path transform="matrix(.001,0,0,-.001,0,0)" d="M62.125-732H345.70314V-462.40626H635.53128V-732H919.1719V0H635.53128V-267.29689H345.70314V0H62.125V-732Z"></path>
    </g>
    <g id="font_1_46">
      <path transform="matrix(.001,0,0,-.001,0,0)" d="M74.828128-732H339.59376V0H74.828128Z"></path>
    </g>
    <g id="font_1_36">
      <path transform="matrix(.001,0,0,-.001,0,0)" d="M62.125-732H848.59378V-521.8281H341V-463.35939H848.59378V-268.23439H341V0H62.125V-732Z"></path>
    </g>
    <g id="font_1_121">
      <path transform="matrix(.001,0,0,-.001,0,0)" d="M565.7031-230.59375V0H282.125V-230.59375L-48.234376-732H262L379.23439-563.1719C394.80729-538.58859 405.375-514.65628 410.9375-491.375 416.5104-468.10417 420.1771-438.54689 421.9375-402.70314H425.9375C427.5521-436.63023 431.3854-465.66148 437.4375-489.79689 443.5-513.9323 453.8854-538.41146 468.59376-563.2344L585.7656-732H896L565.7031-230.59375Z"></path>
    </g>
  </defs>
  <g transform="matrix(70.531036, 0, 0, -70.531036, 52.558502, 91.4282)" fill="#000000">
    <path transform="matrix(.001,0,0,-.001,0,0)" d="M327.125-732 580.2969-322.17189 832.46878-732H1097.4688V0H832.7031V-119.234378C831.4531-162.96355 833.66146-211.7552 839.3281-265.60939 844.9948-319.47398 853.21878-359.25 864-384.9375L859.0625-385.9375C827.21878-303.1979 789.9427-212.09897 747.2344-112.640628L699.59378 0H460L416.40626-91.40625C392.21876-141.375 367.40626-192.58333 341.96876-245.03125 316.54167-297.47917 294.5729-342.88023 276.0625-381.23439L271.0625-378.35939C286.8646-346.27604 299.95835-305.03648 310.34376-254.64063 320.7396-204.2552 326.25-159.07813 326.875-119.109378V0H62.125V-732H327.125Z"></path>
  </g>
  <g transform="matrix(70.531036, 0, 0, -70.531036, 132.234192, 91.4282)" fill="#000000">
    <path transform="matrix(.001,0,0,-.001,0,0)" d="M76.234378-209.23438H848.59378V0H76.234378V-209.23438ZM62.125-732H848.59378V-521.8281H341V-463.35939H848.59378V-268.23439H341V0H62.125V-732Z"></path>
  </g>
  <g transform="matrix(70.531036, 0, 0, -70.531036, 195.402618, 91.4282)" fill="#000000">
    <path transform="matrix(.001,0,0,-.001,0,0)" d="M600.6406-103C585.9427-129.9375 565.16146-150.14063 538.2969-163.60938 511.43229-177.08855 481.3125-183.82813 447.9375-183.82813H283.64064V-392.125H624C645.76046-392.125 661.6302-396.45835 671.6094-405.125 681.59896-413.79167 686.59378-427.00523 686.59378-444.76564 686.59378-456.49479 684.4844-466.03126 680.2656-473.375 676.0469-480.72917 669.5469-486.40626 660.7656-490.40626 651.9844-494.40626 640.5156-496.40626 626.3594-496.40626H283.64064V-732H599.2969C678.03646-732 742.73959-724.65628 793.40628-709.96878 844.07296-695.28128 882.59378-671.1406 908.96878-637.5469 935.34378-603.96359 949.47396-558.83859 951.3594-502.17189 952.6094-452.21354 940.63546-410.1354 915.4375-375.9375 890.23959-341.7396 854.4427-316.26564 808.0469-299.51564 761.66146-282.77604 707.84378-274.50523 646.59378-274.70314L646.53128-268.875C694.92709-267.4271 742.03646-255.61458 787.8594-233.4375 833.6823-211.26042 875.26046-168.78125 912.59378-106L974.0625 0H656.46878L600.6406-103ZM62.125-732H326.875V0H62.125V-732Z"></path>
  </g>
  <g transform="matrix(70.531036, 0, 0, -70.531036, 263.073029, 91.4282)" fill="#000000">
    <path transform="matrix(.001,0,0,-.001,0,0)" d="M943.6406-276.46876C925.6823-176.46875 881.3594-103.390628 810.6719-57.234376 739.9844-11.078125 637.81777 12 504.17189 12 396.14064 12 307.94795-1.291666 239.59375-27.875 171.23958-54.46875 120.552089-95.46875 87.53125-150.875 54.510416-206.29167 38-277.625 38-364.875 38-453.1146 54.359376-524.94796 87.078128-580.375 119.8073-635.8125 170.33853-676.9427 238.67188-703.7656 307.00523-730.58859 395.1927-744 503.23439-744 640.0573-744 743.8802-720.02609 814.7031-672.0781 885.52609-624.1406 929.42709-548.2917 946.40628-444.53126L680.8281-396.82814C670.8594-435.18229 651.69796-463.52604 623.34378-481.85939 595-500.19273 554.96359-509.98439 503.23439-511.23439 456.56773-513.1198 418.3021-508.93229 388.4375-498.67189 358.5729-488.42189 336.5104-472.14585 322.25-449.84376 308-427.5521 300.875-399.22917 300.875-364.875 300.875-331.1979 308.09898-303.375 322.54689-281.40626 337.00523-259.4479 359.18229-243.3802 389.07814-233.20313 418.98439-223.02605 457.03648-218.5677 503.23439-219.82813 550.65109-221.07813 588.27609-229.34896 616.1094-244.64063 643.9531-259.94273 664.625-284.2604 678.125-317.59376L943.6406-276.46876Z"></path>
  </g>
  <g transform="matrix(70.531036, 0, 0, -70.531036, 331.493774, 91.4282)" fill="#000000">
    <path transform="matrix(.001,0,0,-.001,0,0)" d="M62.125-732H345.70314V-462.40626H635.53128V-732H919.1719V0H635.53128V-267.29689H345.70314V0H62.125V-732Z"></path>
  </g>
  <g transform="matrix(70.531036, 0, 0, -70.531036, 399.164154, 91.4282)" fill="#000000">
    <path transform="matrix(.001,0,0,-.001,0,0)" d="M74.828128-732H339.59376V0H74.828128Z"></path>
  </g>
  <g transform="matrix(70.531036, 0, 0, -70.531036, 426.316742, 91.4282)" fill="#000000">
    <path transform="matrix(.001,0,0,-.001,0,0)" d="M62.125-732H848.59378V-521.8281H341V-463.35939H848.59378V-268.23439H341V0H62.125V-732Z"></path>
  </g>
  <g transform="matrix(70.531036, 0, 0, -70.531036, 486.483856, 91.4282)" fill="#000000">
    <path transform="matrix(.001,0,0,-.001,0,0)" d="M565.7031-230.59375V0H282.125V-230.59375L-48.234376-732H262L379.23439-563.1719C394.80729-538.58859 405.375-514.65628 410.9375-491.375 416.5104-468.10417 420.1771-438.54689 421.9375-402.70314H425.9375C427.5521-436.63023 431.3854-465.66148 437.4375-489.79689 443.5-513.9323 453.8854-538.41146 468.59376-563.2344L585.7656-732H896L565.7031-230.59375Z"></path>
  </g>
</svg>